<?xml version="1.0" encoding="UTF-8" standalone="no"?>
<!-- Created with Inkscape (http://www.inkscape.org/) -->

<svg
   version="1.1"
   id="svg1"
   width="734.60394"
   height="367.87598"
   viewBox="0 0 734.60393 367.87597"
   sodipodi:docname="New Future Day Logo.eps"
   xmlns:inkscape="http://www.inkscape.org/namespaces/inkscape"
   xmlns:sodipodi="http://sodipodi.sourceforge.net/DTD/sodipodi-0.dtd"
   xmlns="http://www.w3.org/2000/svg"
   xmlns:svg="http://www.w3.org/2000/svg">
  <defs
     id="defs1" />
  <sodipodi:namedview
     id="namedview1"
     pagecolor="#ffffff"
     bordercolor="#000000"
     borderopacity="0.25"
     inkscape:showpageshadow="2"
     inkscape:pageopacity="0.0"
     inkscape:pagecheckerboard="0"
     inkscape:deskcolor="#d1d1d1" />
  <g
     id="g1"
     inkscape:groupmode="layer"
     inkscape:label="1"
     transform="translate(-235.89867,-633.45734)">
    <path
       id="path2"
       d="m 334.20266,865.83292 c 2.808,0 5.08533,2.09802 5.08533,4.68645 v 87.69313 c 0,18.61185 16.424,33.75151 36.608,33.75151 h 452.89332 c 20.19067,0 36.61467,-15.13966 36.61467,-33.75151 v -87.69313 c 0,-2.58843 2.276,-4.68645 5.07866,-4.68645 2.808,0 5.08534,2.09802 5.08534,4.68645 v 87.69313 c 0,23.77777 -20.984,43.1208 -46.77867,43.1208 H 375.89599 c -25.79467,0 -46.77866,-19.34303 -46.77866,-43.1208 v -87.69313 c 0,-2.58843 2.27733,-4.68645 5.08533,-4.68645"
       style="fill:#17ae65;fill-opacity:1;fill-rule:nonzero;stroke:none;stroke-width:0.128014" />
    <path
       id="path3"
       d="m 870.48264,767.52225 c -2.80266,0 -5.07866,-2.077 -5.07866,-4.63799 v -86.76335 c 0,-18.41451 -16.424,-33.39371 -36.61467,-33.39371 H 375.89599 c -20.184,0 -36.608,14.9792 -36.608,33.39371 v 86.76335 c 0,2.56099 -2.27733,4.63799 -5.08533,4.63799 -2.808,0 -5.08533,-2.077 -5.08533,-4.63799 v -86.76335 c 0,-23.52554 20.98399,-42.6636 46.77866,-42.6636 h 452.89332 c 25.79467,0 46.77867,19.13806 46.77867,42.6636 v 86.76335 c 0,2.56099 -2.27734,4.63799 -5.08534,4.63799"
       style="fill:#17ae65;fill-opacity:1;fill-rule:nonzero;stroke:none;stroke-width:0.127333" />
    <path
       id="path6"
       d="m 323.55333,780.65597 h 50.80266 c 0.61333,0 1.14133,0.18534 1.576,0.556 0.42933,0.37067 0.64933,0.928 0.64933,1.66934 v 15.69733 c 0,0.48133 -0.20266,1.02133 -0.60266,1.624 -0.40534,0.60267 -0.94534,0.904 -1.62267,0.904 h -28.33467 v 15.90666 h 19.52267 c 0.61467,0 1.14267,0.18534 1.57733,0.556 0.44667,0.37067 0.672,0.928 0.672,1.66934 v 14.07466 c 0,0.464 -0.208,1.00934 -0.62533,1.62267 -0.40667,0.604 -0.94533,0.90533 -1.624,0.90533 h -19.52267 v 17.71467 c 0,1.484 -0.812,2.22533 -2.43466,2.22533 h -20.33467 c -0.48133,-0.13866 -0.85866,-0.40533 -1.13733,-0.81066 -0.26667,-0.4 -0.39333,-0.84134 -0.39333,-1.32267 v -70.76666 c 0,-0.93867 0.18533,-1.52934 0.556,-1.76134 0.37066,-0.232 0.79466,-0.38266 1.276,-0.464"
       style="fill:#211d1d;fill-opacity:1;fill-rule:nonzero;stroke:none;stroke-width:0.133333" />
    <path
       id="path7"
       d="m 423.97066,824.50264 v -41.62133 c 0,-0.60267 0.18533,-1.11867 0.556,-1.55334 0.372,-0.44666 0.928,-0.672 1.67066,-0.672 h 19.52267 c 0.956,0 1.6,0.24267 1.92533,0.71867 0.336,0.48133 0.50934,0.98533 0.50934,1.50667 v 43.03599 c 0,5.87734 -0.92667,10.804 -2.78267,14.79334 -1.85467,3.976 -4.39333,7.14133 -7.60533,9.50666 -3.2,2.364 -6.79334,4.07467 -10.78134,5.124 -3.97733,1.032 -8.08666,1.55334 -12.336,1.55334 -4.25466,0 -8.388,-0.52134 -12.40533,-1.55334 -4.02267,-1.04933 -7.628,-2.76 -10.828,-5.124 -3.2,-2.36533 -5.72667,-5.53066 -7.58133,-9.50666 -1.856,-3.98934 -2.78267,-8.916 -2.78267,-14.79334 v -43.03599 c 0.12133,-1.40267 0.724,-2.144 1.808,-2.22534 h 19.94133 c 0.53867,0 1.096,0.208 1.66934,0.62534 0.568,0.40666 0.85733,0.94 0.85733,1.6 v 41.62133 c 0,2.28933 0.49867,4.116 1.508,5.472 1.02,1.344 2.25467,2.30666 3.70933,2.87466 1.44934,0.57467 2.81734,0.85867 4.104,0.85867 1.34534,0 2.74267,-0.348 4.19734,-1.044 1.44933,-0.70667 2.66666,-1.75067 3.64,-3.13067 0.98533,-1.39066 1.484,-3.06533 1.484,-5.03066"
       style="fill:#211d1d;fill-opacity:1;fill-rule:nonzero;stroke:none;stroke-width:0.133333" />
    <path
       id="path8"
       d="m 454.72932,780.65597 h 60.448 c 0.60267,0 1.11867,0.18534 1.55333,0.556 0.44667,0.37067 0.67334,0.928 0.67334,1.66934 v 16.208 c 0,0.48133 -0.20934,1.02 -0.62667,1.62266 -0.40533,0.604 -0.93867,0.90533 -1.6,0.90533 h -18.132 v 51.93867 c 0,1.484 -0.812,2.22533 -2.43467,2.22533 h -19.63866 c -1.484,0 -2.22667,-0.74133 -2.22667,-2.22533 V 801.6173 h -18.016 c -1.484,0 -2.22666,-0.84133 -2.22666,-2.52799 v -16.208 c 0,-1.484 0.74266,-2.22534 2.22666,-2.22534"
       style="fill:#211d1d;fill-opacity:1;fill-rule:nonzero;stroke:none;stroke-width:0.133333" />
    <path
       id="path9"
       d="m 565.38665,824.50264 v -41.62133 c 0,-0.60267 0.18534,-1.11867 0.556,-1.55334 0.37067,-0.44666 0.92667,-0.672 1.66934,-0.672 h 19.524 c 0.956,0 1.59866,0.24267 1.924,0.71867 0.336,0.48133 0.51066,0.98533 0.51066,1.50667 v 43.03599 c 0,5.87734 -0.928,10.804 -2.78266,14.79334 -1.856,3.976 -4.39467,7.14133 -7.60534,9.50666 -3.2,2.364 -6.79466,4.07467 -10.78266,5.124 -3.976,1.032 -8.08667,1.55334 -12.33467,1.55334 -4.25467,0 -8.388,-0.52134 -12.40533,-1.55334 -4.02267,-1.04933 -7.62934,-2.76 -10.828,-5.124 -3.2,-2.36533 -5.728,-5.53066 -7.58267,-9.50666 -1.85467,-3.98934 -2.78267,-8.916 -2.78267,-14.79334 v -43.03599 c 0.12134,-1.40267 0.72534,-2.144 1.80934,-2.22534 h 19.94 c 0.54,0 1.096,0.208 1.66933,0.62534 0.568,0.40666 0.85867,0.94 0.85867,1.6 v 41.62133 c 0,2.28933 0.49866,4.116 1.50666,5.472 1.02,1.344 2.25467,2.30666 3.71067,2.87466 1.448,0.57467 2.816,0.85867 4.104,0.85867 1.344,0 2.74133,-0.348 4.196,-1.044 1.44933,-0.70667 2.66667,-1.75067 3.64133,-3.13067 0.98534,-1.39066 1.484,-3.06533 1.484,-5.03066"
       style="fill:#211d1d;fill-opacity:1;fill-rule:nonzero;stroke:none;stroke-width:0.133333" />
    <path
       id="path10"
       d="m 635.83998,805.76664 c 0,-1.48267 -0.544,-2.84 -1.62266,-4.08 -1.084,-1.252 -2.4,-1.87867 -3.94134,-1.87867 h -7.81466 v 11.94133 h 7.81466 c 1.54134,0 2.85734,-0.62533 3.94134,-1.87733 1.07866,-1.25333 1.62266,-2.62133 1.62266,-4.10533 z m -37.35333,47.78933 v -70.67466 c 0,-0.60267 0.18534,-1.11867 0.556,-1.55334 0.37067,-0.44666 0.928,-0.672 1.66933,-0.672 h 33.80667 c 4.64933,0 8.83467,1.124 12.544,3.36134 3.71067,2.22666 6.632,5.19466 8.76533,8.904 2.13334,3.71066 3.2,7.82533 3.2,12.33599 0,4.53334 -1.084,8.70667 -3.24666,12.52134 -2.168,3.80266 -5.032,6.788 -8.60267,8.94933 l 14.46933,26.828 c 0.196,0.684 0.0987,1.22267 -0.30133,1.62267 -0.40667,0.40533 -0.876,0.60266 -1.41467,0.60266 h -20.544 c -0.684,0 -1.33333,-0.21466 -1.948,-0.64933 -0.60266,-0.44533 -0.968,-0.97333 -1.08933,-1.576 l -10.736,-21.472 h -2.944 v 21.472 c 0,1.484 -0.812,2.22533 -2.43467,2.22533 h -19.524 c -1.48399,0 -2.22533,-0.74133 -2.22533,-2.22533"
       style="fill:#211d1d;fill-opacity:1;fill-rule:nonzero;stroke:none;stroke-width:0.133333" />
    <path
       id="path11"
       d="m 669.53865,780.65597 h 51.63733 c 0.60267,0 1.11867,0.18534 1.55334,0.556 0.44666,0.37067 0.672,0.928 0.672,1.66934 v 13.98266 c 0,0.48 -0.18534,1.02 -0.556,1.62267 -0.37067,0.60267 -0.928,0.904 -1.66934,0.904 h -30.584 v 10.31866 h 20.868 c 0.604,0 1.12,0.156 1.55467,0.464 0.44533,0.312 0.672,0.736 0.672,1.27467 v 13.65733 c 0,0.34134 -0.18533,0.736 -0.556,1.18267 -0.372,0.43467 -0.928,0.64933 -1.67067,0.64933 h -20.868 v 9.808 h 31.69734 c 0.60266,0 1.11866,0.18534 1.55333,0.556 0.44667,0.37067 0.672,0.928 0.672,1.66934 v 14.284 c 0,0.80533 -0.25467,1.432 -0.76533,1.87733 -0.50934,0.43467 -1.136,0.64933 -1.87734,0.64933 h -52.33333 c -1.484,0 -2.22667,-0.74133 -2.22667,-2.22533 v -70.67466 c 0,-0.60267 0.19734,-1.11867 0.604,-1.55334 0.4,-0.44666 0.93867,-0.672 1.62267,-0.672"
       style="fill:#211d1d;fill-opacity:1;fill-rule:nonzero;stroke:none;stroke-width:0.133333" />
    <path
       id="path12"
       d="m 781.19465,834.31064 h 3.64 c 2.904,0 5.54266,-0.71867 7.90666,-2.156 2.36534,-1.44934 4.24934,-3.40934 5.65867,-5.86667 1.42,-2.46933 2.13333,-5.19467 2.13333,-8.16267 0,-2.96666 -0.71333,-5.66266 -2.13333,-8.092 -1.40933,-2.44 -3.29333,-4.38133 -5.65867,-5.82 -2.364,-1.44933 -5.00266,-2.17866 -7.90666,-2.17866 h -3.64 z m -23.78934,19.24533 v -70.67466 c 0,-0.60267 0.196,-1.11867 0.60267,-1.55334 0.4,-0.44666 0.93867,-0.672 1.62267,-0.672 h 25.62133 c 5.33333,0 10.324,0.95067 14.97867,2.852 4.64933,1.88934 8.748,4.53867 12.28933,7.95334 3.55333,3.40266 6.31867,7.396 8.30133,11.98666 1.99467,4.592 2.99067,9.55333 2.99067,14.88667 0,5.32133 -0.996,10.26 -2.99067,14.816 -1.98266,4.56266 -4.748,8.53333 -8.30133,11.91866 -3.54133,3.37334 -7.64,6 -12.28933,7.884 -4.65467,1.88934 -9.64534,2.828 -14.97867,2.828 h -25.62133 c -1.484,0 -2.22534,-0.74133 -2.22534,-2.22533"
       style="fill:#211d1d;fill-opacity:1;fill-rule:nonzero;stroke:none;stroke-width:0.133333" />
    <path
       id="path13"
       d="m 862.26931,807.0893 -4.75333,19.12934 h 9.53066 z m 12.568,-24.20799 25.112,70.67466 c 0.46267,1.484 0.0227,2.22533 -1.32267,2.22533 h -19.43066 c -1.62267,0 -2.74667,-0.74133 -3.36134,-2.22533 l -2.71333,-8.71867 h -21.68 l -2.736,8.71867 c -0.60266,1.484 -1.716,2.22533 -3.33866,2.22533 h -19.33734 c -1.40933,0 -1.87866,-0.74133 -1.41466,-2.22533 l 25.11066,-70.67466 c 0.14,-0.52134 0.452,-1.02534 0.95067,-1.50667 0.51067,-0.476 1.032,-0.71867 1.57733,-0.71867 h 20.056 c 0.54,0 1.056,0.24267 1.55467,0.71867 0.50933,0.48133 0.83466,0.98533 0.97333,1.50667"
       style="fill:#211d1d;fill-opacity:1;fill-rule:nonzero;stroke:none;stroke-width:0.133333" />
    <path
       id="path14"
       d="m 922.29731,782.18664 11.64,26.224 11.45333,-26.224 c 0.464,-0.74267 0.77734,-1.16 0.952,-1.252 0.168,-0.10533 0.492,-0.19733 0.97334,-0.27867 h 22.37466 c 0.54,0 0.812,0.24267 0.812,0.71867 0,0.26667 -0.244,0.70667 -0.71866,1.32133 l -23.88267,44.12533 v 26.73467 c 0,1.484 -0.812,2.22533 -2.43467,2.22533 h -19.54666 c -1.484,0 -2.22534,-0.74133 -2.22534,-2.22533 v -26.92 l -23.79066,-43.94 c -0.40534,-0.53866 -0.60267,-0.98 -0.60267,-1.32133 0,-0.476 0.23733,-0.71867 0.71867,-0.71867 h 22.352 c 0.476,0.0813 0.8,0.17334 0.97466,0.27867 0.168,0.092 0.48667,0.50933 0.95067,1.252"
       style="fill:#211d1d;fill-opacity:1;fill-rule:nonzero;stroke:none;stroke-width:0.133333" />
    <path
       id="path15"
       d="m 295.98933,781.71464 v 17.95467 l -21.00134,11.84666 c 0.10134,0.424 0.168,0.86133 0.168,1.316 0,3.14667 -2.56133,5.70667 -5.708,5.70667 -3.148,0 -5.70933,-2.56 -5.70933,-5.70667 0,-3.148 2.56133,-5.708 5.70933,-5.708 1.44267,0 2.748,0.556 3.75334,1.44267 l 19.34133,-10.91067 v -15.94133 h -56.644 v 73.87866 h 12.86667 v -17.084 l 21.00266,-11.848 c -0.10133,-0.424 -0.168,-0.86 -0.168,-1.31466 0,-3.14667 2.56,-5.708 5.708,-5.708 3.148,0 5.708,2.56133 5.708,5.708 0,3.148 -2.56,5.70933 -5.708,5.70933 -1.444,0 -2.748,-0.55733 -3.75466,-1.444 l -19.34,10.91067 v 15.07066 h 57.564 v -73.87866 h -13.788"
       style="fill:#31b061;fill-opacity:1;fill-rule:nonzero;stroke:none;stroke-width:0.133333" />
    <path
       id="path26"
       d="m 482.70703,923.19922 c -0.39063,-0.40625 -0.96875,-0.8125 -1.6875,-1.17187 -0.75,-0.3125 -1.59375,-0.59375 -2.625,-0.8125 -1.01563,-0.23438 -2.17188,-0.3125 -3.375,-0.3125 -1.73438,0 -3.42188,0.3125 -4.98438,0.90625 -1.59375,0.57812 -2.98437,1.48437 -4.1875,2.70312 -1.1875,1.21875 -2.125,2.70313 -2.79687,4.46875 -0.70313,1.8125 -1.0625,3.89063 -1.0625,6.28125 0,2.39063 0.35937,4.46875 1.01562,6.23438 0.67188,1.76562 1.60938,3.25 2.8125,4.42187 1.15625,1.21875 2.53125,2.125 4.125,2.71875 1.60938,0.57813 3.34375,0.90625 5.20313,0.90625 1.82812,0 3.34375,-0.1875 4.54687,-0.59375 1.20313,-0.35937 2.14063,-0.76562 2.79688,-1.26562 0.71875,-0.5 1.07812,-1.07813 1.07812,-1.71875 0,-0.40625 -0.14062,-0.8125 -0.40625,-1.125 -0.26562,-0.3125 -0.53125,-0.5 -0.84375,-0.64063 -0.76562,0.59375 -1.73437,1.14063 -2.84375,1.54688 -1.15625,0.45312 -2.5,0.67187 -4.04687,0.67187 -1.46875,0 -2.76563,-0.21875 -3.96875,-0.71875 -1.20313,-0.45312 -2.17188,-1.125 -3.01563,-2.07812 -0.85937,-0.95313 -1.51562,-2.07813 -2.01562,-3.48438 -0.48438,-1.39062 -0.70313,-3.01562 -0.70313,-4.875 0,-1.85937 0.26563,-3.48437 0.75,-4.875 0.5,-1.40625 1.15625,-2.57812 2,-3.53125 0.84375,-0.9375 1.875,-1.625 3.03125,-2.125 1.15625,-0.48437 2.40625,-0.71875 3.78125,-0.71875 1.64063,0 3.03125,0.23438 4.04688,0.71875 1.03125,0.5 1.95312,1 2.71875,1.54688 0.3125,-0.14063 0.625,-0.35938 0.89062,-0.6875 0.21875,-0.3125 0.34375,-0.67188 0.34375,-1.07813 0,-0.40625 -0.17187,-0.85937 -0.57812,-1.3125 z m 28.42578,16.26563 V 922.9336 c 0,-1.125 -0.67188,-1.67188 -1.95313,-1.67188 -0.35937,0 -0.67187,0.0469 -0.98437,0.0937 -0.3125,0.0781 -0.57813,0.17187 -0.70313,0.21875 v 17.57812 c 0,1.21875 -0.1875,2.25 -0.53125,3.15625 -0.35937,0.90625 -0.85937,1.67188 -1.4375,2.26563 -0.60937,0.625 -1.32812,1.07812 -2.17187,1.39062 -0.84375,0.3125 -1.78125,0.45313 -2.76563,0.45313 -0.96875,0 -1.85937,-0.14063 -2.70312,-0.45313 -0.84375,-0.3125 -1.60938,-0.76562 -2.1875,-1.39062 -0.625,-0.59375 -1.10938,-1.35938 -1.46875,-2.26563 -0.34375,-0.90625 -0.53125,-1.9375 -0.53125,-3.15625 V 922.9336 c 0,-1.125 -0.625,-1.67188 -1.90625,-1.67188 -0.35938,0 -0.67188,0.0469 -0.98438,0.0937 -0.3125,0.0781 -0.57812,0.17187 -0.70312,0.21875 v 17.89062 c 0,1.53125 0.21875,2.9375 0.70312,4.15625 0.45313,1.21875 1.10938,2.29688 2,3.15625 0.89063,0.85938 2,1.54688 3.29688,2.03125 1.28125,0.5 2.79687,0.73438 4.48437,0.73438 1.70313,0 3.20313,-0.23438 4.5,-0.73438 1.29688,-0.48437 2.40625,-1.17187 3.34375,-2.03125 0.875,-0.85937 1.54688,-1.9375 2.03125,-3.15625 0.45313,-1.21875 0.67188,-2.625 0.67188,-4.15625 z m 11.96875,-0.90625 h 5.95312 l 6.5,9.21875 c 0.35938,0.5 0.71875,0.90625 1.01563,1.125 0.3125,0.23437 0.76562,0.35937 1.25,0.35937 0.40625,0 0.84375,-0.125 1.25,-0.45312 0.40625,-0.3125 0.625,-0.71875 0.75,-1.21875 -0.3125,-0.40625 -0.70313,-0.9375 -1.20313,-1.625 -0.53125,-0.67188 -1.10937,-1.48438 -1.76562,-2.34375 -0.67188,-0.85938 -1.39063,-1.76563 -2.14063,-2.71875 -0.75,-0.9375 -1.46875,-1.9375 -2.21875,-2.89063 2.125,-0.57812 3.73438,-1.625 4.79688,-3.01562 1.03125,-1.40625 1.5625,-3.17188 1.5625,-5.25 0,-2.79688 -0.89063,-4.96875 -2.71875,-6.5 -1.82813,-1.48438 -4.625,-2.26563 -8.35938,-2.26563 -1.20312,0 -2.40625,0.0469 -3.65625,0.1875 -1.28125,0.14063 -2.35937,0.3125 -3.20312,0.59375 -0.48438,0.125 -0.89063,0.35938 -1.10938,0.57813 -0.21875,0.28125 -0.35937,0.64062 -0.35937,1.125 v 24.03125 c 0,1.14062 0.67187,1.67187 1.96875,1.67187 0.34375,0 0.65625,-0.0312 0.96875,-0.125 0.3125,-0.0469 0.53125,-0.14062 0.71875,-0.1875 z m -0.0469,-3.07813 v -11.01562 c 0.625,-0.14063 1.32812,-0.21875 2.17187,-0.3125 0.8125,-0.0469 1.60938,-0.0937 2.40625,-0.0937 2.45313,0 4.3125,0.45312 5.60938,1.40625 1.29687,0.9375 1.95312,2.39062 1.95312,4.28125 0,1.90625 -0.625,3.34375 -1.85937,4.29687 -1.25,0.95313 -2.98438,1.4375 -5.17188,1.4375 z m 26.69141,13.375 V 922.9336 c 0,-1.125 -0.625,-1.67188 -1.92188,-1.67188 -0.34375,0 -0.65625,0.0469 -0.96875,0.0937 -0.3125,0.0781 -0.57812,0.17187 -0.71875,0.21875 v 25.92187 c 0,1.14063 0.67188,1.67188 1.95313,1.67188 0.35937,0 0.67187,-0.0312 0.98437,-0.125 0.3125,-0.0469 0.53125,-0.14063 0.67188,-0.1875 z m 25.26953,-24.25 c 0.4375,0 0.79687,-0.14062 1.01562,-0.45312 0.21875,-0.3125 0.35938,-0.71875 0.35938,-1.21875 0,-0.3125 -0.0469,-0.59375 -0.14063,-0.85938 -0.0781,-0.23437 -0.17187,-0.45312 -0.26562,-0.59375 h -19.26563 c -0.4375,0 -0.79687,0.14063 -1.01562,0.40625 -0.21875,0.32813 -0.35938,0.73438 -0.35938,1.21875 0,0.32813 0.0469,0.64063 0.14063,0.85938 0.0781,0.28125 0.17187,0.5 0.26562,0.64062 h 8.3125 v 22.89063 c 0,1.14062 0.67188,1.67187 1.95313,1.67187 0.3125,0 0.67187,-0.0312 0.98437,-0.125 0.3125,-0.0469 0.53125,-0.14062 0.67188,-0.1875 v -24.25 z m 10.53906,24.25 V 922.9336 c 0,-1.125 -0.625,-1.67188 -1.92187,-1.67188 -0.34375,0 -0.65625,0.0469 -0.96875,0.0937 -0.3125,0.0781 -0.57813,0.17187 -0.71875,0.21875 v 25.92187 c 0,1.14063 0.67187,1.67188 1.95312,1.67188 0.35938,0 0.67188,-0.0312 0.98438,-0.125 0.3125,-0.0469 0.53125,-0.14063 0.67187,-0.1875 z m 24.64453,-26.0625 c -1.875,-1.21875 -4.5,-1.8125 -7.82812,-1.8125 -1.34375,0 -2.59375,0.0469 -3.70312,0.14063 -1.10938,0.14062 -2.17188,0.3125 -3.20314,0.64062 -0.96874,0.26563 -1.46874,0.85938 -1.46874,1.70313 v 23.14062 c 0,1.03125 0.625,1.71875 1.875,2.07813 1.0625,0.3125 2.17188,0.48437 3.375,0.57812 1.15625,0.14063 2.35937,0.1875 3.60937,0.1875 3.60937,0 6.35937,-0.6875 8.31251,-1.98437 1.92186,-1.3125 2.89062,-3.34375 2.89062,-6.10938 0,-1.53125 -0.39062,-2.9375 -1.23438,-4.15625 -0.84375,-1.21875 -2.09375,-2.07812 -3.78124,-2.65625 1.42186,-0.59375 2.43749,-1.45312 3.06249,-2.57812 0.57813,-1.07813 0.89063,-2.26563 0.89063,-3.5625 0,-2.53125 -0.9375,-4.39063 -2.79688,-5.60938 z m -6.59375,13.375 c 2.23437,0 3.92188,0.45313 5.07813,1.35938 1.10938,0.9375 1.6875,2.15625 1.6875,3.75 0,1.75 -0.625,3.0625 -1.90626,3.875 -1.29686,0.85937 -3.15624,1.26562 -5.60937,1.26562 -0.93749,0 -1.875,-0.0469 -2.79687,-0.14062 -0.9375,-0.0781 -1.78125,-0.21875 -2.5,-0.35938 v -9.75 z m -6.04687,-11.75 c 0.67187,-0.125 1.375,-0.21875 2.14062,-0.3125 0.75,-0.0469 1.64062,-0.0937 2.67188,-0.0937 4.625,0 6.9375,1.5 6.9375,4.46875 0,1.45313 -0.5,2.57813 -1.42188,3.4375 -0.98437,0.85938 -2.40625,1.26563 -4.28125,1.26563 h -6.04687 z m 40.6211,23.21875 c 0.21874,0.59375 0.43749,1.04688 0.75,1.26563 0.31249,0.26562 0.71874,0.40625 1.29686,0.40625 0.39063,0 0.79688,-0.0937 1.10938,-0.26563 0.3125,-0.14062 0.625,-0.35937 0.84376,-0.64062 -0.57814,-1.84375 -1.25,-3.875 -2,-6.1875 -0.76563,-2.25 -1.56251,-4.5625 -2.40626,-6.90625 -0.84374,-2.34375 -1.64062,-4.65625 -2.45313,-6.90625 -0.84375,-2.21875 -1.59375,-4.20313 -2.31249,-5.96875 -0.12494,-0.40625 -0.48438,-0.71875 -1.01563,-0.90625 -0.57812,-0.17188 -1.15625,-0.26563 -1.73437,-0.26563 -0.48438,0 -0.98438,0.0469 -1.46875,0.17188 -0.48437,0.14062 -0.84376,0.23437 -1.06251,0.375 -0.71874,1.79687 -1.46874,3.82812 -2.31249,6.09375 -0.85937,2.29687 -1.70313,4.5625 -2.5,6.76562 -0.84376,2.26563 -1.59376,4.39063 -2.26563,6.375 -0.71874,1.98438 -1.29688,3.60938 -1.73437,4.875 -0.14063,0.32813 -0.21876,0.64063 -0.31251,0.90625 -0.0937,0.3125 -0.14062,0.59375 -0.14062,0.85938 0,0.59375 0.1875,1 0.57813,1.21875 0.35937,0.26562 0.76563,0.40625 1.25,0.40625 0.57812,0 1.06249,-0.0937 1.46875,-0.26563 0.14062,-0.40625 0.26562,-0.90625 0.48437,-1.5 0.23437,-0.57812 0.45312,-1.21875 0.67188,-1.89062 0.21875,-0.67188 0.45312,-1.35938 0.67187,-2.07813 0.21876,-0.67187 0.4375,-1.35937 0.67188,-1.9375 h 11.92188 z m -7.79688,-23.3125 c 0.23437,0.78125 0.54688,1.67188 0.93749,2.71875 0.35939,1.07813 0.76563,2.25 1.20313,3.51563 0.40626,1.26562 0.84375,2.57812 1.32812,3.9375 0.5,1.39062 0.93751,2.75 1.39063,4.10937 h -10.01563 c 0.40626,-1.17187 0.79688,-2.39062 1.25,-3.70312 0.43751,-1.3125 0.89063,-2.57813 1.32814,-3.84375 0.45312,-1.26563 0.89061,-2.48438 1.29686,-3.65625 0.39063,-1.125 0.79688,-2.17188 1.10938,-3.07813 z m 25.80469,1.14063 c 0.21875,0.3125 0.53124,0.53125 0.84375,0.67187 0.67186,-0.5 1.51562,-1 2.53125,-1.4375 1.03124,-0.45312 2.18749,-0.6875 3.51561,-0.6875 1.92188,0 3.39063,0.45313 4.31251,1.3125 0.93749,0.90625 1.42188,2.07813 1.42188,3.53125 0,0.625 -0.0781,1.25 -0.21876,1.84375 -0.17187,0.59375 -0.4375,1.21875 -0.79687,1.85938 -0.40625,0.625 -0.89063,1.29687 -1.51563,2.03125 -0.625,0.71875 -1.375,1.53125 -2.26562,2.39062 l -8,7.8125 c -0.71875,0.67188 -1.07812,1.48438 -1.07812,2.34375 0,0.78125 0.31249,1.40625 0.89061,1.8125 h 15.70313 c 0.9375,0 1.375,-0.5 1.375,-1.53125 0,-0.32812 -0.0312,-0.64062 -0.12493,-0.85937 -0.0937,-0.23438 -0.18751,-0.45313 -0.31251,-0.59375 h -13.21874 l 7.25,-6.8125 c 1.125,-1.04688 2.04688,-2 2.8125,-2.89063 0.75,-0.90625 1.375,-1.76562 1.85938,-2.625 0.5,-0.8125 0.81249,-1.625 1.03124,-2.4375 0.21876,-0.76562 0.3125,-1.57812 0.3125,-2.39062 0,-2.40625 -0.79688,-4.34375 -2.40625,-5.75 -1.64063,-1.39063 -3.875,-2.10938 -6.76563,-2.10938 -1.01562,0 -2,0.0781 -2.93749,0.26563 -0.92188,0.21875 -1.73437,0.5 -2.39062,0.8125 -0.67188,0.3125 -1.20312,0.67187 -1.60938,1.07812 -0.39062,0.40625 -0.625,0.8125 -0.625,1.21875 0,0.45313 0.14063,0.8125 0.40626,1.14063 z m 37.76952,18.10937 c -1.20312,1.9375 -2.9375,2.89063 -5.17187,2.89063 -2.17188,0 -3.85937,-0.95313 -5.06251,-2.89063 -1.20312,-1.9375 -1.82812,-4.70312 -1.82812,-8.35937 0,-1.9375 0.1875,-3.65625 0.57812,-5.0625 0.35938,-1.39063 0.84375,-2.5625 1.46875,-3.46875 0.625,-0.90625 1.34376,-1.57813 2.18751,-2.03125 0.84374,-0.40625 1.73437,-0.64063 2.65625,-0.64063 0.93749,0 1.875,0.1875 2.71875,0.59375 0.84374,0.40625 1.56249,1.07813 2.18749,1.98438 0.625,0.90625 1.10939,2.07812 1.5,3.48437 0.35939,1.39063 0.54688,3.10938 0.54688,5.14063 0,3.65625 -0.57812,6.42187 -1.78125,8.35937 z m -0.84375,5.0625 c 1.28125,-0.59375 2.43751,-1.45312 3.375,-2.67187 0.93751,-1.17188 1.64063,-2.65625 2.14063,-4.46875 0.48437,-1.76563 0.75,-3.89063 0.75,-6.28125 0,-2.57813 -0.31251,-4.73438 -0.89063,-6.54688 -0.57812,-1.8125 -1.375,-3.29687 -2.35937,-4.42187 -0.96875,-1.14063 -2.09375,-2 -3.375,-2.53125 -1.29688,-0.5 -2.57812,-0.76563 -3.96875,-0.76563 -1.375,0 -2.65625,0.26563 -3.90625,0.76563 -1.29688,0.5 -2.40626,1.34375 -3.375,2.48437 -0.98438,1.125 -1.78126,2.60938 -2.35938,4.42188 -0.57813,1.8125 -0.89062,4.01562 -0.89062,6.59375 0,2.39062 0.26562,4.51562 0.75,6.28125 0.48437,1.8125 1.25,3.29687 2.18749,4.46875 0.92188,1.21875 2.04688,2.07812 3.32813,2.67187 1.29687,0.57813 2.71875,0.90625 4.26563,0.90625 1.56249,0 3.03124,-0.32812 4.32812,-0.90625 z m 12.00391,-23.17187 c 0.21874,0.3125 0.53125,0.53125 0.84374,0.67187 0.67188,-0.5 1.51563,-1 2.53126,-1.4375 1.03125,-0.45312 2.1875,-0.6875 3.51562,-0.6875 1.92188,0 3.39063,0.45313 4.3125,1.3125 0.9375,0.90625 1.42188,2.07813 1.42188,3.53125 0,0.625 -0.0781,1.25 -0.21875,1.84375 -0.17188,0.59375 -0.43751,1.21875 -0.79688,1.85938 -0.40625,0.625 -0.89063,1.29687 -1.51563,2.03125 -0.625,0.71875 -1.375,1.53125 -2.26562,2.39062 l -8,7.8125 c -0.71875,0.67188 -1.07812,1.48438 -1.07812,2.34375 0,0.78125 0.3125,1.40625 0.89062,1.8125 h 15.70312 c 0.93751,0 1.375,-0.5 1.375,-1.53125 0,-0.32812 -0.0312,-0.64062 -0.12493,-0.85937 -0.0937,-0.23438 -0.18749,-0.45313 -0.31249,-0.59375 h -13.21875 l 7.25,-6.8125 c 1.125,-1.04688 2.04687,-2 2.81249,-2.89063 0.75,-0.90625 1.375,-1.76562 1.85938,-2.625 0.5,-0.8125 0.8125,-1.625 1.03125,-2.4375 0.21875,-0.76562 0.31249,-1.57812 0.31249,-2.39062 0,-2.40625 -0.79686,-4.34375 -2.40624,-5.75 -1.64062,-1.39063 -3.875,-2.10938 -6.76562,-2.10938 -1.01563,0 -2,0.0781 -2.93751,0.26563 -0.92187,0.21875 -1.73437,0.5 -2.39063,0.8125 -0.67186,0.3125 -1.20312,0.67187 -1.60937,1.07812 -0.39063,0.40625 -0.625,0.8125 -0.625,1.21875 0,0.45313 0.14063,0.8125 0.40625,1.14063 z m 39.23828,-3.98438 h -13.625 c -0.625,0 -1.10938,0.1875 -1.42187,0.54688 -0.31251,0.40625 -0.53125,0.90625 -0.57813,1.53125 l -0.75,8.625 c -0.0469,0.28125 -0.0469,0.54687 -0.0469,0.8125 -0.0469,0.32812 -0.0469,0.54687 -0.0469,0.73437 0,0.67188 0.26563,1.26563 0.76563,1.67188 0.48437,0.45312 1.10937,0.71875 1.90625,0.76562 0.75,-0.40625 1.56249,-0.8125 2.40624,-1.125 0.84376,-0.32812 1.81251,-0.5 2.84376,-0.5 1.85937,0 3.375,0.5 4.53124,1.53125 1.15625,1.04688 1.73437,2.4375 1.73437,4.29688 0,1.79687 -0.57812,3.29687 -1.68749,4.42187 -1.10937,1.125 -2.71875,1.71875 -4.75,1.71875 -1.70312,0 -3.125,-0.3125 -4.32812,-0.90625 -1.20313,-0.59375 -2.07813,-1.17187 -2.75,-1.76562 -0.31251,0.14062 -0.625,0.40625 -0.93751,0.73437 -0.31249,0.35938 -0.48437,0.76563 -0.48437,1.26563 0,0.40625 0.21875,0.84375 0.625,1.25 0.39063,0.45312 0.92188,0.85937 1.68749,1.23437 0.75,0.35938 1.64063,0.625 2.70314,0.84375 1.03125,0.23438 2.18749,0.375 3.48437,0.375 1.59375,0 3.01563,-0.23437 4.31249,-0.73437 1.23439,-0.45313 2.31251,-1.07813 3.15626,-1.89063 0.84374,-0.8125 1.51562,-1.76562 1.95313,-2.89062 0.45312,-1.125 0.67187,-2.34375 0.67187,-3.65625 0,-1.45313 -0.21875,-2.71875 -0.71875,-3.84375 -0.48437,-1.07813 -1.20312,-1.98438 -2.04688,-2.75 -0.84375,-0.73438 -1.85937,-1.26563 -2.96875,-1.67188 -1.15625,-0.40625 -2.40625,-0.59375 -3.75,-0.59375 -1.01562,0 -2,0.14063 -2.89062,0.35938 -0.89063,0.28125 -1.59375,0.54687 -2.07812,0.8125 l 0.70312,-8.125 h 11.39062 c 0.43751,0 0.79688,-0.14063 1.01563,-0.45313 0.23437,-0.26562 0.35937,-0.67187 0.35937,-1.17187 0,-0.3125 -0.0469,-0.59375 -0.12493,-0.85938 -0.0937,-0.23437 -0.18749,-0.45312 -0.26563,-0.59375 z m 0,0"
       style="fill:#5e6061;fill-opacity:1;fill-rule:nonzero;stroke:none;stroke-width:1.3437"
       aria-label="CURITIBA 2025" />
  </g>
</svg>
