<svg width="18" height="18" viewBox="0 0 18 18" fill="none" xmlns="http://www.w3.org/2000/svg">
  <g clip-path="url(#clip0_linkedin)">
    <path d="M16.2 0H1.8C0.81 0 0 0.81 0 1.8V16.2C0 17.19 0.81 18 1.8 18H16.2C17.19 18 18 17.19 18 16.2V1.8C18 0.81 17.19 0 16.2 0ZM5.4 15.3H2.7V6.75H5.4V15.3ZM4.05 5.58C3.15 5.58 2.43 4.86 2.43 3.96C2.43 3.06 3.15 2.34 4.05 2.34C4.95 2.34 5.67 3.06 5.67 3.96C5.67 4.86 4.95 5.58 4.05 5.58ZM15.3 15.3H12.6V11.16C12.6 10.17 12.6 8.91 11.25 8.91C9.9 8.91 9.63 10.02 9.63 11.07V15.3H6.93V6.75H9.54V7.92H9.57C9.96 7.2 10.86 6.48 12.15 6.48C14.85 6.48 15.3 8.19 15.3 10.44V15.3Z" fill="#0A66C2"/>
  </g>
  <defs>
    <clipPath id="clip0_linkedin">
      <rect width="18" height="18" fill="white"/>
    </clipPath>
  </defs>
</svg>