<svg xmlns="http://www.w3.org/2000/svg" xmlns:xlink="http://www.w3.org/1999/xlink" width="1366" zoomAndPan="magnify" viewBox="0 0 1024.5 576" height="768" preserveAspectRatio="xMidYMid meet" version="1.0"><defs><filter x="0%" y="0%" width="100%" height="100%" id="3acd764660"><feColorMatrix values="0 0 0 0 1 0 0 0 0 1 0 0 0 0 1 0 0 0 1 0" color-interpolation-filters="sRGB"/></filter><clipPath id="f7742b16e8"><path d="M 0 0.140625 L 1024 0.140625 L 1024 575.859375 L 0 575.859375 Z M 0 0.140625 " clip-rule="nonzero"/></clipPath><mask id="feeaeb2bb0"><g filter="url(#3acd764660)"><rect x="-102.45" width="1229.4" fill="#000000" y="-57.6" height="691.2" fill-opacity="0.46"/></g></mask><clipPath id="258c893034"><path d="M 0 0.140625 L 1024 0.140625 L 1024 575.859375 L 0 575.859375 Z M 0 0.140625 " clip-rule="nonzero"/></clipPath><clipPath id="661cf83413"><rect x="0" width="1024" y="0" height="576"/></clipPath><mask id="d2a87905aa"><g filter="url(#3acd764660)"><rect x="-102.45" width="1229.4" fill="#000000" y="-57.6" height="691.2" fill-opacity="0.46"/></g></mask><clipPath id="27ddb68878"><path d="M 0 0.140625 L 1024 0.140625 L 1024 575.859375 L 0 575.859375 Z M 0 0.140625 " clip-rule="nonzero"/></clipPath><clipPath id="8f046077c0"><rect x="0" width="1024" y="0" height="576"/></clipPath><mask id="428ba4639d"><g filter="url(#3acd764660)"><rect x="-102.45" width="1229.4" fill="#000000" y="-57.6" height="691.2" fill-opacity="0.46"/></g></mask><clipPath id="559ec4df18"><path d="M 0 0.140625 L 1024 0.140625 L 1024 575.859375 L 0 575.859375 Z M 0 0.140625 " clip-rule="nonzero"/></clipPath><clipPath id="6d57066c58"><rect x="0" width="1024" y="0" height="576"/></clipPath><mask id="385211f68d"><g filter="url(#3acd764660)"><rect x="-102.45" width="1229.4" fill="#000000" y="-57.6" height="691.2" fill-opacity="0.36"/></g></mask><clipPath id="7383228414"><path d="M 0.644531 0.441406 L 342 0.441406 L 342 108 L 0.644531 108 Z M 0.644531 0.441406 " clip-rule="nonzero"/></clipPath><clipPath id="db9e8e13c5"><path d="M 151 17 L 342 17 L 342 124 L 151 124 Z M 151 17 " clip-rule="nonzero"/></clipPath><clipPath id="d1d4de58db"><path d="M 99 34 L 342 34 L 342 142 L 99 142 Z M 99 34 " clip-rule="nonzero"/></clipPath><clipPath id="817735c868"><path d="M 239 51 L 342 51 L 342 159 L 239 159 Z M 239 51 " clip-rule="nonzero"/></clipPath><clipPath id="b884f254f5"><path d="M 67 68 L 342 68 L 342 175 L 67 175 Z M 67 68 " clip-rule="nonzero"/></clipPath><clipPath id="240c2af2f0"><path d="M 183 85 L 342 85 L 342 193 L 183 193 Z M 183 85 " clip-rule="nonzero"/></clipPath><clipPath id="09638672c0"><path d="M 239 102 L 342 102 L 342 208.089844 L 239 208.089844 Z M 239 102 " clip-rule="nonzero"/></clipPath><clipPath id="273d063ace"><rect x="0" width="342" y="0" height="209"/></clipPath><mask id="99ff83b6c8"><g filter="url(#3acd764660)"><rect x="-102.45" width="1229.4" fill="#000000" y="-57.6" height="691.2" fill-opacity="0.36"/></g></mask><clipPath id="8b6296718a"><path d="M 0 1.027344 L 244 1.027344 L 244 31 L 0 31 Z M 0 1.027344 " clip-rule="nonzero"/></clipPath><clipPath id="ee08215462"><path d="M 134 18 L 298.894531 18 L 298.894531 62.84375 L 134 62.84375 Z M 134 18 " clip-rule="nonzero"/></clipPath><clipPath id="c26446c1d9"><rect x="0" width="299" y="0" height="63"/></clipPath></defs><g clip-path="url(#f7742b16e8)"><path fill="#ffffff" d="M 0 0.140625 L 1024 0.140625 L 1024 575.859375 L 0 575.859375 Z M 0 0.140625 " fill-opacity="1" fill-rule="nonzero"/><path fill="#ffffff" d="M 0 0.140625 L 1024 0.140625 L 1024 575.859375 L 0 575.859375 Z M 0 0.140625 " fill-opacity="1" fill-rule="nonzero"/><g mask="url(#feeaeb2bb0)"><g transform="matrix(1, 0, 0, 1, 0, 0.000000000000055289)"><g clip-path="url(#661cf83413)"><g clip-path="url(#258c893034)"><path fill="#ffffff" d="M 0 0.140625 L 1023.25 0.140625 L 1023.25 575.859375 L 0 575.859375 Z M 0 0.140625 " fill-opacity="1" fill-rule="nonzero"/></g></g></g></g><g mask="url(#d2a87905aa)"><g transform="matrix(1, 0, 0, 1, 0, 0.000000000000055289)"><g clip-path="url(#8f046077c0)"><g clip-path="url(#27ddb68878)"><path fill="#ffffff" d="M 0 0.140625 L 1023.25 0.140625 L 1023.25 575.859375 L 0 575.859375 Z M 0 0.140625 " fill-opacity="1" fill-rule="nonzero"/></g></g></g></g><g mask="url(#428ba4639d)"><g transform="matrix(1, 0, 0, 1, 0, 0.000000000000055289)"><g clip-path="url(#6d57066c58)"><g clip-path="url(#559ec4df18)"><path fill="#ffffff" d="M 0 0.140625 L 1023.25 0.140625 L 1023.25 575.859375 L 0 575.859375 Z M 0 0.140625 " fill-opacity="1" fill-rule="nonzero"/></g></g></g></g></g><g mask="url(#385211f68d)"><g transform="matrix(1, 0, 0, 1, 682, 343)"><g clip-path="url(#273d063ace)"><g clip-path="url(#7383228414)"><path fill="#31b061" d="M 10.4375 104.902344 C 14.554688 104.902344 17.902344 101.550781 17.902344 97.433594 C 17.902344 93.316406 14.554688 89.964844 10.4375 89.964844 C 6.320312 89.964844 2.96875 93.316406 2.96875 97.433594 C 2.96875 101.550781 6.320312 104.902344 10.4375 104.902344 Z M 0.679688 97.433594 C 0.679688 92.050781 5.058594 87.675781 10.4375 87.675781 C 15.429688 87.675781 19.554688 91.449219 20.125 96.289062 L 301.546875 96.289062 L 408.125 0.441406 L 409.65625 2.140625 L 302.75 98.285156 L 302.425781 98.578125 L 20.125 98.578125 C 19.554688 103.417969 15.429688 107.191406 10.4375 107.191406 C 5.058594 107.191406 0.679688 102.816406 0.679688 97.433594 " fill-opacity="1" fill-rule="nonzero"/></g><g clip-path="url(#db9e8e13c5)"><path fill="#31b061" d="M 302.425781 115.625 L 168.800781 115.625 C 168.238281 119.835938 164.632812 123.089844 160.265625 123.089844 C 155.507812 123.089844 151.652344 119.234375 151.652344 114.476562 C 151.652344 109.722656 155.507812 105.863281 160.265625 105.863281 C 164.632812 105.863281 168.238281 109.117188 168.800781 113.332031 L 301.546875 113.332031 L 408.125 17.480469 L 409.65625 19.1875 L 302.75 115.328125 L 302.425781 115.625 " fill-opacity="1" fill-rule="nonzero"/></g><g clip-path="url(#d1d4de58db)"><path fill="#31b061" d="M 116.617188 131.523438 C 116.617188 127.40625 113.269531 124.054688 109.152344 124.054688 C 105.03125 124.054688 101.683594 127.40625 101.683594 131.523438 C 101.683594 135.640625 105.03125 138.988281 109.152344 138.988281 C 113.269531 138.988281 116.617188 135.640625 116.617188 131.523438 Z M 302.75 132.375 L 302.425781 132.667969 L 118.839844 132.667969 C 118.269531 137.507812 114.140625 141.28125 109.152344 141.28125 C 103.769531 141.28125 99.394531 136.902344 99.394531 131.523438 C 99.394531 126.140625 103.769531 121.765625 109.152344 121.765625 C 114.140625 121.765625 118.269531 125.535156 118.839844 130.375 L 301.546875 130.375 L 408.125 34.527344 L 409.65625 36.230469 L 302.75 132.375 " fill-opacity="1" fill-rule="nonzero"/></g><g clip-path="url(#817735c868)"><path fill="#31b061" d="M 256.582031 148.566406 C 256.582031 144.445312 253.234375 141.101562 249.117188 141.101562 C 244.996094 141.101562 241.648438 144.445312 241.648438 148.566406 C 241.648438 152.683594 244.996094 156.03125 249.117188 156.03125 C 253.234375 156.03125 256.582031 152.683594 256.582031 148.566406 Z M 302.75 149.417969 L 302.425781 149.710938 L 258.804688 149.710938 C 258.234375 154.554688 254.109375 158.324219 249.117188 158.324219 C 243.734375 158.324219 239.359375 153.945312 239.359375 148.566406 C 239.359375 143.1875 243.734375 138.8125 249.117188 138.8125 C 254.109375 138.8125 258.234375 142.578125 258.804688 147.421875 L 301.546875 147.421875 L 408.125 51.570312 L 409.65625 53.273438 L 302.75 149.417969 " fill-opacity="1" fill-rule="nonzero"/></g><g clip-path="url(#b884f254f5)"><path fill="#31b061" d="M 76.070312 157 C 80.433594 157 84.042969 160.25 84.601562 164.464844 L 301.546875 164.464844 L 408.125 68.617188 L 409.65625 70.320312 L 302.425781 166.753906 L 84.601562 166.753906 C 84.042969 170.972656 80.433594 174.222656 76.070312 174.222656 C 71.3125 174.222656 67.457031 170.363281 67.457031 165.609375 C 67.457031 160.855469 71.3125 157 76.070312 157 " fill-opacity="1" fill-rule="nonzero"/></g><g clip-path="url(#240c2af2f0)"><path fill="#31b061" d="M 193.347656 190.121094 C 197.464844 190.121094 200.8125 186.773438 200.8125 182.65625 C 200.8125 178.535156 197.464844 175.1875 193.347656 175.1875 C 189.230469 175.1875 185.878906 178.535156 185.878906 182.65625 C 185.878906 186.773438 189.230469 190.121094 193.347656 190.121094 Z M 193.347656 172.894531 C 198.339844 172.894531 202.464844 176.667969 203.035156 181.511719 L 301.546875 181.511719 L 408.125 85.660156 L 409.65625 87.363281 L 302.75 183.503906 L 302.425781 183.800781 L 203.035156 183.800781 C 202.464844 188.644531 198.339844 192.410156 193.347656 192.410156 C 187.96875 192.410156 183.589844 188.035156 183.589844 182.65625 C 183.589844 177.277344 187.96875 172.894531 193.347656 172.894531 " fill-opacity="1" fill-rule="nonzero"/></g><g clip-path="url(#09638672c0)"><path fill="#31b061" d="M 247.96875 191.085938 C 252.335938 191.085938 255.941406 194.339844 256.503906 198.554688 L 301.546875 198.554688 L 408.125 102.707031 L 409.65625 104.410156 L 302.75 200.550781 L 302.425781 200.84375 L 256.503906 200.84375 C 255.941406 205.058594 252.335938 208.308594 247.96875 208.308594 C 243.214844 208.308594 239.359375 204.453125 239.359375 199.699219 C 239.359375 194.941406 243.214844 191.085938 247.96875 191.085938 " fill-opacity="1" fill-rule="nonzero"/></g></g></g></g><g mask="url(#99ff83b6c8)"><g transform="matrix(1, 0, 0, 1, 0, 57)"><g clip-path="url(#c26446c1d9)"><g clip-path="url(#8b6296718a)"><path fill="#31b061" d="M 237.453125 12.300781 C 234.527344 12.300781 232.113281 10.121094 231.738281 7.300781 L 133.886719 7.300781 L 97.054688 25.121094 C 96.949219 25.167969 96.835938 25.195312 96.722656 25.195312 L -77.152344 25.195312 C -77.527344 28.019531 -79.941406 30.195312 -82.867188 30.195312 C -86.054688 30.195312 -88.636719 27.613281 -88.636719 24.429688 C -88.636719 21.242188 -86.054688 18.660156 -82.867188 18.660156 C -79.945312 18.660156 -77.53125 20.839844 -77.152344 23.660156 L 96.546875 23.660156 L 133.378906 5.839844 C 133.480469 5.789062 133.597656 5.765625 133.710938 5.765625 L 231.738281 5.765625 C 232.109375 2.941406 234.527344 0.765625 237.453125 0.765625 C 240.636719 0.765625 243.21875 3.347656 243.21875 6.53125 C 243.21875 9.714844 240.636719 12.300781 237.453125 12.300781 Z M 237.453125 12.300781 " fill-opacity="1" fill-rule="nonzero"/></g><g clip-path="url(#ee08215462)"><path fill="#31b061" d="M 288.753906 60.871094 C 286.71875 58.777344 286.597656 55.53125 288.359375 53.292969 L 261.050781 25.195312 L 145.53125 25.195312 C 145.160156 28.015625 142.742188 30.195312 139.816406 30.195312 C 136.632812 30.195312 134.050781 27.613281 134.050781 24.425781 C 134.050781 21.242188 136.632812 18.660156 139.816406 18.660156 C 142.742188 18.660156 145.15625 20.839844 145.53125 23.660156 L 261.371094 23.660156 C 261.578125 23.660156 261.777344 23.742188 261.921875 23.890625 L 289.460938 52.21875 C 291.742188 50.523438 294.988281 50.730469 297.023438 52.832031 C 299.246094 55.117188 299.195312 58.765625 296.910156 60.988281 C 294.625 63.207031 290.972656 63.15625 288.753906 60.871094 Z M 288.753906 60.871094 " fill-opacity="1" fill-rule="nonzero"/></g></g></g></g></svg>