<svg xmlns="http://www.w3.org/2000/svg" xmlns:xlink="http://www.w3.org/1999/xlink" width="1366" zoomAndPan="magnify" viewBox="0 0 1024.5 576" height="768" preserveAspectRatio="xMidYMid meet" version="1.0"><defs><filter x="0%" y="0%" width="100%" height="100%" id="748d7f37b5"><feColorMatrix values="0 0 0 0 1 0 0 0 0 1 0 0 0 0 1 0 0 0 1 0" color-interpolation-filters="sRGB"/></filter><clipPath id="0423552124"><path d="M 0 0.140625 L 1024 0.140625 L 1024 575.859375 L 0 575.859375 Z M 0 0.140625 " clip-rule="nonzero"/></clipPath><mask id="5d94c2781f"><g filter="url(#748d7f37b5)"><rect x="-102.45" width="1229.4" fill="#000000" y="-57.6" height="691.2" fill-opacity="0.46"/></g></mask><clipPath id="e966849974"><path d="M 0 0.140625 L 1024 0.140625 L 1024 575.859375 L 0 575.859375 Z M 0 0.140625 " clip-rule="nonzero"/></clipPath><clipPath id="48b5feca74"><rect x="0" width="1024" y="0" height="576"/></clipPath><mask id="ca647a108b"><g filter="url(#748d7f37b5)"><rect x="-102.45" width="1229.4" fill="#000000" y="-57.6" height="691.2" fill-opacity="0.46"/></g></mask><clipPath id="c8bc24e166"><path d="M 0 0.140625 L 1024 0.140625 L 1024 575.859375 L 0 575.859375 Z M 0 0.140625 " clip-rule="nonzero"/></clipPath><clipPath id="f32247b16a"><rect x="0" width="1024" y="0" height="576"/></clipPath><mask id="cb69f2ac3f"><g filter="url(#748d7f37b5)"><rect x="-102.45" width="1229.4" fill="#000000" y="-57.6" height="691.2" fill-opacity="0.46"/></g></mask><clipPath id="c051afe562"><path d="M 0 0.140625 L 1024 0.140625 L 1024 575.859375 L 0 575.859375 Z M 0 0.140625 " clip-rule="nonzero"/></clipPath><clipPath id="216b918a68"><rect x="0" width="1024" y="0" height="576"/></clipPath><mask id="3785e4c817"><g filter="url(#748d7f37b5)"><rect x="-102.45" width="1229.4" fill="#000000" y="-57.6" height="691.2" fill-opacity="0.36"/></g></mask><clipPath id="479f1e87e8"><path d="M 208 89 L 225.175781 89 L 225.175781 106 L 208 106 Z M 208 89 " clip-rule="nonzero"/></clipPath><clipPath id="9db610ceae"><path d="M 0 76 L 5 76 L 5 88 L 0 88 Z M 0 76 " clip-rule="nonzero"/></clipPath><clipPath id="116ecfb6e3"><path d="M 0 0.875 L 210 0.875 L 210 231.011719 L 0 231.011719 Z M 0 0.875 " clip-rule="nonzero"/></clipPath><clipPath id="9637e3b3eb"><rect x="0" width="226" y="0" height="232"/></clipPath><mask id="49a1142da1"><g filter="url(#748d7f37b5)"><rect x="-102.45" width="1229.4" fill="#000000" y="-57.6" height="691.2" fill-opacity="0.36"/></g></mask><clipPath id="27f041f551"><path d="M 0.640625 0.558594 L 372 0.558594 L 372 361.148438 L 0.640625 361.148438 Z M 0.640625 0.558594 " clip-rule="nonzero"/></clipPath><clipPath id="cf3e6382bc"><rect x="0" width="372" y="0" height="362"/></clipPath></defs><g clip-path="url(#0423552124)"><path fill="#ffffff" d="M 0 0.140625 L 1024 0.140625 L 1024 575.859375 L 0 575.859375 Z M 0 0.140625 " fill-opacity="1" fill-rule="nonzero"/><path fill="#ffffff" d="M 0 0.140625 L 1024 0.140625 L 1024 575.859375 L 0 575.859375 Z M 0 0.140625 " fill-opacity="1" fill-rule="nonzero"/><g mask="url(#5d94c2781f)"><g transform="matrix(1, 0, 0, 1, 0, 0.000000000000055289)"><g clip-path="url(#48b5feca74)"><g clip-path="url(#e966849974)"><path fill="#ffffff" d="M 0 0.140625 L 1023.25 0.140625 L 1023.25 575.859375 L 0 575.859375 Z M 0 0.140625 " fill-opacity="1" fill-rule="nonzero"/></g></g></g></g><g mask="url(#ca647a108b)"><g transform="matrix(1, 0, 0, 1, 0, 0.000000000000055289)"><g clip-path="url(#f32247b16a)"><g clip-path="url(#c8bc24e166)"><path fill="#ffffff" d="M 0 0.140625 L 1023.25 0.140625 L 1023.25 575.859375 L 0 575.859375 Z M 0 0.140625 " fill-opacity="1" fill-rule="nonzero"/></g></g></g></g><g mask="url(#cb69f2ac3f)"><g transform="matrix(1, 0, 0, 1, 0, 0.000000000000055289)"><g clip-path="url(#216b918a68)"><g clip-path="url(#c051afe562)"><path fill="#ffffff" d="M 0 0.140625 L 1023.25 0.140625 L 1023.25 575.859375 L 0 575.859375 Z M 0 0.140625 " fill-opacity="1" fill-rule="nonzero"/></g></g></g></g></g><g mask="url(#3785e4c817)"><g transform="matrix(1, 0, 0, 1, 0, 24)"><g clip-path="url(#9637e3b3eb)"><path fill="#31b061" d="M 205.566406 133.382812 L 141.449219 133.382812 L 141.449219 131.507812 L 205.566406 131.507812 L 205.566406 133.382812 " fill-opacity="1" fill-rule="nonzero"/><g clip-path="url(#479f1e87e8)"><path fill="#31b061" d="M 216.878906 102.460938 C 214.035156 102.460938 211.730469 100.15625 211.730469 97.308594 C 211.730469 94.464844 214.035156 92.15625 216.878906 92.15625 C 219.726562 92.15625 222.03125 94.464844 222.03125 97.308594 C 222.03125 100.15625 219.726562 102.460938 216.878906 102.460938 Z M 216.878906 89.136719 C 212.367188 89.136719 208.707031 92.796875 208.707031 97.308594 C 208.707031 101.824219 212.367188 105.480469 216.878906 105.480469 C 221.394531 105.480469 225.054688 101.824219 225.054688 97.308594 C 225.054688 92.796875 221.394531 89.136719 216.878906 89.136719 " fill-opacity="1" fill-rule="nonzero"/></g><path fill="#31b061" d="M 158.417969 157.722656 C 155.570312 157.722656 153.265625 155.414062 153.265625 152.570312 C 153.265625 149.722656 155.570312 147.417969 158.417969 147.417969 C 161.261719 147.417969 163.570312 149.722656 163.570312 152.570312 C 163.570312 155.414062 161.261719 157.722656 158.417969 157.722656 Z M 158.417969 144.394531 C 153.90625 144.394531 150.246094 148.054688 150.246094 152.570312 C 150.246094 157.082031 153.90625 160.738281 158.417969 160.738281 C 162.929688 160.738281 166.589844 157.082031 166.589844 152.570312 C 166.589844 148.054688 162.929688 144.394531 158.417969 144.394531 " fill-opacity="1" fill-rule="nonzero"/><path fill="#31b061" d="M 209.804688 126.808594 C 206.691406 126.808594 204.167969 129.332031 204.167969 132.445312 C 204.167969 135.554688 206.691406 138.082031 209.804688 138.082031 C 212.917969 138.082031 215.441406 135.554688 215.441406 132.445312 C 215.441406 129.332031 212.917969 126.808594 209.804688 126.808594 " fill-opacity="1" fill-rule="nonzero"/><path fill="#31b061" d="M 155.882812 72.777344 C 152.769531 72.777344 150.246094 75.300781 150.246094 78.414062 C 150.246094 81.523438 152.769531 84.050781 155.882812 84.050781 C 158.992188 84.050781 161.515625 81.523438 161.515625 78.414062 C 161.515625 75.300781 158.992188 72.777344 155.882812 72.777344 " fill-opacity="1" fill-rule="nonzero"/><path fill="#31b061" d="M 123.488281 123.375 C 121.523438 123.375 119.933594 121.785156 119.933594 119.824219 C 119.933594 117.859375 121.523438 116.269531 123.488281 116.269531 C 125.449219 116.269531 127.039062 117.859375 127.039062 119.824219 C 127.039062 121.785156 125.449219 123.375 123.488281 123.375 Z M 123.488281 114.1875 C 120.375 114.1875 117.851562 116.710938 117.851562 119.824219 C 117.851562 122.9375 120.375 125.457031 123.488281 125.457031 C 126.601562 125.457031 129.121094 122.9375 129.121094 119.824219 C 129.121094 116.710938 126.601562 114.1875 123.488281 114.1875 " fill-opacity="1" fill-rule="nonzero"/><g clip-path="url(#9db610ceae)"><path fill="#31b061" d="M -0.785156 85.519531 C -2.746094 85.519531 -4.335938 83.929688 -4.335938 81.964844 C -4.335938 80.003906 -2.746094 78.414062 -0.785156 78.414062 C 1.175781 78.414062 2.769531 80.003906 2.769531 81.964844 C 2.769531 83.929688 1.175781 85.519531 -0.785156 85.519531 Z M -0.785156 76.332031 C -3.898438 76.332031 -6.421875 78.851562 -6.421875 81.964844 C -6.421875 85.078125 -3.898438 87.601562 -0.785156 87.601562 C 2.328125 87.601562 4.851562 85.078125 4.851562 81.964844 C 4.851562 78.851562 2.328125 76.332031 -0.785156 76.332031 " fill-opacity="1" fill-rule="nonzero"/></g><g clip-path="url(#116ecfb6e3)"><path fill="#31b061" d="M 11.820312 178.601562 L -61.292969 178.601562 L -109.910156 227.164062 L -109.910156 231.140625 L -60.128906 181.414062 L 12.988281 181.414062 L 40.246094 154.152344 L 151.9375 154.152344 L 151.9375 151.339844 L 39.082031 151.339844 Z M -4.902344 83.589844 L -4.902344 80.777344 L -73.65625 80.777344 L -109.910156 44.519531 L -109.910156 48.5 L -74.820312 83.589844 Z M 90.246094 96.03125 L 70.230469 116.046875 L 34.628906 116.046875 L 17.855469 99.273438 L -109.910156 99.273438 L -109.910156 102.085938 L 16.6875 102.085938 L 33.464844 118.859375 L 71.394531 118.859375 L 91.410156 98.84375 L 209.804688 98.84375 L 209.804688 96.03125 Z M -61.097656 52.507812 L 12.015625 52.507812 L 39.273438 79.765625 L 151.9375 79.765625 L 151.9375 77.890625 L 40.050781 77.890625 L 12.792969 50.628906 L -60.324219 50.628906 L -109.910156 0.871094 L -109.910156 3.527344 L -61.375 52.230469 Z M 15.699219 142.238281 L 15.972656 142.511719 L 102.570312 142.511719 L 120.605469 124.476562 L 119.28125 123.152344 L 101.792969 140.636719 L 16.75 140.636719 L -4.238281 119.652344 L -4.515625 119.375 L -109.910156 119.375 L -109.910156 121.25 L -5.292969 121.25 Z M -15.71875 144.140625 L -15.71875 142.265625 L -83.371094 142.265625 L -109.910156 168.808594 L -109.910156 171.457031 L -82.59375 144.140625 L -15.71875 144.140625 " fill-opacity="1" fill-rule="nonzero"/></g></g></g></g><g mask="url(#49a1142da1)"><g transform="matrix(1, 0, 0, 1, 652, 196)"><g clip-path="url(#cf3e6382bc)"><g clip-path="url(#27f041f551)"><path fill="#31b061" d="M 252.488281 303.414062 C 253.523438 304.414062 255.085938 304.414062 256.125 303.414062 C 257.125 302.375 257.125 300.8125 256.125 299.773438 C 255.246094 298.925781 253.992188 298.792969 253 299.382812 L 219.210938 265.59375 L 78.253906 265.59375 L 62.066406 249.40625 L 28.632812 249.40625 C 28.34375 248.292969 27.34375 247.46875 26.144531 247.46875 C 24.734375 247.46875 23.574219 248.628906 23.574219 250.039062 C 23.574219 251.453125 24.734375 252.613281 26.144531 252.613281 C 27.34375 252.613281 28.351562 251.789062 28.632812 250.675781 L 61.535156 250.675781 L 77.722656 266.863281 L 218.679688 266.863281 L 252.09375 300.28125 C 251.503906 301.28125 251.636719 302.542969 252.488281 303.414062 M 285.59375 359.636719 C 287.574219 361.621094 290.820312 361.621094 292.8125 359.636719 C 294.796875 357.65625 294.796875 354.410156 292.8125 352.417969 C 291.140625 350.746094 288.566406 350.484375 286.613281 351.632812 L 224.054688 289.078125 L 151.117188 289.078125 L 133.164062 307.03125 L 50.21875 307.03125 C 49.648438 304.835938 47.644531 303.207031 45.28125 303.207031 C 42.472656 303.207031 40.171875 305.5 40.171875 308.3125 C 40.171875 311.121094 42.464844 313.421875 45.28125 313.421875 C 47.644531 313.421875 49.648438 311.792969 50.21875 309.59375 L 134.21875 309.59375 L 152.175781 291.640625 L 223 291.640625 L 284.808594 353.445312 C 283.65625 355.390625 283.917969 357.964844 285.59375 359.636719 Z M 215.6875 282.351562 C 217.097656 282.351562 218.257812 281.191406 218.257812 279.78125 C 218.257812 278.367188 217.097656 277.207031 215.6875 277.207031 C 214.488281 277.207031 213.480469 278.03125 213.199219 279.144531 L 119.117188 279.144531 L 106.171875 292.085938 L 5.683594 292.085938 C 5.402344 290.976562 4.390625 290.152344 3.195312 290.152344 C 1.78125 290.152344 0.625 291.3125 0.625 292.722656 C 0.625 294.136719 1.78125 295.296875 3.195312 295.296875 C 4.390625 295.296875 5.402344 294.472656 5.683594 293.359375 L 106.695312 293.359375 L 119.640625 280.417969 L 213.199219 280.417969 C 213.480469 281.519531 214.488281 282.351562 215.6875 282.351562 Z M 376.65625 338.511719 C 380.871094 338.511719 384.304688 335.070312 384.304688 330.863281 C 384.304688 326.652344 380.863281 323.210938 376.65625 323.210938 C 373.101562 323.210938 370.097656 325.660156 369.25 328.953125 L 298.808594 328.953125 L 283.28125 313.429688 L 283.28125 242.074219 L 257.003906 215.792969 L 162.722656 215.792969 L 149.574219 228.941406 L 116.9375 228.941406 C 116.085938 225.648438 113.082031 223.199219 109.53125 223.199219 C 105.320312 223.199219 101.878906 226.640625 101.878906 230.851562 C 101.878906 235.058594 105.320312 238.5 109.53125 238.5 C 113.082031 238.5 116.085938 236.050781 116.9375 232.757812 L 151.164062 232.757812 L 164.3125 219.609375 L 255.421875 219.609375 L 279.457031 243.644531 L 279.457031 315 L 297.226562 332.769531 L 369.257812 332.769531 C 370.097656 336.0625 373.101562 338.511719 376.65625 338.511719 Z M 376.65625 320.96875 C 378.066406 320.96875 379.226562 319.808594 379.226562 318.394531 C 379.226562 316.984375 378.066406 315.824219 376.65625 315.824219 C 375.457031 315.824219 374.449219 316.644531 374.167969 317.757812 L 313.351562 317.757812 L 302.4375 306.84375 L 302.4375 251.742188 L 245.144531 194.449219 L 162.058594 194.449219 L 140.972656 215.539062 L 89.058594 215.539062 C 88.777344 214.425781 87.765625 213.605469 86.570312 213.605469 C 85.15625 213.605469 83.996094 214.765625 83.996094 216.175781 C 83.996094 217.589844 85.15625 218.746094 86.570312 218.746094 C 87.765625 218.746094 88.777344 217.925781 89.058594 216.8125 L 141.496094 216.8125 L 162.585938 195.722656 L 244.601562 195.722656 L 301.144531 252.265625 L 301.144531 307.367188 L 312.816406 319.03125 L 374.167969 319.03125 C 374.449219 320.144531 375.457031 320.96875 376.65625 320.96875 Z M 376.65625 306.808594 C 378.066406 306.808594 379.226562 305.648438 379.226562 304.234375 C 379.226562 302.824219 378.066406 301.664062 376.65625 301.664062 C 375.457031 301.664062 374.449219 302.488281 374.167969 303.601562 L 327.5 303.601562 L 319.792969 295.894531 L 319.792969 270.644531 L 332.511719 257.925781 L 254.601562 180.011719 L 254.601562 149.019531 L 209.878906 104.296875 C 210.46875 103.304688 210.335938 102.042969 209.484375 101.171875 C 208.445312 100.171875 206.886719 100.171875 205.847656 101.171875 C 204.847656 102.210938 204.847656 103.773438 205.847656 104.8125 C 206.726562 105.660156 207.980469 105.792969 208.972656 105.203125 L 253.320312 149.550781 L 253.320312 180.542969 L 330.707031 257.933594 L 318.511719 270.128906 L 318.511719 296.4375 L 326.96875 304.890625 L 374.15625 304.890625 C 374.449219 305.984375 375.457031 306.808594 376.65625 306.808594 Z M 376.65625 290.359375 C 378.066406 290.359375 379.226562 289.199219 379.226562 287.785156 C 379.226562 286.375 378.066406 285.214844 376.65625 285.214844 C 375.457031 285.214844 374.449219 286.035156 374.167969 287.148438 L 362.925781 287.148438 L 347.203125 269.371094 L 347.203125 243.136719 L 282.449219 178.382812 L 282.449219 103.820312 L 306.605469 79.664062 L 306.605469 5.789062 C 307.71875 5.507812 308.542969 4.5 308.542969 3.300781 C 308.542969 1.890625 307.382812 0.730469 305.972656 0.730469 C 304.558594 0.730469 303.398438 1.890625 303.398438 3.300781 C 303.398438 4.5 304.222656 5.507812 305.335938 5.789062 L 305.335938 79.128906 L 281.179688 103.285156 L 281.179688 178.90625 L 345.933594 243.664062 L 345.933594 269.847656 L 362.355469 288.421875 L 374.167969 288.421875 C 374.449219 289.535156 375.457031 290.359375 376.65625 290.359375 Z M 374.839844 231.636719 C 375.878906 232.636719 377.441406 232.636719 378.480469 231.636719 C 379.480469 230.597656 379.480469 229.035156 378.480469 227.996094 C 377.597656 227.144531 376.347656 227.015625 375.355469 227.605469 L 318.832031 171.082031 L 318.832031 72.367188 C 319.945312 72.085938 320.765625 71.078125 320.765625 69.878906 C 320.765625 68.46875 319.605469 67.308594 318.195312 67.308594 C 316.78125 67.308594 315.621094 68.46875 315.621094 69.878906 C 315.621094 71.078125 316.445312 72.085938 317.558594 72.367188 L 317.558594 171.613281 L 374.457031 228.511719 C 373.859375 229.503906 373.988281 230.757812 374.839844 231.636719 Z M 374.839844 164.675781 C 375.878906 165.675781 377.441406 165.675781 378.480469 164.675781 C 379.480469 163.636719 379.480469 162.074219 378.480469 161.035156 C 377.597656 160.183594 376.347656 160.054688 375.355469 160.644531 L 344.847656 130.136719 L 344.847656 49.023438 C 345.960938 48.734375 346.785156 47.734375 346.785156 46.539062 C 346.785156 45.125 345.625 43.964844 344.210938 43.964844 C 342.800781 43.964844 341.640625 45.125 341.640625 46.539062 C 341.640625 47.734375 342.464844 48.746094 343.578125 49.023438 L 343.578125 130.667969 L 374.457031 161.550781 C 373.859375 162.542969 373.988281 163.792969 374.839844 164.675781 Z M 373.046875 256.765625 C 375.027344 258.746094 378.273438 258.746094 380.265625 256.765625 C 382.246094 254.78125 382.246094 251.535156 380.265625 249.542969 C 378.589844 247.871094 376.019531 247.609375 374.0625 248.757812 L 303.203125 177.898438 L 303.203125 119.203125 C 305.402344 118.632812 307.027344 116.632812 307.027344 114.265625 C 307.027344 111.460938 304.738281 109.160156 301.921875 109.160156 C 299.117188 109.160156 296.816406 111.449219 296.816406 114.265625 C 296.816406 116.632812 298.441406 118.632812 300.640625 119.203125 L 300.640625 178.953125 L 372.25 250.5625 C 371.109375 252.519531 371.371094 255.089844 373.046875 256.765625 Z M 376.65625 348.546875 C 378.066406 348.546875 379.226562 347.386719 379.226562 345.976562 C 379.226562 344.5625 378.066406 343.402344 376.65625 343.402344 C 375.457031 343.402344 374.449219 344.226562 374.167969 345.339844 L 288.316406 345.339844 L 264.773438 321.800781 L 264.773438 286.785156 L 221.257812 243.269531 L 127.15625 243.269531 C 126.878906 242.15625 125.867188 241.332031 124.671875 241.332031 C 123.257812 241.332031 122.097656 242.492188 122.097656 243.90625 C 122.097656 245.316406 123.257812 246.476562 124.671875 246.476562 C 125.867188 246.476562 126.878906 245.652344 127.15625 244.542969 L 220.726562 244.542969 L 263.492188 287.308594 L 263.492188 322.324219 L 287.78125 346.609375 L 374.15625 346.609375 C 374.449219 347.714844 375.457031 348.546875 376.65625 348.546875 Z M 376.65625 348.546875 " fill-opacity="1" fill-rule="nonzero"/></g></g></g></g></svg>