<svg xmlns="http://www.w3.org/2000/svg" xmlns:xlink="http://www.w3.org/1999/xlink" width="1080" zoomAndPan="magnify" viewBox="0 0 810 809.999993" height="1080" preserveAspectRatio="xMidYMid meet" version="1.0"><defs><g/><clipPath id="8cfeda6c8c"><path d="M 109 422 L 698 422 L 698 570.386719 L 109 570.386719 Z M 109 422 " clip-rule="nonzero"/></clipPath><clipPath id="5afa68a3e7"><path d="M 109 174.386719 L 698 174.386719 L 698 324 L 109 324 Z M 109 174.386719 " clip-rule="nonzero"/></clipPath><clipPath id="7cf1ca3957"><path d="M 9.570312 333 L 90 333 L 90 414 L 9.570312 414 Z M 9.570312 333 " clip-rule="nonzero"/></clipPath></defs><g clip-path="url(#8cfeda6c8c)"><path fill="#17ae65" d="M 115.414062 422.980469 C 118.433594 422.980469 120.882812 425.261719 120.882812 428.078125 L 120.882812 523.476562 C 120.882812 543.722656 138.554688 560.191406 160.269531 560.191406 L 647.527344 560.191406 C 669.25 560.191406 686.921875 543.722656 686.921875 523.476562 L 686.921875 428.078125 C 686.921875 425.261719 689.367188 422.980469 692.382812 422.980469 C 695.40625 422.980469 697.855469 425.261719 697.855469 428.078125 L 697.855469 523.476562 C 697.855469 549.34375 675.277344 570.386719 647.527344 570.386719 L 160.269531 570.386719 C 132.519531 570.386719 109.941406 549.34375 109.941406 523.476562 L 109.941406 428.078125 C 109.941406 425.261719 112.390625 422.980469 115.414062 422.980469 " fill-opacity="1" fill-rule="nonzero"/></g><g clip-path="url(#5afa68a3e7)"><path fill="#17ae65" d="M 692.382812 323.339844 C 689.367188 323.339844 686.921875 321.03125 686.921875 318.1875 L 686.921875 221.789062 C 686.921875 201.328125 669.25 184.683594 647.527344 184.683594 L 160.269531 184.683594 C 138.554688 184.683594 120.882812 201.328125 120.882812 221.789062 L 120.882812 318.1875 C 120.882812 321.03125 118.433594 323.339844 115.414062 323.339844 C 112.390625 323.339844 109.941406 321.03125 109.941406 318.1875 L 109.941406 221.789062 C 109.941406 195.648438 132.519531 174.386719 160.269531 174.386719 L 647.527344 174.386719 C 675.277344 174.386719 697.855469 195.648438 697.855469 221.789062 L 697.855469 318.1875 C 697.855469 321.03125 695.40625 323.339844 692.382812 323.339844 " fill-opacity="1" fill-rule="nonzero"/></g><path fill="#211d1d" d="M 103.957031 332.835938 L 158.613281 332.835938 C 159.273438 332.835938 159.839844 333.039062 160.308594 333.4375 C 160.769531 333.835938 161.007812 334.433594 161.007812 335.234375 L 161.007812 352.128906 C 161.007812 352.648438 160.789062 353.230469 160.359375 353.878906 C 159.921875 354.527344 159.34375 354.851562 158.613281 354.851562 L 128.128906 354.851562 L 128.128906 371.972656 L 149.132812 371.972656 C 149.792969 371.972656 150.363281 372.175781 150.828125 372.574219 C 151.308594 372.972656 151.554688 373.570312 151.554688 374.371094 L 151.554688 389.519531 C 151.554688 390.019531 151.328125 390.605469 150.878906 391.265625 C 150.441406 391.917969 149.863281 392.242188 149.132812 392.242188 L 128.128906 392.242188 L 128.128906 411.3125 C 128.128906 412.910156 127.253906 413.707031 125.507812 413.707031 L 103.632812 413.707031 C 103.113281 413.558594 102.707031 413.269531 102.410156 412.832031 C 102.121094 412.402344 101.984375 411.929688 101.984375 411.410156 L 101.984375 335.234375 C 101.984375 334.222656 102.183594 333.585938 102.582031 333.335938 C 102.980469 333.085938 103.4375 332.925781 103.957031 332.835938 " fill-opacity="1" fill-rule="nonzero"/><path fill="#211d1d" d="M 211.992188 380.035156 L 211.992188 335.234375 C 211.992188 334.585938 212.191406 334.027344 212.589844 333.5625 C 212.992188 333.082031 213.589844 332.835938 214.386719 332.835938 L 235.390625 332.835938 C 236.421875 332.835938 237.113281 333.097656 237.464844 333.609375 C 237.824219 334.128906 238.011719 334.671875 238.011719 335.234375 L 238.011719 381.558594 C 238.011719 387.886719 237.015625 393.1875 235.019531 397.484375 C 233.023438 401.761719 230.292969 405.171875 226.835938 407.71875 C 223.394531 410.261719 219.527344 412.101562 215.234375 413.234375 C 210.957031 414.34375 206.535156 414.90625 201.964844 414.90625 C 197.386719 414.90625 192.941406 414.34375 188.617188 413.234375 C 184.289062 412.101562 180.410156 410.261719 176.96875 407.71875 C 173.523438 405.171875 170.808594 401.761719 168.8125 397.484375 C 166.816406 393.1875 165.816406 387.886719 165.816406 381.558594 L 165.816406 335.234375 C 165.949219 333.722656 166.597656 332.925781 167.761719 332.835938 L 189.21875 332.835938 C 189.796875 332.835938 190.394531 333.0625 191.011719 333.511719 C 191.625 333.949219 191.933594 334.523438 191.933594 335.234375 L 191.933594 380.035156 C 191.933594 382.5 192.472656 384.46875 193.558594 385.925781 C 194.65625 387.375 195.984375 388.410156 197.546875 389.019531 C 199.109375 389.640625 200.578125 389.945312 201.964844 389.945312 C 203.410156 389.945312 204.914062 389.570312 206.480469 388.820312 C 208.039062 388.0625 209.347656 386.9375 210.394531 385.453125 C 211.457031 383.953125 211.992188 382.152344 211.992188 380.035156 " fill-opacity="1" fill-rule="nonzero"/><path fill="#211d1d" d="M 245.085938 332.835938 L 310.121094 332.835938 C 310.769531 332.835938 311.324219 333.039062 311.789062 333.4375 C 312.269531 333.835938 312.515625 334.433594 312.515625 335.234375 L 312.515625 352.679688 C 312.515625 353.199219 312.289062 353.777344 311.839844 354.425781 C 311.40625 355.078125 310.832031 355.402344 310.121094 355.402344 L 290.613281 355.402344 L 290.613281 411.3125 C 290.613281 412.910156 289.738281 413.707031 287.992188 413.707031 L 266.863281 413.707031 C 265.265625 413.707031 264.46875 412.910156 264.46875 411.3125 L 264.46875 355.402344 L 245.085938 355.402344 C 243.488281 355.402344 242.691406 354.496094 242.691406 352.679688 L 242.691406 335.234375 C 242.691406 333.636719 243.488281 332.835938 245.085938 332.835938 " fill-opacity="1" fill-rule="nonzero"/><path fill="#211d1d" d="M 364.140625 380.035156 L 364.140625 335.234375 C 364.140625 334.585938 364.339844 334.027344 364.738281 333.5625 C 365.136719 333.082031 365.734375 332.835938 366.53125 332.835938 L 387.539062 332.835938 C 388.566406 332.835938 389.257812 333.097656 389.609375 333.609375 C 389.96875 334.128906 390.15625 334.671875 390.15625 335.234375 L 390.15625 381.558594 C 390.15625 387.886719 389.160156 393.1875 387.164062 397.484375 C 385.167969 401.761719 382.4375 405.171875 378.980469 407.71875 C 375.539062 410.261719 371.671875 412.101562 367.378906 413.234375 C 363.101562 414.34375 358.679688 414.90625 354.109375 414.90625 C 349.53125 414.90625 345.085938 414.34375 340.761719 413.234375 C 336.4375 412.101562 332.554688 410.261719 329.113281 407.71875 C 325.671875 405.171875 322.953125 401.761719 320.957031 397.484375 C 318.960938 393.1875 317.960938 387.886719 317.960938 381.558594 L 317.960938 335.234375 C 318.09375 333.722656 318.742188 332.925781 319.910156 332.835938 L 341.363281 332.835938 C 341.941406 332.835938 342.539062 333.0625 343.15625 333.511719 C 343.769531 333.949219 344.082031 334.523438 344.082031 335.234375 L 344.082031 380.035156 C 344.082031 382.5 344.617188 384.46875 345.703125 385.925781 C 346.800781 387.375 348.128906 388.410156 349.695312 389.019531 C 351.253906 389.640625 352.722656 389.945312 354.109375 389.945312 C 355.554688 389.945312 357.058594 389.570312 358.625 388.820312 C 360.183594 388.0625 361.492188 386.9375 362.542969 385.453125 C 363.601562 383.953125 364.140625 382.152344 364.140625 380.035156 " fill-opacity="1" fill-rule="nonzero"/><path fill="#211d1d" d="M 441.484375 358.320312 C 441.484375 356.726562 440.898438 355.265625 439.738281 353.929688 C 438.570312 352.582031 437.15625 351.90625 435.496094 351.90625 L 427.089844 351.90625 L 427.089844 364.761719 L 435.496094 364.761719 C 437.15625 364.761719 438.570312 364.089844 439.738281 362.742188 C 440.898438 361.390625 441.484375 359.917969 441.484375 358.320312 Z M 401.296875 409.765625 L 401.296875 333.6875 C 401.296875 333.039062 401.496094 332.480469 401.894531 332.015625 C 402.292969 331.535156 402.894531 331.289062 403.691406 331.289062 L 440.0625 331.289062 C 445.0625 331.289062 449.566406 332.5 453.558594 334.910156 C 457.550781 337.304688 460.691406 340.5 462.988281 344.492188 C 465.285156 348.488281 466.429688 352.917969 466.429688 357.773438 C 466.429688 362.652344 465.265625 367.144531 462.9375 371.25 C 460.605469 375.34375 457.523438 378.558594 453.683594 380.886719 L 469.25 409.765625 C 469.460938 410.5 469.355469 411.082031 468.925781 411.511719 C 468.488281 411.945312 467.984375 412.160156 467.402344 412.160156 L 445.300781 412.160156 C 444.566406 412.160156 443.867188 411.929688 443.203125 411.460938 C 442.558594 410.980469 442.164062 410.414062 442.03125 409.765625 L 430.480469 386.652344 L 427.316406 386.652344 L 427.316406 409.765625 C 427.316406 411.363281 426.441406 412.160156 424.695312 412.160156 L 403.691406 412.160156 C 402.09375 412.160156 401.296875 411.363281 401.296875 409.765625 " fill-opacity="1" fill-rule="nonzero"/><path fill="#211d1d" d="M 476.191406 332.835938 L 531.75 332.835938 C 532.398438 332.835938 532.953125 333.039062 533.417969 333.4375 C 533.902344 333.835938 534.144531 334.433594 534.144531 335.234375 L 534.144531 350.285156 C 534.144531 350.800781 533.945312 351.382812 533.542969 352.03125 C 533.144531 352.679688 532.546875 353.003906 531.75 353.003906 L 498.84375 353.003906 L 498.84375 364.113281 L 521.296875 364.113281 C 521.945312 364.113281 522.5 364.28125 522.96875 364.613281 C 523.445312 364.949219 523.691406 365.402344 523.691406 365.984375 L 523.691406 380.683594 C 523.691406 381.050781 523.492188 381.476562 523.09375 381.957031 C 522.691406 382.425781 522.09375 382.65625 521.296875 382.65625 L 498.84375 382.65625 L 498.84375 393.214844 L 532.945312 393.214844 C 533.59375 393.214844 534.148438 393.414062 534.617188 393.8125 C 535.097656 394.210938 535.339844 394.8125 535.339844 395.609375 L 535.339844 410.988281 C 535.339844 411.851562 535.066406 412.527344 534.515625 413.007812 C 533.96875 413.476562 533.296875 413.707031 532.496094 413.707031 L 476.195312 413.707031 C 474.597656 413.707031 473.796875 412.910156 473.796875 411.3125 L 473.796875 335.234375 C 473.796875 334.585938 474.011719 334.027344 474.449219 333.5625 C 474.878906 333.082031 475.457031 332.835938 476.195312 332.835938 " fill-opacity="1" fill-rule="nonzero"/><path fill="#211d1d" d="M 596.320312 390.59375 L 600.238281 390.59375 C 603.363281 390.59375 606.199219 389.820312 608.742188 388.273438 C 611.289062 386.714844 613.316406 384.601562 614.832031 381.957031 C 616.359375 379.300781 617.128906 376.367188 617.128906 373.171875 C 617.128906 369.976562 616.359375 367.074219 614.832031 364.460938 C 613.316406 361.835938 611.289062 359.746094 608.742188 358.195312 C 606.199219 356.636719 603.363281 355.851562 600.238281 355.851562 L 596.320312 355.851562 Z M 570.726562 411.3125 L 570.726562 335.234375 C 570.726562 334.585938 570.9375 334.027344 571.375 333.5625 C 571.804688 333.082031 572.386719 332.835938 573.121094 332.835938 L 600.6875 332.835938 C 606.425781 332.835938 611.792969 333.859375 616.800781 335.90625 C 621.804688 337.941406 626.214844 340.792969 630.023438 344.46875 C 633.847656 348.132812 636.820312 352.429688 638.953125 357.371094 C 641.101562 362.316406 642.171875 367.65625 642.171875 373.398438 C 642.171875 379.125 641.101562 384.441406 638.953125 389.34375 C 636.820312 394.257812 633.847656 398.53125 630.023438 402.175781 C 626.214844 405.804688 621.804688 408.632812 616.800781 410.660156 C 611.792969 412.695312 606.425781 413.707031 600.6875 413.707031 L 573.121094 413.707031 C 571.523438 413.707031 570.726562 412.90625 570.726562 411.3125 " fill-opacity="1" fill-rule="nonzero"/><path fill="#211d1d" d="M 683.546875 361.292969 L 678.433594 381.882812 L 688.6875 381.882812 Z M 697.070312 335.234375 L 724.085938 411.3125 C 724.585938 412.910156 724.109375 413.707031 722.664062 413.707031 L 701.757812 413.707031 C 700.011719 413.707031 698.804688 412.910156 698.140625 411.3125 L 695.222656 401.925781 L 671.898438 401.925781 L 668.953125 411.3125 C 668.304688 412.910156 667.109375 413.707031 665.363281 413.707031 L 644.558594 413.707031 C 643.042969 413.707031 642.535156 412.910156 643.035156 411.3125 L 670.050781 335.234375 C 670.203125 334.671875 670.539062 334.128906 671.074219 333.609375 C 671.625 333.097656 672.183594 332.835938 672.773438 332.835938 L 694.347656 332.835938 C 694.929688 332.835938 695.484375 333.097656 696.023438 333.609375 C 696.570312 334.128906 696.917969 334.671875 697.070312 335.234375 " fill-opacity="1" fill-rule="nonzero"/><path fill="#211d1d" d="M 748.128906 334.484375 L 760.652344 362.714844 L 772.976562 334.484375 C 773.476562 333.6875 773.8125 333.238281 774 333.136719 C 774.179688 333.023438 774.527344 332.925781 775.046875 332.835938 L 799.121094 332.835938 C 799.699219 332.835938 799.992188 333.097656 799.992188 333.609375 C 799.992188 333.898438 799.730469 334.371094 799.21875 335.035156 L 773.523438 382.53125 L 773.523438 411.3125 C 773.523438 412.910156 772.652344 413.707031 770.90625 413.707031 L 749.875 413.707031 C 748.277344 413.707031 747.480469 412.910156 747.480469 411.3125 L 747.480469 382.332031 L 721.886719 335.035156 C 721.449219 334.453125 721.238281 333.980469 721.238281 333.609375 C 721.238281 333.097656 721.492188 332.835938 722.011719 332.835938 L 746.058594 332.835938 C 746.570312 332.925781 746.917969 333.023438 747.105469 333.136719 C 747.289062 333.238281 747.632812 333.6875 748.128906 334.484375 " fill-opacity="1" fill-rule="nonzero"/><g clip-path="url(#7cf1ca3957)"><path fill="#31b061" d="M 74.300781 333.976562 L 74.300781 353.304688 L 51.707031 366.058594 C 51.816406 366.511719 51.886719 366.984375 51.886719 367.472656 C 51.886719 370.859375 49.132812 373.617188 45.746094 373.617188 C 42.359375 373.617188 39.601562 370.859375 39.601562 367.472656 C 39.601562 364.085938 42.359375 361.328125 45.746094 361.328125 C 47.296875 361.328125 48.703125 361.925781 49.785156 362.882812 L 70.59375 351.136719 L 70.59375 333.976562 L 9.652344 333.976562 L 9.652344 413.503906 L 23.492188 413.503906 L 23.492188 395.113281 L 46.089844 382.359375 C 45.980469 381.902344 45.910156 381.433594 45.910156 380.945312 C 45.910156 377.558594 48.664062 374.800781 52.050781 374.800781 C 55.4375 374.800781 58.191406 377.558594 58.191406 380.945312 C 58.191406 384.332031 55.4375 387.089844 52.050781 387.089844 C 50.496094 387.089844 49.09375 386.492188 48.011719 385.535156 L 27.203125 397.28125 L 27.203125 413.503906 L 89.136719 413.503906 L 89.136719 333.976562 L 74.300781 333.976562 " fill-opacity="1" fill-rule="nonzero"/></g><path fill="#5e6061" d="M 275.1875 486.277344 C 274.765625 485.839844 274.144531 485.402344 273.371094 485.015625 C 272.5625 484.679688 271.65625 484.378906 270.546875 484.140625 C 269.453125 483.890625 268.210938 483.804688 266.914062 483.804688 C 265.050781 483.804688 263.234375 484.140625 261.550781 484.78125 C 259.835938 485.402344 258.339844 486.378906 257.046875 487.691406 C 255.769531 489.003906 254.761719 490.601562 254.039062 492.5 C 253.28125 494.453125 252.894531 496.691406 252.894531 499.261719 C 252.894531 501.835938 253.28125 504.074219 253.988281 505.972656 C 254.710938 507.875 255.71875 509.472656 257.011719 510.734375 C 258.257812 512.046875 259.738281 513.019531 261.453125 513.660156 C 263.183594 514.28125 265.050781 514.636719 267.050781 514.636719 C 269.015625 514.636719 270.648438 514.433594 271.941406 513.996094 C 273.234375 513.609375 274.246094 513.171875 274.949219 512.632812 C 275.722656 512.097656 276.109375 511.472656 276.109375 510.785156 C 276.109375 510.347656 275.960938 509.910156 275.671875 509.574219 C 275.386719 509.238281 275.101562 509.035156 274.765625 508.882812 C 273.941406 509.523438 272.898438 510.113281 271.707031 510.550781 C 270.460938 511.035156 269.015625 511.273438 267.351562 511.273438 C 265.773438 511.273438 264.375 511.035156 263.082031 510.5 C 261.789062 510.011719 260.746094 509.289062 259.835938 508.261719 C 258.914062 507.234375 258.207031 506.023438 257.667969 504.511719 C 257.148438 503.015625 256.914062 501.265625 256.914062 499.261719 C 256.914062 497.261719 257.199219 495.511719 257.71875 494.015625 C 258.257812 492.5 258.964844 491.238281 259.871094 490.214844 C 260.777344 489.203125 261.886719 488.464844 263.132812 487.925781 C 264.375 487.40625 265.722656 487.152344 267.199219 487.152344 C 268.964844 487.152344 270.460938 487.40625 271.554688 487.925781 C 272.664062 488.464844 273.65625 489.003906 274.480469 489.589844 C 274.816406 489.441406 275.152344 489.203125 275.4375 488.851562 C 275.671875 488.515625 275.808594 488.128906 275.808594 487.691406 C 275.808594 487.253906 275.621094 486.765625 275.1875 486.277344 Z M 305.769531 503.789062 L 305.769531 485.992188 C 305.769531 484.78125 305.046875 484.191406 303.667969 484.191406 C 303.28125 484.191406 302.945312 484.242188 302.609375 484.292969 C 302.273438 484.378906 301.984375 484.480469 301.851562 484.527344 L 301.851562 503.449219 C 301.851562 504.761719 301.648438 505.871094 301.28125 506.847656 C 300.894531 507.824219 300.355469 508.648438 299.734375 509.289062 C 299.078125 509.960938 298.304688 510.449219 297.398438 510.785156 C 296.488281 511.121094 295.480469 511.273438 294.421875 511.273438 C 293.378906 511.273438 292.421875 511.121094 291.511719 510.785156 C 290.605469 510.449219 289.78125 509.960938 289.160156 509.289062 C 288.488281 508.648438 287.964844 507.824219 287.578125 506.847656 C 287.210938 505.871094 287.007812 504.761719 287.007812 503.449219 L 287.007812 485.992188 C 287.007812 484.78125 286.335938 484.191406 284.957031 484.191406 C 284.570312 484.191406 284.234375 484.242188 283.898438 484.292969 C 283.5625 484.378906 283.277344 484.480469 283.140625 484.527344 L 283.140625 503.789062 C 283.140625 505.4375 283.375 506.949219 283.898438 508.261719 C 284.386719 509.574219 285.089844 510.734375 286.050781 511.660156 C 287.007812 512.582031 288.203125 513.324219 289.597656 513.84375 C 290.976562 514.382812 292.605469 514.636719 294.421875 514.636719 C 296.253906 514.636719 297.867188 514.382812 299.261719 513.84375 C 300.65625 513.324219 301.851562 512.582031 302.859375 511.660156 C 303.800781 510.734375 304.523438 509.574219 305.046875 508.261719 C 305.53125 506.949219 305.769531 505.4375 305.769531 503.789062 Z M 318.644531 502.8125 L 325.050781 502.8125 L 332.042969 512.734375 C 332.429688 513.273438 332.816406 513.710938 333.136719 513.945312 C 333.472656 514.199219 333.960938 514.332031 334.480469 514.332031 C 334.917969 514.332031 335.386719 514.199219 335.824219 513.84375 C 336.261719 513.507812 336.496094 513.070312 336.632812 512.535156 C 336.296875 512.097656 335.875 511.523438 335.339844 510.785156 C 334.765625 510.0625 334.144531 509.1875 333.4375 508.261719 C 332.714844 507.335938 331.941406 506.359375 331.136719 505.335938 C 330.328125 504.324219 329.554688 503.25 328.75 502.222656 C 331.035156 501.601562 332.765625 500.472656 333.910156 498.976562 C 335.019531 497.464844 335.589844 495.5625 335.589844 493.324219 C 335.589844 490.316406 334.632812 487.976562 332.664062 486.328125 C 330.699219 484.730469 327.6875 483.890625 323.671875 483.890625 C 322.378906 483.890625 321.082031 483.941406 319.738281 484.089844 C 318.359375 484.242188 317.199219 484.429688 316.292969 484.730469 C 315.769531 484.867188 315.332031 485.117188 315.097656 485.351562 C 314.863281 485.65625 314.710938 486.042969 314.710938 486.5625 L 314.710938 512.433594 C 314.710938 513.660156 315.433594 514.230469 316.828125 514.230469 C 317.199219 514.230469 317.535156 514.199219 317.871094 514.097656 C 318.207031 514.046875 318.445312 513.945312 318.644531 513.894531 Z M 318.59375 499.5 L 318.59375 487.640625 C 319.265625 487.488281 320.023438 487.40625 320.929688 487.304688 C 321.804688 487.253906 322.664062 487.203125 323.519531 487.203125 C 326.160156 487.203125 328.160156 487.691406 329.554688 488.71875 C 330.949219 489.726562 331.65625 491.289062 331.65625 493.324219 C 331.65625 495.378906 330.984375 496.925781 329.65625 497.949219 C 328.3125 498.976562 326.445312 499.5 324.09375 499.5 Z M 347.3125 513.894531 L 347.3125 485.992188 C 347.3125 484.78125 346.640625 484.191406 345.242188 484.191406 C 344.875 484.191406 344.539062 484.242188 344.203125 484.292969 C 343.863281 484.378906 343.578125 484.480469 343.429688 484.527344 L 343.429688 512.433594 C 343.429688 513.660156 344.152344 514.230469 345.53125 514.230469 C 345.917969 514.230469 346.253906 514.199219 346.589844 514.097656 C 346.925781 514.046875 347.160156 513.945312 347.3125 513.894531 Z M 374.5 487.792969 C 374.96875 487.792969 375.355469 487.640625 375.589844 487.304688 C 375.828125 486.96875 375.976562 486.53125 375.976562 485.992188 C 375.976562 485.65625 375.925781 485.351562 375.828125 485.066406 C 375.742188 484.816406 375.640625 484.578125 375.539062 484.429688 L 354.8125 484.429688 C 354.34375 484.429688 353.957031 484.578125 353.71875 484.867188 C 353.484375 485.21875 353.332031 485.65625 353.332031 486.175781 C 353.332031 486.53125 353.382812 486.867188 353.484375 487.101562 C 353.570312 487.40625 353.671875 487.640625 353.769531 487.792969 L 362.714844 487.792969 L 362.714844 512.433594 C 362.714844 513.660156 363.4375 514.230469 364.816406 514.230469 C 365.152344 514.230469 365.539062 514.199219 365.875 514.097656 C 366.210938 514.046875 366.445312 513.945312 366.597656 513.894531 L 366.597656 487.792969 Z M 385.835938 513.894531 L 385.835938 485.992188 C 385.835938 484.78125 385.164062 484.191406 383.769531 484.191406 C 383.398438 484.191406 383.0625 484.242188 382.726562 484.292969 C 382.390625 484.378906 382.105469 484.480469 381.953125 484.527344 L 381.953125 512.433594 C 381.953125 513.660156 382.675781 514.230469 384.054688 514.230469 C 384.441406 514.230469 384.777344 514.199219 385.113281 514.097656 C 385.449219 514.046875 385.6875 513.945312 385.835938 513.894531 Z M 412.351562 485.839844 C 410.335938 484.527344 407.511719 483.890625 403.929688 483.890625 C 402.484375 483.890625 401.140625 483.941406 399.945312 484.042969 C 398.75 484.191406 397.609375 484.378906 396.5 484.730469 C 395.457031 485.015625 394.917969 485.65625 394.917969 486.5625 L 394.917969 511.472656 C 394.917969 512.585938 395.589844 513.324219 396.9375 513.710938 C 398.078125 514.046875 399.273438 514.230469 400.566406 514.332031 C 401.8125 514.484375 403.105469 514.535156 404.449219 514.535156 C 408.332031 514.535156 411.292969 513.796875 413.394531 512.398438 C 415.460938 510.984375 416.503906 508.800781 416.503906 505.824219 C 416.503906 504.175781 416.082031 502.660156 415.175781 501.347656 C 414.269531 500.035156 412.921875 499.113281 411.109375 498.488281 C 412.636719 497.851562 413.730469 496.925781 414.402344 495.714844 C 415.023438 494.554688 415.359375 493.273438 415.359375 491.878906 C 415.359375 489.15625 414.351562 487.152344 412.351562 485.839844 Z M 405.257812 500.238281 C 407.660156 500.238281 409.476562 500.726562 410.722656 501.703125 C 411.914062 502.710938 412.535156 504.023438 412.535156 505.738281 C 412.535156 507.621094 411.863281 509.035156 410.484375 509.910156 C 409.089844 510.835938 407.089844 511.273438 404.449219 511.273438 C 403.441406 511.273438 402.433594 511.222656 401.441406 511.121094 C 400.433594 511.035156 399.523438 510.886719 398.75 510.734375 L 398.75 500.238281 Z M 398.75 487.589844 C 399.472656 487.457031 400.230469 487.355469 401.054688 487.253906 C 401.863281 487.203125 402.820312 487.152344 403.929688 487.152344 C 408.90625 487.152344 411.394531 488.769531 411.394531 491.964844 C 411.394531 493.527344 410.855469 494.738281 409.863281 495.664062 C 408.804688 496.589844 407.273438 497.027344 405.257812 497.027344 L 398.75 497.027344 Z M 442.453125 512.585938 C 442.691406 513.222656 442.925781 513.710938 443.261719 513.945312 C 443.597656 514.230469 444.035156 514.382812 444.65625 514.382812 C 445.078125 514.382812 445.515625 514.28125 445.851562 514.097656 C 446.1875 513.945312 446.523438 513.710938 446.757812 513.40625 C 446.136719 511.421875 445.414062 509.238281 444.605469 506.746094 C 443.78125 504.324219 442.925781 501.835938 442.019531 499.3125 C 441.109375 496.789062 440.253906 494.300781 439.378906 491.878906 C 438.472656 489.492188 437.664062 487.355469 436.890625 485.453125 C 436.757812 485.015625 436.371094 484.679688 435.796875 484.480469 C 435.175781 484.292969 434.554688 484.191406 433.933594 484.191406 C 433.410156 484.191406 432.871094 484.242188 432.351562 484.378906 C 431.832031 484.527344 431.445312 484.628906 431.207031 484.78125 C 430.433594 486.714844 429.628906 488.902344 428.722656 491.339844 C 427.796875 493.8125 426.886719 496.253906 426.03125 498.625 C 425.125 501.0625 424.316406 503.351562 423.59375 505.484375 C 422.820312 507.621094 422.199219 509.371094 421.726562 510.734375 C 421.578125 511.085938 421.492188 511.421875 421.390625 511.710938 C 421.289062 512.046875 421.238281 512.347656 421.238281 512.632812 C 421.238281 513.273438 421.441406 513.710938 421.863281 513.945312 C 422.25 514.230469 422.6875 514.382812 423.207031 514.382812 C 423.828125 514.382812 424.351562 514.28125 424.785156 514.097656 C 424.9375 513.660156 425.074219 513.121094 425.308594 512.484375 C 425.558594 511.859375 425.796875 511.171875 426.03125 510.449219 C 426.265625 509.726562 426.519531 508.984375 426.753906 508.210938 C 426.988281 507.488281 427.222656 506.746094 427.476562 506.125 L 440.304688 506.125 Z M 434.066406 487.488281 C 434.320312 488.332031 434.65625 489.289062 435.074219 490.414062 C 435.460938 491.578125 435.898438 492.835938 436.371094 494.199219 C 436.804688 495.5625 437.277344 496.976562 437.796875 498.4375 C 438.335938 499.9375 438.808594 501.398438 439.292969 502.863281 L 428.519531 502.863281 C 428.957031 501.601562 429.375 500.289062 429.863281 498.875 C 430.335938 497.464844 430.820312 496.101562 431.292969 494.738281 C 431.78125 493.375 432.25 492.0625 432.6875 490.800781 C 433.109375 489.589844 433.546875 488.464844 433.882812 487.488281 Z M 461.828125 488.71875 C 462.0625 489.054688 462.402344 489.289062 462.738281 489.441406 C 463.460938 488.902344 464.367188 488.363281 465.460938 487.894531 C 466.570312 487.40625 467.8125 487.152344 469.242188 487.152344 C 471.308594 487.152344 472.890625 487.640625 473.882812 488.566406 C 474.890625 489.542969 475.410156 490.800781 475.410156 492.367188 C 475.410156 493.039062 475.328125 493.710938 475.175781 494.351562 C 474.992188 494.992188 474.707031 495.664062 474.320312 496.351562 C 473.882812 497.027344 473.359375 497.75 472.6875 498.539062 C 472.015625 499.3125 471.210938 500.1875 470.25 501.113281 L 461.644531 509.523438 C 460.871094 510.246094 460.484375 511.121094 460.484375 512.046875 C 460.484375 512.886719 460.820312 513.558594 461.441406 513.996094 L 478.335938 513.996094 C 479.34375 513.996094 479.816406 513.457031 479.816406 512.347656 C 479.816406 511.996094 479.78125 511.660156 479.683594 511.421875 C 479.582031 511.171875 479.480469 510.9375 479.347656 510.785156 L 465.125 510.785156 L 472.925781 503.449219 C 474.132812 502.324219 475.125 501.296875 475.949219 500.339844 C 476.757812 499.363281 477.429688 498.4375 477.949219 497.515625 C 478.488281 496.640625 478.824219 495.765625 479.058594 494.890625 C 479.296875 494.066406 479.394531 493.191406 479.394531 492.316406 C 479.394531 489.726562 478.539062 487.640625 476.808594 486.125 C 475.042969 484.628906 472.636719 483.855469 469.527344 483.855469 C 468.4375 483.855469 467.375 483.941406 466.367188 484.140625 C 465.375 484.378906 464.503906 484.679688 463.796875 485.015625 C 463.074219 485.351562 462.5 485.738281 462.066406 486.175781 C 461.644531 486.613281 461.390625 487.050781 461.390625 487.488281 C 461.390625 487.976562 461.542969 488.363281 461.828125 488.71875 Z M 502.464844 508.210938 C 501.171875 510.296875 499.304688 511.324219 496.898438 511.324219 C 494.5625 511.324219 492.746094 510.296875 491.453125 508.210938 C 490.160156 506.125 489.488281 503.148438 489.488281 499.210938 C 489.488281 497.125 489.6875 495.277344 490.109375 493.761719 C 490.496094 492.265625 491.015625 491.003906 491.6875 490.027344 C 492.359375 489.054688 493.132812 488.332031 494.042969 487.84375 C 494.949219 487.40625 495.910156 487.152344 496.898438 487.152344 C 497.910156 487.152344 498.917969 487.355469 499.824219 487.792969 C 500.734375 488.230469 501.507812 488.953125 502.179688 489.929688 C 502.851562 490.902344 503.371094 492.164062 503.792969 493.679688 C 504.179688 495.175781 504.378906 497.027344 504.378906 499.210938 C 504.378906 503.148438 503.757812 506.125 502.464844 508.210938 Z M 501.558594 513.660156 C 502.933594 513.019531 504.179688 512.097656 505.1875 510.785156 C 506.195312 509.523438 506.953125 507.925781 507.492188 505.972656 C 508.011719 504.074219 508.296875 501.785156 508.296875 499.210938 C 508.296875 496.4375 507.960938 494.117188 507.339844 492.164062 C 506.71875 490.214844 505.859375 488.617188 504.800781 487.40625 C 503.757812 486.175781 502.546875 485.253906 501.171875 484.679688 C 499.773438 484.140625 498.394531 483.855469 496.898438 483.855469 C 495.421875 483.855469 494.042969 484.140625 492.699219 484.679688 C 491.300781 485.21875 490.109375 486.125 489.066406 487.355469 C 488.007812 488.566406 487.148438 490.164062 486.527344 492.113281 C 485.90625 494.066406 485.570312 496.4375 485.570312 499.210938 C 485.570312 501.785156 485.855469 504.074219 486.375 505.972656 C 486.898438 507.925781 487.722656 509.523438 488.730469 510.785156 C 489.722656 512.097656 490.933594 513.019531 492.3125 513.660156 C 493.707031 514.28125 495.234375 514.636719 496.898438 514.636719 C 498.582031 514.636719 500.160156 514.28125 501.558594 513.660156 Z M 514.472656 488.71875 C 514.707031 489.054688 515.042969 489.289062 515.378906 489.441406 C 516.101562 488.902344 517.007812 488.363281 518.101562 487.894531 C 519.210938 487.40625 520.457031 487.152344 521.886719 487.152344 C 523.953125 487.152344 525.53125 487.640625 526.523438 488.566406 C 527.53125 489.542969 528.054688 490.800781 528.054688 492.367188 C 528.054688 493.039062 527.96875 493.710938 527.820312 494.351562 C 527.632812 494.992188 527.347656 495.664062 526.960938 496.351562 C 526.523438 497.027344 526.003906 497.75 525.332031 498.539062 C 524.660156 499.3125 523.851562 500.1875 522.894531 501.113281 L 514.285156 509.523438 C 513.511719 510.246094 513.125 511.121094 513.125 512.046875 C 513.125 512.886719 513.460938 513.558594 514.085938 513.996094 L 530.980469 513.996094 C 531.988281 513.996094 532.457031 513.457031 532.457031 512.347656 C 532.457031 511.996094 532.425781 511.660156 532.324219 511.421875 C 532.222656 511.171875 532.121094 510.9375 531.988281 510.785156 L 517.765625 510.785156 L 525.566406 503.449219 C 526.777344 502.324219 527.769531 501.296875 528.59375 500.339844 C 529.398438 499.363281 530.070312 498.4375 530.59375 497.515625 C 531.128906 496.640625 531.46875 495.765625 531.703125 494.890625 C 531.9375 494.066406 532.039062 493.191406 532.039062 492.316406 C 532.039062 489.726562 531.179688 487.640625 529.449219 486.125 C 527.683594 484.628906 525.28125 483.855469 522.171875 483.855469 C 521.078125 483.855469 520.019531 483.941406 519.011719 484.140625 C 518.019531 484.378906 517.144531 484.679688 516.4375 485.015625 C 515.714844 485.351562 515.144531 485.738281 514.707031 486.175781 C 514.285156 486.613281 514.035156 487.050781 514.035156 487.488281 C 514.035156 487.976562 514.1875 488.363281 514.472656 488.71875 Z M 556.6875 484.429688 L 542.027344 484.429688 C 541.355469 484.429688 540.835938 484.628906 540.5 485.015625 C 540.160156 485.453125 539.925781 485.992188 539.875 486.664062 L 539.070312 495.949219 C 539.019531 496.253906 539.019531 496.539062 539.019531 496.824219 C 538.96875 497.175781 538.96875 497.414062 538.96875 497.613281 C 538.96875 498.335938 539.253906 498.976562 539.792969 499.414062 C 540.3125 499.902344 540.984375 500.1875 541.84375 500.238281 C 542.648438 499.800781 543.523438 499.363281 544.433594 499.027344 C 545.339844 498.675781 546.382812 498.488281 547.492188 498.488281 C 549.492188 498.488281 551.121094 499.027344 552.367188 500.136719 C 553.609375 501.265625 554.234375 502.761719 554.234375 504.761719 C 554.234375 506.695312 553.609375 508.3125 552.417969 509.523438 C 551.222656 510.734375 549.492188 511.371094 547.304688 511.371094 C 545.472656 511.371094 543.945312 511.035156 542.648438 510.398438 C 541.355469 509.757812 540.414062 509.136719 539.691406 508.496094 C 539.355469 508.648438 539.019531 508.933594 538.683594 509.289062 C 538.347656 509.675781 538.160156 510.113281 538.160156 510.648438 C 538.160156 511.085938 538.398438 511.558594 538.835938 511.996094 C 539.253906 512.484375 539.824219 512.921875 540.648438 513.324219 C 541.457031 513.710938 542.414062 513.996094 543.558594 514.230469 C 544.667969 514.484375 545.910156 514.636719 547.304688 514.636719 C 549.019531 514.636719 550.550781 514.382812 551.945312 513.84375 C 553.273438 513.359375 554.433594 512.683594 555.34375 511.808594 C 556.25 510.9375 556.972656 509.910156 557.441406 508.699219 C 557.929688 507.488281 558.167969 506.175781 558.167969 504.761719 C 558.167969 503.199219 557.929688 501.835938 557.394531 500.625 C 556.871094 499.464844 556.097656 498.488281 555.191406 497.664062 C 554.28125 496.875 553.191406 496.300781 551.996094 495.867188 C 550.753906 495.429688 549.40625 495.226562 547.960938 495.226562 C 546.871094 495.226562 545.808594 495.378906 544.851562 495.613281 C 543.894531 495.914062 543.136719 496.203125 542.617188 496.488281 L 543.371094 487.742188 L 555.628906 487.742188 C 556.097656 487.742188 556.484375 487.589844 556.71875 487.253906 C 556.972656 486.96875 557.105469 486.53125 557.105469 485.992188 C 557.105469 485.65625 557.058594 485.351562 556.972656 485.066406 C 556.871094 484.816406 556.769531 484.578125 556.6875 484.429688 Z M 556.6875 484.429688 " fill-opacity="1" fill-rule="nonzero"/><g fill="#1e1e1e" fill-opacity="1"><g transform="translate(394.666789, 632.735347)"><g><path d="M 19.40625 0.59375 C 16.175781 0.59375 13.320312 -0.101562 10.84375 -1.5 C 8.363281 -2.90625 6.421875 -4.851562 5.015625 -7.34375 C 3.617188 -9.84375 2.921875 -12.722656 2.921875 -15.984375 C 2.921875 -19.242188 3.617188 -22.117188 5.015625 -24.609375 C 6.421875 -27.109375 8.363281 -29.054688 10.84375 -30.453125 C 13.320312 -31.859375 16.175781 -32.5625 19.40625 -32.5625 C 22.664062 -32.5625 25.535156 -31.859375 28.015625 -30.453125 C 30.492188 -29.054688 32.425781 -27.109375 33.8125 -24.609375 C 35.195312 -22.117188 35.890625 -19.242188 35.890625 -15.984375 C 35.890625 -13.304688 35.414062 -10.878906 34.46875 -8.703125 C 33.53125 -6.523438 32.191406 -4.695312 30.453125 -3.21875 C 28.722656 -1.738281 26.6875 -0.679688 24.34375 -0.046875 L 24.75 0.953125 C 25.425781 2.535156 26.25 3.625 27.21875 4.21875 C 28.195312 4.8125 29.660156 5.109375 31.609375 5.109375 L 34.15625 5.109375 L 34.15625 7.765625 L 31.421875 7.765625 C 29.015625 7.765625 27.085938 7.304688 25.640625 6.390625 C 24.191406 5.484375 23.03125 4.007812 22.15625 1.96875 L 21.5625 0.5 C 21.226562 0.53125 20.875 0.550781 20.5 0.5625 C 20.132812 0.582031 19.769531 0.59375 19.40625 0.59375 Z M 5.75 -15.984375 C 5.75 -13.273438 6.328125 -10.875 7.484375 -8.78125 C 8.640625 -6.695312 10.242188 -5.078125 12.296875 -3.921875 C 14.359375 -2.765625 16.726562 -2.1875 19.40625 -2.1875 C 22.113281 -2.1875 24.492188 -2.765625 26.546875 -3.921875 C 28.609375 -5.078125 30.21875 -6.695312 31.375 -8.78125 C 32.53125 -10.875 33.109375 -13.273438 33.109375 -15.984375 C 33.109375 -18.722656 32.53125 -21.128906 31.375 -23.203125 C 30.21875 -25.273438 28.609375 -26.890625 26.546875 -28.046875 C 24.492188 -29.203125 22.113281 -29.78125 19.40625 -29.78125 C 16.726562 -29.78125 14.359375 -29.203125 12.296875 -28.046875 C 10.242188 -26.890625 8.640625 -25.273438 7.484375 -23.203125 C 6.328125 -21.128906 5.75 -18.722656 5.75 -15.984375 Z M 5.75 -15.984375 "/></g></g></g><g fill="#1e1e1e" fill-opacity="1"><g transform="translate(430.781448, 632.735347)"><g><path d="M 16.8125 0.546875 C 13.0625 0.546875 10.113281 -0.613281 7.96875 -2.9375 C 5.820312 -5.269531 4.75 -8.492188 4.75 -12.609375 L 4.75 -31.96875 L 7.484375 -31.96875 L 7.484375 -12.75 C 7.484375 -9.332031 8.296875 -6.707031 9.921875 -4.875 C 11.554688 -3.050781 13.851562 -2.140625 16.8125 -2.140625 C 19.789062 -2.140625 22.085938 -3.050781 23.703125 -4.875 C 25.316406 -6.707031 26.125 -9.332031 26.125 -12.75 L 26.125 -31.96875 L 28.859375 -31.96875 L 28.859375 -12.609375 C 28.859375 -8.492188 27.785156 -5.269531 25.640625 -2.9375 C 23.492188 -0.613281 20.550781 0.546875 16.8125 0.546875 Z M 16.8125 0.546875 "/></g></g></g><g fill="#1e1e1e" fill-opacity="1"><g transform="translate(461.691125, 632.735347)"><g><path d="M 5.15625 0 L 5.15625 -31.96875 L 7.953125 -31.96875 L 7.953125 0 Z M 5.15625 0 "/></g></g></g><g fill="#1e1e1e" fill-opacity="1"><g transform="translate(472.100449, 632.735347)"><g><path d="M 5.15625 0 L 5.15625 -31.96875 L 7.765625 -31.96875 L 27.21875 -4.796875 L 27.21875 -31.96875 L 29.953125 -31.96875 L 29.953125 0 L 27.359375 0 L 7.90625 -27.21875 L 7.90625 0 Z M 5.15625 0 "/></g></g></g><g fill="#1e1e1e" fill-opacity="1"><g transform="translate(504.516832, 632.735347)"><g><path d="M 12.75 0 L 12.75 -29.328125 L 1.734375 -29.328125 L 1.734375 -31.96875 L 26.53125 -31.96875 L 26.53125 -29.328125 L 15.484375 -29.328125 L 15.484375 0 Z M 12.75 0 "/></g></g></g><g fill="#1e1e1e" fill-opacity="1"><g transform="translate(530.08455, 632.735347)"><g><path d="M 1 0 L 14.25 -31.96875 L 16.90625 -31.96875 L 30.140625 0 L 27.21875 0 L 23.890625 -8.03125 L 7.265625 -8.03125 L 3.96875 0 Z M 8.359375 -10.59375 L 22.84375 -10.59375 L 15.578125 -28.171875 Z M 8.359375 -10.59375 "/></g></g></g><g fill="#1e1e1e" fill-opacity="1"><g transform="translate(558.574377, 632.735347)"><g><path d="M 3.65625 -10.375 L 3.65625 -12.828125 L 17.125 -12.828125 L 17.125 -10.375 Z M 3.65625 -10.375 "/></g></g></g><g fill="#1e1e1e" fill-opacity="1"><g transform="translate(576.654221, 632.735347)"><g><path d="M 5.15625 0 L 5.15625 -31.96875 L 22.796875 -31.96875 L 22.796875 -29.359375 L 7.953125 -29.359375 L 7.953125 -16.8125 L 21.609375 -16.8125 L 21.609375 -14.25 L 7.953125 -14.25 L 7.953125 0 Z M 5.15625 0 "/></g></g></g><g fill="#1e1e1e" fill-opacity="1"><g transform="translate(599.528141, 632.735347)"><g><path d="M 5.15625 0 L 5.15625 -31.96875 L 23.984375 -31.96875 L 23.984375 -29.359375 L 7.953125 -29.359375 L 7.953125 -17.578125 L 22.796875 -17.578125 L 22.796875 -15.03125 L 7.953125 -15.03125 L 7.953125 -2.609375 L 24.484375 -2.609375 L 24.484375 0 Z M 5.15625 0 "/></g></g></g><g fill="#1e1e1e" fill-opacity="1"><g transform="translate(624.639285, 632.735347)"><g><path d="M 5.15625 0 L 5.15625 -31.96875 L 7.953125 -31.96875 L 7.953125 0 Z M 5.15625 0 "/></g></g></g><g fill="#1e1e1e" fill-opacity="1"><g transform="translate(635.048614, 632.735347)"><g><path d="M 5.15625 0 L 5.15625 -31.96875 L 16.984375 -31.96875 C 19.148438 -31.96875 21.023438 -31.554688 22.609375 -30.734375 C 24.191406 -29.910156 25.421875 -28.757812 26.296875 -27.28125 C 27.179688 -25.8125 27.625 -24.054688 27.625 -22.015625 C 27.625 -19.367188 26.894531 -17.179688 25.4375 -15.453125 C 23.976562 -13.734375 21.984375 -12.660156 19.453125 -12.234375 L 28.140625 0 L 24.796875 0 L 16.21875 -12.015625 L 7.953125 -12.015625 L 7.953125 0 Z M 7.953125 -14.65625 L 16.71875 -14.65625 C 19.238281 -14.65625 21.210938 -15.3125 22.640625 -16.625 C 24.078125 -17.9375 24.796875 -19.734375 24.796875 -22.015625 C 24.796875 -24.265625 24.078125 -26.046875 22.640625 -27.359375 C 21.210938 -28.671875 19.238281 -29.328125 16.71875 -29.328125 L 7.953125 -29.328125 Z M 7.953125 -14.65625 "/></g></g></g><g fill="#1e1e1e" fill-opacity="1"><g transform="translate(663.584099, 632.735347)"><g><path d="M 1 0 L 14.25 -31.96875 L 16.90625 -31.96875 L 30.140625 0 L 27.21875 0 L 23.890625 -8.03125 L 7.265625 -8.03125 L 3.96875 0 Z M 8.359375 -10.59375 L 22.84375 -10.59375 L 15.578125 -28.171875 Z M 8.359375 -10.59375 "/></g></g></g><g fill="#1e1e1e" fill-opacity="1"><g transform="translate(111.901746, 631.18435)"><g><path d="M 14.1875 0.6875 C 10.238281 0.6875 7.109375 -0.15625 4.796875 -1.84375 C 2.484375 -3.53125 1.328125 -5.851562 1.328125 -8.8125 C 1.328125 -10.507812 1.726562 -12.015625 2.53125 -13.328125 C 3.34375 -14.640625 4.492188 -15.675781 5.984375 -16.4375 C 3.515625 -17.988281 2.28125 -20.328125 2.28125 -23.453125 C 2.28125 -25.335938 2.765625 -26.960938 3.734375 -28.328125 C 4.710938 -29.703125 6.097656 -30.765625 7.890625 -31.515625 C 9.691406 -32.265625 11.789062 -32.640625 14.1875 -32.640625 C 16.625 -32.640625 18.738281 -32.265625 20.53125 -31.515625 C 22.332031 -30.765625 23.71875 -29.703125 24.6875 -28.328125 C 25.664062 -26.960938 26.15625 -25.335938 26.15625 -23.453125 C 26.15625 -21.960938 25.828125 -20.609375 25.171875 -19.390625 C 24.515625 -18.179688 23.609375 -17.195312 22.453125 -16.4375 C 23.941406 -15.675781 25.085938 -14.628906 25.890625 -13.296875 C 26.703125 -11.972656 27.109375 -10.476562 27.109375 -8.8125 C 27.109375 -5.851562 25.953125 -3.53125 23.640625 -1.84375 C 21.328125 -0.15625 18.175781 0.6875 14.1875 0.6875 Z M 9.71875 -9.53125 C 9.71875 -8.375 10.117188 -7.460938 10.921875 -6.796875 C 11.734375 -6.128906 12.820312 -5.796875 14.1875 -5.796875 C 15.59375 -5.796875 16.695312 -6.128906 17.5 -6.796875 C 18.3125 -7.460938 18.71875 -8.375 18.71875 -9.53125 C 18.71875 -10.6875 18.3125 -11.59375 17.5 -12.25 C 16.695312 -12.90625 15.59375 -13.234375 14.1875 -13.234375 C 12.820312 -13.234375 11.734375 -12.90625 10.921875 -12.25 C 10.117188 -11.59375 9.71875 -10.6875 9.71875 -9.53125 Z M 9.953125 -22.78125 C 9.953125 -21.707031 10.332031 -20.851562 11.09375 -20.21875 C 11.851562 -19.582031 12.882812 -19.265625 14.1875 -19.265625 C 15.5 -19.265625 16.539062 -19.582031 17.3125 -20.21875 C 18.09375 -20.851562 18.484375 -21.707031 18.484375 -22.78125 C 18.484375 -23.84375 18.09375 -24.691406 17.3125 -25.328125 C 16.539062 -25.960938 15.5 -26.28125 14.1875 -26.28125 C 12.914062 -26.28125 11.890625 -25.960938 11.109375 -25.328125 C 10.335938 -24.691406 9.953125 -23.84375 9.953125 -22.78125 Z M 9.953125 -22.78125 "/></g></g></g><g fill="#1e1e1e" fill-opacity="1"><g transform="translate(137.628818, 631.18435)"><g/></g></g><g fill="#1e1e1e" fill-opacity="1"><g transform="translate(145.473655, 631.18435)"><g><path d="M 3.375 0 L 3.375 -31.953125 L 16.9375 -31.953125 C 20.375 -31.953125 23.375 -31.289062 25.9375 -29.96875 C 28.507812 -28.644531 30.507812 -26.78125 31.9375 -24.375 C 33.375 -21.96875 34.09375 -19.164062 34.09375 -15.96875 C 34.09375 -12.78125 33.375 -9.984375 31.9375 -7.578125 C 30.507812 -5.171875 28.507812 -3.304688 25.9375 -1.984375 C 23.375 -0.660156 20.375 0 16.9375 0 Z M 12.59375 -8.265625 L 16.65625 -8.265625 C 19.09375 -8.265625 21.039062 -8.960938 22.5 -10.359375 C 23.957031 -11.753906 24.6875 -13.625 24.6875 -15.96875 C 24.6875 -18.3125 23.957031 -20.179688 22.5 -21.578125 C 21.039062 -22.984375 19.09375 -23.6875 16.65625 -23.6875 L 12.59375 -23.6875 Z M 12.59375 -8.265625 "/></g></g></g><g fill="#1e1e1e" fill-opacity="1"><g transform="translate(178.408354, 631.18435)"><g><path d="M 3.375 0 L 3.375 -31.953125 L 25.28125 -31.953125 L 25.28125 -24.515625 L 12.5 -24.515625 L 12.5 -19.859375 L 24.046875 -19.859375 L 24.046875 -12.453125 L 12.5 -12.453125 L 12.5 -7.53125 L 25.78125 -7.53125 L 25.78125 0 Z M 3.375 0 "/></g></g></g><g fill="#1e1e1e" fill-opacity="1"><g transform="translate(203.542405, 631.18435)"><g/></g></g><g fill="#1e1e1e" fill-opacity="1"><g transform="translate(211.387247, 631.18435)"><g><path d="M 3.375 0 L 3.375 -31.953125 L 10.90625 -31.953125 L 21.640625 -16.75 L 32.40625 -31.953125 L 39.890625 -31.953125 L 39.890625 0 L 30.765625 0 L 30.765625 -16.15625 L 24.640625 -7.578125 L 18.671875 -7.578125 L 12.5 -16.203125 L 12.5 0 Z M 3.375 0 "/></g></g></g><g fill="#1e1e1e" fill-opacity="1"><g transform="translate(251.940161, 631.18435)"><g><path d="M 0.234375 0 L 12.640625 -31.953125 L 21.765625 -31.953125 L 34.1875 0 L 24.375 0 L 22.640625 -4.515625 L 11.734375 -4.515625 L 10 0 Z M 13.640625 -11.265625 L 20.765625 -11.265625 L 17.203125 -21.171875 Z M 13.640625 -11.265625 "/></g></g></g><g fill="#1e1e1e" fill-opacity="1"><g transform="translate(283.643188, 631.18435)"><g><path d="M 3.375 0 L 3.375 -31.953125 L 12.59375 -31.953125 L 12.59375 0 Z M 3.375 0 "/></g></g></g><g fill="#1e1e1e" fill-opacity="1"><g transform="translate(296.916567, 631.18435)"><g><path d="M 18.9375 0.6875 C 16.382812 0.6875 14.050781 0.285156 11.9375 -0.515625 C 9.820312 -1.328125 7.988281 -2.476562 6.4375 -3.96875 C 4.882812 -5.457031 3.679688 -7.222656 2.828125 -9.265625 C 1.972656 -11.304688 1.546875 -13.539062 1.546875 -15.96875 C 1.546875 -18.40625 1.972656 -20.640625 2.828125 -22.671875 C 3.679688 -24.710938 4.882812 -26.476562 6.4375 -27.96875 C 7.988281 -29.46875 9.820312 -30.617188 11.9375 -31.421875 C 14.050781 -32.234375 16.382812 -32.640625 18.9375 -32.640625 C 21.5 -32.640625 23.835938 -32.234375 25.953125 -31.421875 C 28.066406 -30.617188 29.898438 -29.46875 31.453125 -27.96875 C 33.003906 -26.476562 34.203125 -24.710938 35.046875 -22.671875 C 35.898438 -20.640625 36.328125 -18.40625 36.328125 -15.96875 C 36.328125 -13.539062 35.898438 -11.304688 35.046875 -9.265625 C 34.203125 -7.222656 33.003906 -5.457031 31.453125 -3.96875 C 29.898438 -2.476562 28.066406 -1.328125 25.953125 -0.515625 C 23.835938 0.285156 21.5 0.6875 18.9375 0.6875 Z M 10.90625 -15.96875 C 10.90625 -14.382812 11.25 -12.976562 11.9375 -11.75 C 12.625 -10.519531 13.570312 -9.5625 14.78125 -8.875 C 16 -8.1875 17.382812 -7.84375 18.9375 -7.84375 C 20.519531 -7.84375 21.910156 -8.1875 23.109375 -8.875 C 24.316406 -9.5625 25.257812 -10.519531 25.9375 -11.75 C 26.625 -12.976562 26.96875 -14.382812 26.96875 -15.96875 C 26.96875 -17.582031 26.625 -19 25.9375 -20.21875 C 25.257812 -21.4375 24.316406 -22.382812 23.109375 -23.0625 C 21.910156 -23.75 20.519531 -24.09375 18.9375 -24.09375 C 17.382812 -24.09375 16 -23.75 14.78125 -23.0625 C 13.570312 -22.382812 12.625 -21.4375 11.9375 -20.21875 C 11.25 -19 10.90625 -17.582031 10.90625 -15.96875 Z M 10.90625 -15.96875 "/></g></g></g></svg>