<?xml version="1.0" encoding="UTF-8" standalone="no"?>
<!-- Created with Inkscape (http://www.inkscape.org/) -->

<svg
   version="1.1"
   id="svg1"
   width="297.89999"
   height="103.73599"
   viewBox="0 0 297.89999 103.73599"
   sodipodi:docname="New Future Day Logo.eps"
   xmlns:inkscape="http://www.inkscape.org/namespaces/inkscape"
   xmlns:sodipodi="http://sodipodi.sourceforge.net/DTD/sodipodi-0.dtd"
   xmlns="http://www.w3.org/2000/svg"
   xmlns:svg="http://www.w3.org/2000/svg">
  <defs
     id="defs1" />
  <sodipodi:namedview
     id="namedview1"
     pagecolor="#ffffff"
     bordercolor="#000000"
     borderopacity="0.25"
     inkscape:showpageshadow="2"
     inkscape:pageopacity="0.0"
     inkscape:pagecheckerboard="0"
     inkscape:deskcolor="#d1d1d1" />
  <g
     id="g1"
     inkscape:groupmode="layer"
     inkscape:label="1"
     transform="translate(-455.34532,-472.89731)">
    <path
       id="path79"
       d="m 460.27599,566.97064 h 3.58933 l -1.80533,-5.37333 z m 4.388,2.396 h -5.18667 l -0.98666,2.95867 h -3.14534 l 5.344,-14.35733 h 2.74134 l 5.37466,14.35733 h -3.14666 l -0.99467,-2.95867"
       style="fill:#231f20;fill-opacity:1;fill-rule:nonzero;stroke:none;stroke-width:0.133333" />
    <path
       id="path80"
       d="m 486.35599,568.18398 1.932,-10.216 h 2.94933 l -3.18533,14.35733 h -2.97867 l -2.336,-9.604 -2.33733,9.604 h -2.97734 l -3.184,-14.35733 h 2.948 l 1.94134,10.196 2.36666,-10.196 h 2.50534 l 2.356,10.216"
       style="fill:#231f20;fill-opacity:1;fill-rule:nonzero;stroke:none;stroke-width:0.133333" />
    <path
       id="path81"
       d="m 504.09865,560.36398 h -4.39733 v 11.96133 h -2.95733 v -11.96133 h -4.33867 v -2.396 h 11.69333 v 2.396"
       style="fill:#231f20;fill-opacity:1;fill-rule:nonzero;stroke:none;stroke-width:0.133333" />
    <path
       id="path82"
       d="m 514.67865,557.96798 3.688,10.41333 3.668,-10.41333 h 3.88534 v 14.35733 h -2.968 v -3.924 l 0.296,-6.77467 -3.87467,10.69867 h -2.032 l -3.86533,-10.68933 0.296,6.76533 v 3.924 h -2.95734 v -14.35733 h 3.864"
       style="fill:#231f20;fill-opacity:1;fill-rule:nonzero;stroke:none;stroke-width:0.133333" />
    <path
       id="path83"
       d="m 531.34532,572.32531 h -2.86 v -10.66933 h 2.86 z m -3.02667,-13.43067 c 0,-0.42666 0.14267,-0.77866 0.428,-1.05333 0.28667,-0.27733 0.676,-0.416 1.16934,-0.416 0.48533,0 0.87333,0.13867 1.16266,0.416 0.28934,0.27467 0.43467,0.62667 0.43467,1.05333 0,0.43334 -0.14667,0.78934 -0.43867,1.06534 -0.29333,0.276 -0.68,0.41466 -1.15866,0.41466 -0.48,0 -0.86667,-0.13866 -1.15867,-0.41466 -0.29333,-0.276 -0.43867,-0.632 -0.43867,-1.06534"
       style="fill:#231f20;fill-opacity:1;fill-rule:nonzero;stroke:none;stroke-width:0.133333" />
    <path
       id="path84"
       d="m 538.00532,570.22398 c 0.52667,0 0.95333,-0.144 1.28267,-0.43334 0.328,-0.28933 0.49866,-0.67333 0.512,-1.15333 h 2.672 c -0.007,0.72267 -0.204,1.38533 -0.592,1.98667 -0.38667,0.60133 -0.91734,1.068 -1.592,1.4 -0.67334,0.332 -1.41734,0.49733 -2.23334,0.49733 -1.524,0 -2.728,-0.484 -3.608,-1.45333 -0.88133,-0.96934 -1.32133,-2.30934 -1.32133,-4.01867 v -0.18667 c 0,-1.64266 0.436,-2.956 1.31067,-3.93466 0.87466,-0.98 2.07466,-1.46934 3.6,-1.46934 1.33333,0 2.404,0.38 3.20933,1.13867 0.804,0.76 1.21333,1.76933 1.22667,3.03333 h -2.672 c -0.0133,-0.556 -0.184,-1.00666 -0.512,-1.35466 -0.32934,-0.34534 -0.76267,-0.52 -1.30267,-0.52 -0.66267,0 -1.16533,0.24266 -1.50267,0.72533 -0.33866,0.484 -0.508,1.27067 -0.508,2.356 v 0.296 c 0,1.1 0.168,1.89067 0.50267,2.37067 0.33467,0.48133 0.84533,0.72 1.528,0.72"
       style="fill:#231f20;fill-opacity:1;fill-rule:nonzero;stroke:none;stroke-width:0.133333" />
    <path
       id="path85"
       d="m 550.13599,564.32798 c -0.38667,-0.052 -0.72934,-0.0787 -1.02534,-0.0787 -1.07733,0 -1.784,0.36533 -2.12,1.09467 v 6.98133 h -2.84933 v -10.66933 h 2.692 l 0.0787,1.272 c 0.572,-0.98 1.364,-1.46934 2.37733,-1.46934 0.31467,0 0.61067,0.0427 0.88667,0.128 l -0.04,2.74134"
       style="fill:#231f20;fill-opacity:1;fill-rule:nonzero;stroke:none;stroke-width:0.133333" />
    <path
       id="path86"
       d="m 553.89332,567.09464 c 0,1.01334 0.19067,1.78934 0.572,2.32534 0.38133,0.536 0.92667,0.804 1.636,0.804 0.69067,0 1.22933,-0.264 1.61733,-0.79467 0.388,-0.52933 0.58267,-1.37733 0.58267,-2.54267 0,-0.99466 -0.19467,-1.764 -0.58267,-2.31066 -0.388,-0.54667 -0.93333,-0.82 -1.63733,-0.82 -0.696,0 -1.23467,0.272 -1.616,0.81466 -0.38133,0.544 -0.572,1.38534 -0.572,2.524 z m -2.85067,-0.20266 c 0,-1.05867 0.204,-2.00134 0.612,-2.82934 0.408,-0.82933 0.99467,-1.46933 1.76,-1.92266 0.76534,-0.45467 1.65467,-0.68134 2.66667,-0.68134 1.44,0 2.61467,0.44 3.52533,1.32134 0.91067,0.88133 1.41867,2.07733 1.524,3.58933 l 0.0187,0.72933 c 0,1.63734 -0.456,2.94934 -1.36933,3.94 -0.91467,0.98934 -2.14,1.48267 -3.67867,1.48267 -1.53733,0 -2.76533,-0.492 -3.68267,-1.47867 -0.916,-0.98533 -1.376,-2.32666 -1.376,-4.02266 v -0.128"
       style="fill:#231f20;fill-opacity:1;fill-rule:nonzero;stroke:none;stroke-width:0.133333" />
    <path
       id="path87"
       d="m 567.42265,563.75598 c -0.56533,0 -1.02266,0.192 -1.37466,0.57466 -0.352,0.38267 -0.57734,0.932 -0.676,1.644 h 3.964 v -0.228 c -0.0133,-0.63333 -0.184,-1.124 -0.51334,-1.47066 -0.328,-0.34667 -0.79466,-0.52 -1.4,-0.52 z m 0.32667,8.76533 c -1.56533,0 -2.83867,-0.47867 -3.82133,-1.43867 -0.98267,-0.96 -1.47467,-2.23866 -1.47467,-3.836 v -0.276 c 0,-1.072 0.208,-2.02933 0.62133,-2.87466 0.41467,-0.844 1.00134,-1.49467 1.76,-1.952 0.76,-0.456 1.62534,-0.68534 2.59867,-0.68534 1.45867,0 2.608,0.46 3.44533,1.38 0.83867,0.92134 1.25734,2.22534 1.25734,3.91467 v 1.164 h -6.79334 c 0.092,0.696 0.36934,1.256 0.83334,1.676 0.46266,0.42133 1.04933,0.63067 1.76,0.63067 1.09733,0 1.956,-0.39734 2.57333,-1.19334 l 1.4,1.568 c -0.42667,0.60534 -1.00533,1.07734 -1.73467,1.41467 -0.72933,0.33867 -1.53866,0.508 -2.42533,0.508"
       style="fill:#231f20;fill-opacity:1;fill-rule:nonzero;stroke:none;stroke-width:0.133333" />
    <path
       id="path88"
       d="m 576.80932,572.32531 h -2.86 v -15.14533 h 2.86 v 15.14533"
       style="fill:#231f20;fill-opacity:1;fill-rule:nonzero;stroke:none;stroke-width:0.133333" />
    <path
       id="path89"
       d="m 583.63599,563.75598 c -0.56534,0 -1.024,0.192 -1.37467,0.57466 -0.352,0.38267 -0.57733,0.932 -0.676,1.644 h 3.964 v -0.228 c -0.0133,-0.63333 -0.184,-1.124 -0.51333,-1.47066 -0.328,-0.34667 -0.79467,-0.52 -1.4,-0.52 z m 0.32533,8.76533 c -1.564,0 -2.83733,-0.47867 -3.82,-1.43867 -0.98267,-0.96 -1.47467,-2.23866 -1.47467,-3.836 v -0.276 c 0,-1.072 0.208,-2.02933 0.62134,-2.87466 0.41466,-0.844 1.00133,-1.49467 1.76,-1.952 0.76,-0.456 1.62533,-0.68534 2.59866,-0.68534 1.45867,0 2.608,0.46 3.44534,1.38 0.83866,0.92134 1.25733,2.22534 1.25733,3.91467 v 1.164 h -6.79333 c 0.092,0.696 0.36933,1.256 0.83333,1.676 0.46267,0.42133 1.04933,0.63067 1.76,0.63067 1.09733,0 1.956,-0.39734 2.57333,-1.19334 l 1.4,1.568 c -0.42666,0.60534 -1.00533,1.07734 -1.736,1.41467 -0.72933,0.33867 -1.53733,0.508 -2.42533,0.508"
       style="fill:#231f20;fill-opacity:1;fill-rule:nonzero;stroke:none;stroke-width:0.133333" />
    <path
       id="path90"
       d="m 594.48265,570.22398 c 0.52534,0 0.952,-0.144 1.28134,-0.43334 0.32933,-0.28933 0.5,-0.67333 0.51333,-1.15333 h 2.672 c -0.007,0.72267 -0.204,1.38533 -0.592,1.98667 -0.388,0.60133 -0.91867,1.068 -1.592,1.4 -0.67467,0.332 -1.41867,0.49733 -2.23333,0.49733 -1.52534,0 -2.728,-0.484 -3.60934,-1.45333 -0.88133,-0.96934 -1.32133,-2.30934 -1.32133,-4.01867 v -0.18667 c 0,-1.64266 0.43733,-2.956 1.312,-3.93466 0.87333,-0.98 2.07333,-1.46934 3.59867,-1.46934 1.33466,0 2.404,0.38 3.20933,1.13867 0.80533,0.76 1.21467,1.76933 1.228,3.03333 h -2.672 c -0.0133,-0.556 -0.184,-1.00666 -0.51333,-1.35466 -0.32934,-0.34534 -0.76267,-0.52 -1.30134,-0.52 -0.664,0 -1.16533,0.24266 -1.504,0.72533 -0.33866,0.484 -0.508,1.27067 -0.508,2.356 v 0.296 c 0,1.1 0.168,1.89067 0.504,2.37067 0.33467,0.48133 0.844,0.72 1.528,0.72"
       style="fill:#231f20;fill-opacity:1;fill-rule:nonzero;stroke:none;stroke-width:0.133333" />
    <path
       id="path91"
       d="m 604.16532,559.03331 v 2.62267 h 1.824 v 2.09066 h -1.824 v 5.324 c 0,0.39467 0.0747,0.67734 0.22666,0.84934 0.15067,0.16933 0.44,0.25466 0.868,0.25466 0.31467,0 0.59467,-0.0227 0.83734,-0.068 v 2.16 c -0.55867,0.16934 -1.13334,0.25467 -1.72534,0.25467 -1.99866,0 -3.01733,-1.008 -3.056,-3.02667 v -5.748 h -1.55866 v -2.09066 h 1.55866 v -2.62267 h 2.84934"
       style="fill:#231f20;fill-opacity:1;fill-rule:nonzero;stroke:none;stroke-width:0.133333" />
    <path
       id="path92"
       d="m 613.61198,564.32798 c -0.388,-0.052 -0.73066,-0.0787 -1.02666,-0.0787 -1.07734,0 -1.784,0.36533 -2.11867,1.09467 v 6.98133 h -2.84933 v -10.66933 h 2.69066 l 0.08,1.272 c 0.57067,-0.98 1.36267,-1.46934 2.376,-1.46934 0.316,0 0.61067,0.0427 0.88667,0.128 l -0.0387,2.74134"
       style="fill:#231f20;fill-opacity:1;fill-rule:nonzero;stroke:none;stroke-width:0.133333" />
    <path
       id="path93"
       d="m 617.36798,567.09464 c 0,1.01334 0.19067,1.78934 0.572,2.32534 0.38134,0.536 0.92667,0.804 1.63734,0.804 0.68933,0 1.228,-0.264 1.616,-0.79467 0.388,-0.52933 0.58266,-1.37733 0.58266,-2.54267 0,-0.99466 -0.19466,-1.764 -0.58266,-2.31066 -0.388,-0.54667 -0.93334,-0.82 -1.636,-0.82 -0.69734,0 -1.236,0.272 -1.61734,0.81466 -0.38133,0.544 -0.572,1.38534 -0.572,2.524 z m -2.84933,-0.20266 c 0,-1.05867 0.20267,-2.00134 0.61067,-2.82934 0.408,-0.82933 0.99466,-1.46933 1.76133,-1.92266 0.764,-0.45467 1.65333,-0.68134 2.66667,-0.68134 1.44,0 2.61466,0.44 3.524,1.32134 0.91066,0.88133 1.41866,2.07733 1.524,3.58933 l 0.02,0.72933 c 0,1.63734 -0.45734,2.94934 -1.37067,3.94 -0.91333,0.98934 -2.14,1.48267 -3.67733,1.48267 -1.53867,0 -2.76667,-0.492 -3.684,-1.47867 -0.916,-0.98533 -1.37467,-2.32666 -1.37467,-4.02266 v -0.128"
       style="fill:#231f20;fill-opacity:1;fill-rule:nonzero;stroke:none;stroke-width:0.133333" />
    <path
       id="path94"
       d="m 629.03732,561.65598 0.0893,1.23333 c 0.76267,-0.95333 1.78533,-1.43067 3.06667,-1.43067 1.13066,0 1.972,0.332 2.52266,0.996 0.55334,0.664 0.83467,1.65734 0.84934,2.97734 v 6.89333 h -2.85067 v -6.824 c 0,-0.604 -0.13067,-1.044 -0.39333,-1.316 -0.26267,-0.272 -0.70134,-0.40933 -1.312,-0.40933 -0.80134,0 -1.404,0.34266 -1.804,1.02533 v 7.524 h -2.84934 v -10.66933 h 2.68134"
       style="fill:#231f20;fill-opacity:1;fill-rule:nonzero;stroke:none;stroke-width:0.133333" />
    <path
       id="path95"
       d="m 640.65065,572.32531 h -2.86 v -10.66933 h 2.86 z m -3.02667,-13.43067 c 0,-0.42666 0.14267,-0.77866 0.42934,-1.05333 0.28533,-0.27733 0.67466,-0.416 1.168,-0.416 0.48533,0 0.87333,0.13867 1.16266,0.416 0.28934,0.27467 0.43467,0.62667 0.43467,1.05333 0,0.43334 -0.14667,0.78934 -0.43867,1.06534 -0.29333,0.276 -0.68,0.41466 -1.15866,0.41466 -0.48,0 -0.86667,-0.13866 -1.15867,-0.41466 -0.292,-0.276 -0.43867,-0.632 -0.43867,-1.06534"
       style="fill:#231f20;fill-opacity:1;fill-rule:nonzero;stroke:none;stroke-width:0.133333" />
    <path
       id="path96"
       d="m 647.31065,570.22398 c 0.52667,0 0.95333,-0.144 1.28267,-0.43334 0.32933,-0.28933 0.5,-0.67333 0.512,-1.15333 h 2.67333 c -0.007,0.72267 -0.20533,1.38533 -0.59333,1.98667 -0.38667,0.60133 -0.91734,1.068 -1.59067,1.4 -0.67467,0.332 -1.41867,0.49733 -2.23333,0.49733 -1.52534,0 -2.728,-0.484 -3.60934,-1.45333 -0.88133,-0.96934 -1.32133,-2.30934 -1.32133,-4.01867 v -0.18667 c 0,-1.64266 0.43733,-2.956 1.31067,-3.93466 0.87466,-0.98 2.07466,-1.46934 3.6,-1.46934 1.33466,0 2.404,0.38 3.20933,1.13867 0.804,0.76 1.21467,1.76933 1.228,3.03333 h -2.67333 c -0.012,-0.556 -0.18267,-1.00666 -0.512,-1.35466 -0.32934,-0.34534 -0.76267,-0.52 -1.30267,-0.52 -0.66267,0 -1.164,0.24266 -1.50267,0.72533 -0.33866,0.484 -0.508,1.27067 -0.508,2.356 v 0.296 c 0,1.1 0.168,1.89067 0.504,2.37067 0.33334,0.48133 0.844,0.72 1.52667,0.72"
       style="fill:#231f20;fill-opacity:1;fill-rule:nonzero;stroke:none;stroke-width:0.133333" />
    <path
       id="path97"
       d="m 659.26665,569.37598 c 0,-0.348 -0.172,-0.62267 -0.516,-0.82267 -0.34533,-0.2 -0.9,-0.38 -1.66133,-0.53733 -2.53867,-0.53334 -3.80667,-1.61067 -3.80667,-3.23467 0,-0.94667 0.392,-1.73733 1.17867,-2.37067 0.784,-0.63466 1.812,-0.952 3.08133,-0.952 1.35333,0 2.43733,0.32 3.248,0.956 0.812,0.63867 1.21733,1.46667 1.21733,2.48534 h -2.84933 c 0,-0.40667 -0.13067,-0.74534 -0.39467,-1.01067 -0.26266,-0.26667 -0.67333,-0.4 -1.232,-0.4 -0.48,0 -0.85066,0.10933 -1.11466,0.32667 -0.26267,0.216 -0.39334,0.492 -0.39334,0.828 0,0.316 0.14934,0.56933 0.448,0.76266 0.29867,0.19467 0.804,0.36267 1.51334,0.504 0.71066,0.14134 1.308,0.30134 1.79466,0.47734 1.50667,0.55333 2.25867,1.50933 2.25867,2.87066 0,0.972 -0.41867,1.76 -1.25333,2.36 -0.83467,0.60267 -1.912,0.90267 -3.23334,0.90267 -0.89333,0 -1.688,-0.15867 -2.38133,-0.47733 -0.69333,-0.31867 -1.23733,-0.756 -1.632,-1.312 -0.39333,-0.55467 -0.592,-1.15467 -0.592,-1.79867 h 2.70267 c 0.0253,0.50533 0.21333,0.89333 0.56266,1.16267 0.34667,0.27066 0.81467,0.404 1.39867,0.404 0.54667,0 0.95867,-0.10267 1.23867,-0.30934 0.27866,-0.208 0.41733,-0.47866 0.41733,-0.81466"
       style="fill:#231f20;fill-opacity:1;fill-rule:nonzero;stroke:none;stroke-width:0.133333" />
    <path
       id="path98"
       d="m 680.35865,567.54264 c -0.112,1.544 -0.68267,2.76134 -1.71067,3.648 -1.02933,0.888 -2.38533,1.33067 -4.06666,1.33067 -1.84134,0 -3.28934,-0.61867 -4.344,-1.85867 -1.056,-1.23866 -1.584,-2.93866 -1.584,-5.10266 v -0.87734 c 0,-1.38 0.244,-2.596 0.73066,-3.648 0.48667,-1.052 1.18134,-1.85866 2.08534,-2.42 0.904,-0.56266 1.95466,-0.844 3.15066,-0.844 1.656,0 2.99067,0.444 4.00267,1.332 1.01333,0.88667 1.59733,2.132 1.756,3.736 h -2.95867 c -0.072,-0.92666 -0.32933,-1.59866 -0.77466,-2.016 -0.444,-0.41733 -1.11867,-0.62533 -2.02534,-0.62533 -0.98666,0 -1.724,0.35333 -2.21333,1.06 -0.49067,0.70667 -0.74133,1.80267 -0.75467,3.288 v 1.08533 c 0,1.55067 0.23467,2.68534 0.704,3.4 0.47067,0.71734 1.212,1.076 2.22534,1.076 0.912,0 1.59466,-0.20933 2.044,-0.62666 0.45066,-0.41734 0.70933,-1.06267 0.77466,-1.93734 h 2.95867"
       style="fill:#231f20;fill-opacity:1;fill-rule:nonzero;stroke:none;stroke-width:0.133333" />
    <path
       id="path99"
       d="m 684.57998,567.09464 c 0,1.01334 0.19067,1.78934 0.572,2.32534 0.38134,0.536 0.92667,0.804 1.636,0.804 0.69067,0 1.22934,-0.264 1.61867,-0.79467 0.388,-0.52933 0.58133,-1.37733 0.58133,-2.54267 0,-0.99466 -0.19333,-1.764 -0.58133,-2.31066 -0.38933,-0.54667 -0.93467,-0.82 -1.63867,-0.82 -0.696,0 -1.23466,0.272 -1.616,0.81466 -0.38133,0.544 -0.572,1.38534 -0.572,2.524 z m -2.85066,-0.20266 c 0,-1.05867 0.20533,-2.00134 0.612,-2.82934 0.408,-0.82933 0.99466,-1.46933 1.76,-1.92266 0.76666,-0.45467 1.656,-0.68134 2.66666,-0.68134 1.44,0 2.61467,0.44 3.52667,1.32134 0.90933,0.88133 1.41733,2.07733 1.52267,3.58933 l 0.0187,0.72933 c 0,1.63734 -0.456,2.94934 -1.36933,3.94 -0.91467,0.98934 -2.14,1.48267 -3.67867,1.48267 -1.53733,0 -2.76533,-0.492 -3.68266,-1.47867 -0.916,-0.98533 -1.376,-2.32666 -1.376,-4.02266 v -0.128"
       style="fill:#231f20;fill-opacity:1;fill-rule:nonzero;stroke:none;stroke-width:0.133333" />
    <path
       id="path100"
       d="m 696.26398,561.65598 0.0893,1.19333 c 0.756,-0.92667 1.77866,-1.39067 3.06666,-1.39067 1.37467,0 2.31734,0.54267 2.82934,1.62667 0.74933,-1.084 1.81733,-1.62667 3.20533,-1.62667 1.156,0 2.01733,0.33734 2.58267,1.01067 0.56533,0.67467 0.848,1.688 0.848,3.04133 v 6.81467 h -2.85867 v -6.804 c 0,-0.604 -0.11867,-1.04667 -0.356,-1.32667 -0.23733,-0.27866 -0.65467,-0.41866 -1.252,-0.41866 -0.85467,0 -1.44667,0.408 -1.77467,1.22266 l 0.009,7.32667 h -2.84934 v -6.79467 c 0,-0.61733 -0.12133,-1.064 -0.36533,-1.34 -0.24267,-0.27733 -0.65733,-0.41466 -1.24133,-0.41466 -0.808,0 -1.39467,0.336 -1.756,1.00533 v 7.544 h -2.84934 v -10.66933 h 2.672"
       style="fill:#231f20;fill-opacity:1;fill-rule:nonzero;stroke:none;stroke-width:0.133333" />
    <path
       id="path101"
       d="m 717.82798,566.88264 c 0,-0.99333 -0.176,-1.76 -0.52666,-2.29733 -0.352,-0.53867 -0.86267,-0.80933 -1.53334,-0.80933 -0.89333,0 -1.50933,0.34266 -1.844,1.02533 v 4.368 c 0.348,0.704 0.96934,1.05467 1.864,1.05467 1.36134,0 2.04,-1.11467 2.04,-3.34134 z m 2.85067,0.20534 c 0,1.64533 -0.37333,2.96 -1.12,3.95066 -0.74667,0.98934 -1.75333,1.48267 -3.02133,1.48267 -1.07867,0 -1.94934,-0.37467 -2.61334,-1.124 v 5.02933 h -2.84933 v -14.77066 h 2.64267 l 0.0987,1.04533 c 0.68934,-0.828 1.59067,-1.24267 2.70134,-1.24267 1.31466,0 2.33733,0.48667 3.06666,1.46 0.72934,0.972 1.09467,2.31334 1.09467,4.02267 v 0.14667"
       style="fill:#231f20;fill-opacity:1;fill-rule:nonzero;stroke:none;stroke-width:0.133333" />
    <path
       id="path102"
       d="m 726.21598,570.34264 c 0.42134,0 0.80934,-0.0933 1.164,-0.28133 0.35467,-0.18667 0.61734,-0.43867 0.78934,-0.75333 v -1.83467 h -1.06534 c -1.42666,0 -2.18533,0.49333 -2.27866,1.47867 l -0.009,0.16933 c 0,0.35333 0.12534,0.64667 0.37467,0.87733 0.25067,0.22934 0.592,0.344 1.02533,0.344 z m 2.35734,1.98267 c -0.132,-0.25733 -0.228,-0.576 -0.28667,-0.95733 -0.69067,0.76933 -1.58667,1.15333 -2.692,1.15333 -1.044,0 -1.91067,-0.30133 -2.59733,-0.90667 -0.688,-0.60533 -1.03067,-1.36666 -1.03067,-2.288 0,-1.13066 0.42,-1.99733 1.25733,-2.60266 0.83867,-0.604 2.048,-0.91067 3.63334,-0.91734 h 1.312 v -0.61066 c 0,-0.49334 -0.12667,-0.888 -0.38134,-1.184 -0.252,-0.29467 -0.652,-0.444 -1.19733,-0.444 -0.47867,0 -0.856,0.116 -1.12933,0.34533 -0.272,0.23067 -0.408,0.54667 -0.408,0.948 h -2.84934 c 0,-0.61867 0.18934,-1.18933 0.57067,-1.716 0.38133,-0.52667 0.92,-0.93867 1.61733,-1.23867 0.69734,-0.29733 1.47867,-0.448 2.34667,-0.448 1.31467,0 2.35867,0.33067 3.13067,0.99067 0.77333,0.66133 1.15866,1.59067 1.15866,2.78667 v 4.62266 c 0.007,1.01334 0.148,1.77867 0.424,2.29867 v 0.168 h -2.87866"
       style="fill:#231f20;fill-opacity:1;fill-rule:nonzero;stroke:none;stroke-width:0.133333" />
    <path
       id="path103"
       d="m 735.86665,561.65598 0.088,1.23333 c 0.76266,-0.95333 1.78533,-1.43067 3.06666,-1.43067 1.13067,0 1.972,0.332 2.524,0.996 0.55334,0.664 0.83467,1.65734 0.84934,2.97734 v 6.89333 h -2.85067 v -6.824 c 0,-0.604 -0.13067,-1.044 -0.39467,-1.316 -0.26266,-0.272 -0.7,-0.40933 -1.31066,-0.40933 -0.80267,0 -1.404,0.34266 -1.80534,1.02533 v 7.524 h -2.84933 v -10.66933 h 2.68267"
       style="fill:#231f20;fill-opacity:1;fill-rule:nonzero;stroke:none;stroke-width:0.133333" />
    <path
       id="path104"
       d="m 748.21731,568.29198 1.972,-6.636 h 3.056 l -4.288,12.32533 -0.236,0.56133 c -0.63866,1.39467 -1.69066,2.09067 -3.15733,2.09067 -0.41333,0 -0.83467,-0.0613 -1.26133,-0.18667 v -2.16 l 0.43333,0.0107 c 0.54,0 0.94267,-0.0827 1.20933,-0.24667 0.26534,-0.164 0.47467,-0.43733 0.62534,-0.81866 l 0.336,-0.87734 -3.73734,-10.69866 h 3.06667 l 1.98133,6.636"
       style="fill:#231f20;fill-opacity:1;fill-rule:nonzero;stroke:none;stroke-width:0.133333" />
    <path
       id="path105"
       d="m 535.69332,522.74531 h 16.488 v 3.10134 h -11.69333 v 3.376 h 11.10133 v 2.96533 h -11.10133 v 3.73733 h 11.792 v 3.10267 h -16.58667 v -16.28267"
       style="fill:#231f20;fill-opacity:1;fill-rule:nonzero;stroke:none;stroke-width:0.133333" />
    <path
       id="path106"
       d="m 555.42665,522.74531 h 4.79734 v 13.044 h 10.756 v 3.23867 h -15.55334 v -16.28267"
       style="fill:#231f20;fill-opacity:1;fill-rule:nonzero;stroke:none;stroke-width:0.133333" />
    <path
       id="path107"
       d="m 573.78132,522.74531 h 16.48933 v 3.10134 h -11.69466 v 3.376 h 11.09866 v 2.96533 h -11.09866 v 3.73733 h 11.79333 v 3.10267 h -16.588 v -16.28267"
       style="fill:#231f20;fill-opacity:1;fill-rule:nonzero;stroke:none;stroke-width:0.133333" />
    <path
       id="path108"
       d="m 608.42265,528.90131 c -0.44667,-2.352 -2.54533,-3.51333 -5.04,-3.51333 -4.552,0 -5.516,3.28267 -5.516,5.49733 0,2.21334 0.964,5.49467 5.516,5.49467 2.324,0 4.568,-1.024 5.04,-3.60133 h 5.216 c -0.59333,4.74133 -4.82133,6.70533 -10.432,6.70533 -6.42666,0 -10.43333,-2.55734 -10.43333,-8.59867 0,-6.044 4.00667,-8.59333 10.43333,-8.59333 4.25333,0 9.66533,0.99867 10.38267,6.60933 h -5.16667"
       style="fill:#231f20;fill-opacity:1;fill-rule:nonzero;stroke:none;stroke-width:0.133333" />
    <path
       id="path109"
       d="m 621.28665,525.84665 h -6.54933 v -3.10134 h 17.90133 v 3.10134 h -6.55467 v 13.18133 h -4.79733 v -13.18133"
       style="fill:#231f20;fill-opacity:1;fill-rule:nonzero;stroke:none;stroke-width:0.133333" />
    <path
       id="path110"
       d="m 639.59198,529.95198 h 6.34934 c 1.06666,0 2.30266,-0.54667 2.30266,-2.07867 0,-1.612 -1.38666,-2.02666 -2.54933,-2.02666 h -6.10267 z m -4.79866,-7.20667 h 12.832 c 4.892,0 5.708,2.76 5.708,4.42534 0,1.984 -0.864,3.25866 -2.86667,3.92 v 0.0453 c 2.10133,0.29733 2.42133,2.75867 2.42133,4.356 0,0.79466 0.0773,2.71066 0.91734,3.536 h -5.24 c -0.44534,-0.756 -0.46934,-1.416 -0.46934,-3.12934 0,-2.27466 -1.064,-2.84666 -2.55066,-2.84666 h -5.95334 v 5.976 h -4.79866 v -16.28267"
       style="fill:#231f20;fill-opacity:1;fill-rule:nonzero;stroke:none;stroke-width:0.133333" />
    <path
       id="path111"
       d="m 666.34665,536.37998 c 4.356,0 5.88267,-2.96133 5.88267,-5.49467 0,-2.53066 -1.52667,-5.49733 -5.88267,-5.49733 -4.348,0 -5.87867,2.96667 -5.87867,5.49733 0,2.53334 1.53067,5.49467 5.87867,5.49467 z m 0,-14.088 c 9.492,0 10.976,5.2 10.976,8.59333 0,3.396 -1.484,8.59867 -10.976,8.59867 -9.492,0 -10.976,-5.20267 -10.976,-8.59867 0,-3.39333 1.484,-8.59333 10.976,-8.59333"
       style="fill:#231f20;fill-opacity:1;fill-rule:nonzero;stroke:none;stroke-width:0.133333" />
    <path
       id="path112"
       d="m 695.08265,522.74531 h 4.648 v 16.28267 h -5.21333 l -9.61867,-11.35867 h -0.0507 v 11.35867 h -4.648 v -16.28267 h 5.56534 l 9.26933,11.35467 h 0.048 v -11.35467"
       style="fill:#231f20;fill-opacity:1;fill-rule:nonzero;stroke:none;stroke-width:0.133333" />
    <path
       id="path113"
       d="m 703.59865,522.74531 h 4.796 v 16.28267 h -4.796 v -16.28267"
       style="fill:#231f20;fill-opacity:1;fill-rule:nonzero;stroke:none;stroke-width:0.133333" />
    <path
       id="path114"
       d="m 727.16265,528.90131 c -0.44667,-2.352 -2.54933,-3.51333 -5.04667,-3.51333 -4.548,0 -5.51066,3.28267 -5.51066,5.49733 0,2.21334 0.96266,5.49467 5.51066,5.49467 2.328,0 4.57334,-1.024 5.04667,-3.60133 h 5.21467 c -0.59467,4.74133 -4.82267,6.70533 -10.43067,6.70533 -6.42933,0 -10.43467,-2.55734 -10.43467,-8.59867 0,-6.044 4.00534,-8.59333 10.43467,-8.59333 4.248,0 9.668,0.99867 10.38133,6.60933 h -5.16533"
       style="fill:#231f20;fill-opacity:1;fill-rule:nonzero;stroke:none;stroke-width:0.133333" />
    <path
       id="path115"
       d="m 747.12398,527.46398 c -0.29867,-2.11867 -2.49733,-2.348 -4.42533,-2.348 -1.98134,0 -3.264,0.824 -3.264,1.91467 0,0.86533 0.792,1.35066 2.02666,1.52933 l 6.008,0.88933 c 3.21334,0.47734 5.66,1.59334 5.66,4.55734 0,3.03866 -2.22133,5.47733 -9.17066,5.47733 -4.304,0 -9.88667,-0.49867 -9.93867,-5.58933 h 5.392 c 0.0467,2.23599 2.468,2.62666 4.54667,2.62666 2.244,0 3.78133,-0.62267 3.78133,-2.03466 0,-1.252 -1.08933,-1.59467 -2.992,-1.864 l -4.37467,-0.62 c -3.064,-0.43734 -6.03066,-1.28 -6.03066,-4.61067 0,-3.62133 3.21333,-5.1 8.748,-5.1 3.63333,0 9.028,0.56933 9.34533,5.172 h -5.312"
       style="fill:#231f20;fill-opacity:1;fill-rule:nonzero;stroke:none;stroke-width:0.133333" />
    <path
       id="path116"
       d="m 753.21865,514.29331 v -4.09733 H 535.68399 v 4.09733 h 217.53466"
       style="fill:#17ae65;fill-opacity:1;fill-rule:nonzero;stroke:none;stroke-width:0.133333" />
    <path
       id="path117"
       d="m 544.12265,500.72798 h -8.44 v -25.2 h 28.424 v 4.456 h -19.984 v 5.684 h 17.488 v 4.46133 h -17.488 v 10.59867"
       style="fill:#231f20;fill-opacity:1;fill-rule:nonzero;stroke:none;stroke-width:0.133333" />
    <path
       id="path118"
       d="m 601.45865,491.91731 c 0,6.63334 -6.30933,9.48534 -16.32933,9.48534 -3.65467,0 -9.07867,-0.568 -12.62667,-3.05734 -2.15466,-1.54933 -2.988,-3.584 -3.096,-6.11333 v -16.704 h 8.472 v 16.356 c 0,3.51067 3.204,5.05333 7.08534,5.05333 5.69866,0 8.02533,-1.75466 8.02533,-4.81066 v -16.59867 h 8.46933 v 16.38933"
       style="fill:#231f20;fill-opacity:1;fill-rule:nonzero;stroke:none;stroke-width:0.133333" />
    <path
       id="path119"
       d="m 626.47198,500.72798 h -8.30533 v -20.744 h -12.01333 v -4.456 h 32.328 v 4.456 h -12.00934 v 20.744"
       style="fill:#231f20;fill-opacity:1;fill-rule:nonzero;stroke:none;stroke-width:0.133333" />
    <path
       id="path120"
       d="m 675.22798,491.91731 c 0,6.63334 -6.312,9.48534 -16.33466,9.48534 -3.648,0 -9.07334,-0.568 -12.616,-3.05734 -2.16134,-1.54933 -2.99067,-3.584 -3.09734,-6.11333 v -16.704 h 8.46534 v 16.356 c 0,3.51067 3.20666,5.05333 7.08533,5.05333 5.7,0 8.02933,-1.75466 8.02933,-4.81066 v -16.59867 h 8.468 v 16.38933"
       style="fill:#231f20;fill-opacity:1;fill-rule:nonzero;stroke:none;stroke-width:0.133333" />
    <path
       id="path121"
       d="m 701.23732,486.61998 c 4.31733,0 6.424,-0.952 6.424,-3.444 0,-1.33333 -0.948,-3.29867 -5.81467,-3.29867 h -10.35333 v 6.74267 z m -17.87867,-11.092 h 20.09333 c 10.568,0 12.504,4.94933 12.504,7.12267 0,2.77733 -2.21066,5.16 -6.13866,6.008 3.264,0.90933 5.03066,1.676 5.03066,6.384 0,3.68666 0,4.6 1.78134,5.02533 v 0.66 h -9.19067 c -0.55467,-1.18667 -0.892,-2.49067 -0.892,-5.08533 0,-3.44134 -0.328,-4.78134 -6.47333,-4.78134 h -8.58 v 9.86667 h -8.13467 v -25.2"
       style="fill:#231f20;fill-opacity:1;fill-rule:nonzero;stroke:none;stroke-width:0.133333" />
    <path
       id="path122"
       d="m 752.54531,479.98398 h -21.09733 v 5.30267 h 19.38 v 4.45866 h -19.38 v 6.528 h 21.74 v 4.45467 h -29.87066 v -25.2 h 29.22799 v 4.456"
       style="fill:#231f20;fill-opacity:1;fill-rule:nonzero;stroke:none;stroke-width:0.133333" />
    <path
       id="path123"
       d="m 523.63065,541.04664 h -67.51199 v -67.56799 h 67.51199 v 67.56799"
       style="fill:#ffffff;fill-opacity:1;fill-rule:nonzero;stroke:none;stroke-width:0.133333" />
    <path
       id="path124"
       d="m 522.84799,540.28531 h -66.06933 v -66.03733 h 66.06933 z m 0,-67.388 h -67.42133 v 68.73867 h 68.77333 v -1.35067 -66.03733 -1.35067 h -1.352"
       style="fill:#007e45;fill-opacity:1;fill-rule:nonzero;stroke:none;stroke-width:0.133333" />
    <path
       id="path125"
       d="m 485.62399,493.56131 -5.516,5.56267 v 0.95733 l 6.46666,-6.52 h -0.95066"
       style="fill:#17ae65;fill-opacity:1;fill-rule:nonzero;stroke:none;stroke-width:0.133333" />
    <path
       id="path126"
       d="m 484.78665,522.22398 h -0.79066 l -3.84267,3.87467 v 0.96 l 4.79333,-4.83467 h -0.16"
       style="fill:#17ae65;fill-opacity:1;fill-rule:nonzero;stroke:none;stroke-width:0.133333" />
    <path
       id="path127"
       d="m 503.95065,476.04398 h 5.74934 l -5.96267,6.01067 v 0.95866 l 6.91333,-6.96933 h 5.74667 l -12.66,12.76667 v 0.95866 l 13.61333,-13.72533 h 3.68134 v 2.08267 l -26.08534,26.30133 h -5.748 l 10.77734,-10.86667 h -0.952 l -10.77734,10.86667 h -5.748 l 10.77734,-10.86667 h -0.952 l -10.77734,10.86667 h -4.30533 v -1.45467 -0.001 -0.95867 0 -5.796 0 -0.95866 0 -4.54934 h 4.512 -10e-4 0.952 v 0 h 5.74933 -10e-4 0.952 v 0 h 5.74933 -10e-4 0.952 v 0 h 4.65466 v -4.692 l 0.001,-10e-4 v -0.96 10e-4 -5.79733 0 -0.95733 -1.84534 -0.41333 h 2.97733 v 0 z m 17.08134,8.83867 -19.824,19.988 0.392,0.388 0.0867,0.0867 19.34534,-19.504 v 5.79734 l -17.24934,17.39066 v 0.11067 0.768 0.0827 l 17.24934,-17.39334 v 5.79467 l -17.24934,17.39333 v 0.20667 0.752 l 17.24934,-17.392 v 5.796 l -33.06667,33.34 h -5.74933 l 16.13066,-16.264 h -0.74 -0.21066 l -16.13067,16.264 h -1.112 -2.912 v 0 -1.74 0 -0.0613 -0.76666 -0.13067 0 -5.79733 0 -0.15467 -0.80266 0 -5.79734 0 -0.95866 10e-4 -2.91733 h 2.892 v 0 h 0.95067 v 0 h 5.74933 v 0 h 0.788 0.164 v 0 h 5.74933 -0.001 0.11867 0.76 0.072 0.001 5.748 v 0 h 0.208 0.31867 v -0.32134 -0.21066 l -10e-4,0.003 v -5.796 l 10e-4,-10e-4 v -0.0787 -0.768 -0.112 l -10e-4,0.003 v -5.79867 l 10e-4,-0.003 v -0.17334 -0.784 l -10e-4,0.003 v -0.896 h -4.86 l 25.13334,-25.34 z m 0,27.02 -26.36667,26.58533 h -5.74933 l 32.116,-32.38 z m 0,6.756 -19.66534,19.82933 h -5.74933 l 25.41467,-25.62667 z m 0,6.75466 -12.96667,13.07467 h -5.75067 l 18.71734,-18.87067 z m 0,6.75467 -6.26667,6.32 h -5.74933 l 12.016,-12.116 z m 0,6.32 h -5.31467 l 5.31467,-5.36 z m 0.54133,-0.11067 v -60.796 -2.076 h -24.73867 -38.78666 v 43.27734 6.852 13.39333 l 63.52533,-10e-4 v -0.64933"
       style="fill:#17ae65;fill-opacity:1;fill-rule:nonzero;stroke:none;stroke-width:0.133333" />
    <path
       id="path128"
       d="m 491.57599,522.22398 h -0.88 l -10.54267,10.62933 v 0.96 l 11.49333,-11.58933 h -0.0707"
       style="fill:#17ae65;fill-opacity:1;fill-rule:nonzero;stroke:none;stroke-width:0.133333" />
    <path
       id="path129"
       d="m 500.75999,506.10531 v 13.25734 h -23.51867 v 19.12533 h 2.912 v -4.73867 -0.768 -5.31466 -0.768 -4.67467 h 4.63333 0.76 5.268 0.76134 5.268 0.76266 5.26667 0.76133 0.148 v -0.148 -0.76933 -5.31467 -0.76933 -5.31467 -0.768 -1.72267 l -1.79866,-1.77866 -0.384,-0.38 -0.84,-0.83067 v 1.67733"
       style="fill:#007e45;fill-opacity:1;fill-rule:nonzero;stroke:none;stroke-width:0.133333" />
    <path
       id="path130"
       d="m 503.73732,491.70265 v -15.65867 h -2.97733 v 14.66533 h -2.068 -0.76134 -5.268 -0.76 -5.26933 -0.76 -8.632 v 8.70934 0.76933 4.24 h 1.06533 0.76134 1.04 v -1.04933 -0.76934 -5.316 -0.76666 -2.96534 h 2.93733 0.76267 5.268 0.76133 5.26667 0.76133 5.268 0.76267 1.84133 v -1.85866"
       style="fill:#007e45;fill-opacity:1;fill-rule:nonzero;stroke:none;stroke-width:0.133333" />
  </g>
</svg>
