<?xml version="1.0" encoding="UTF-8" standalone="no"?>
<!-- Created with Inkscape (http://www.inkscape.org/) -->

<svg
   version="1.1"
   id="svg1"
   width="433.30264"
   height="121.27066"
   viewBox="0 0 433.30266 121.27066"
   sodipodi:docname="FEDAY 2025 SMALL LOGO WHITE.svg"
   xml:space="preserve"
   inkscape:version="1.3 (0e150ed6c4, 2023-07-21)"
   xmlns:inkscape="http://www.inkscape.org/namespaces/inkscape"
   xmlns:sodipodi="http://sodipodi.sourceforge.net/DTD/sodipodi-0.dtd"
   xmlns="http://www.w3.org/2000/svg"
   xmlns:svg="http://www.w3.org/2000/svg"><defs
     id="defs1" /><sodipodi:namedview
     id="namedview1"
     pagecolor="#ffffff"
     bordercolor="#000000"
     borderopacity="0.25"
     inkscape:showpageshadow="2"
     inkscape:pageopacity="0.0"
     inkscape:pagecheckerboard="0"
     inkscape:deskcolor="#d1d1d1"
     inkscape:zoom="4.1772189"
     inkscape:cx="216.65132"
     inkscape:cy="60.686309"
     inkscape:window-width="2880"
     inkscape:window-height="1526"
     inkscape:window-x="-11"
     inkscape:window-y="-11"
     inkscape:window-maximized="1"
     inkscape:current-layer="g1" /><g
     id="g1"
     inkscape:groupmode="layer"
     inkscape:label="1"
     transform="translate(-5.4213599,-14.494691)"><path
       id="path13"
       d="m 1055.66,7241.29 h 283.17 c 3.4,0 6.37,-1.06 8.79,-3.13 2.38,-2.07 3.59,-5.15 3.59,-9.29 v -87.5 c 0,-2.66 -1.09,-5.67 -3.36,-9.03 -2.22,-3.36 -5.23,-5.04 -9.02,-5.04 H 1180.9 v -88.67 h 108.83 c 3.4,0 6.36,-1.01 8.79,-3.08 2.46,-2.07 3.75,-5.2 3.75,-9.34 v -78.44 c 0,-2.57 -1.18,-5.62 -3.52,-9.02 -2.27,-3.36 -5.27,-5.04 -9.02,-5.04 H 1180.9 v -98.75 c 0,-8.24 -4.53,-12.38 -13.56,-12.38 h -113.36 c -2.65,0.78 -4.76,2.22 -6.32,4.53 -1.49,2.19 -2.19,4.65 -2.19,7.34 v 394.42 c 0,5.23 1.01,8.51 3.08,9.8 2.08,1.29 4.46,2.15 7.11,2.62"
       style="fill:#ffffff;fill-opacity:1;fill-rule:nonzero;stroke:none"
       transform="matrix(0.13333333,0,0,-0.13333333,0,980)" /><path
       id="path14"
       d="m 1615.35,6996.87 v 232 c 0,3.36 1.02,6.25 3.09,8.67 2.07,2.46 5.19,3.75 9.33,3.75 h 108.79 c 5.35,0 8.95,-1.37 10.74,-4.02 1.88,-2.66 2.86,-5.51 2.86,-8.4 v -239.85 c 0,-32.77 -5.2,-60.23 -15.51,-82.46 -10.35,-22.15 -24.49,-39.8 -42.42,-52.97 -17.82,-13.2 -37.85,-22.73 -60.08,-28.55 -22.15,-5.78 -45.08,-8.67 -68.75,-8.67 -23.71,0 -46.76,2.89 -69.14,8.67 -22.42,5.82 -42.5,15.35 -60.35,28.55 -17.86,13.17 -31.92,30.82 -42.27,52.97 -10.31,22.23 -15.51,49.69 -15.51,82.46 v 239.85 c 0.71,7.81 4.07,11.95 10.08,12.42 h 111.13 c 3.01,0 6.14,-1.17 9.34,-3.52 3.16,-2.26 4.77,-5.23 4.77,-8.9 v -232 c 0,-12.73 2.77,-22.92 8.39,-30.46 5.71,-7.5 12.58,-12.86 20.67,-16.06 8.08,-3.16 15.7,-4.76 22.89,-4.76 7.5,0 15.27,1.95 23.4,5.82 8.08,3.94 14.84,9.76 20.27,17.46 5.51,7.73 8.28,17.07 8.28,28"
       style="fill:#ffffff;fill-opacity:1;fill-rule:nonzero;stroke:none"
       transform="matrix(0.13333333,0,0,-0.13333333,0,980)" /><path
       id="path15"
       d="m 1786.8,7241.29 h 336.87 c 3.36,0 6.25,-1.06 8.67,-3.13 2.5,-2.07 3.75,-5.15 3.75,-9.29 v -90.32 c 0,-2.69 -1.17,-5.7 -3.47,-9.06 -2.27,-3.36 -5.24,-5.04 -8.95,-5.04 h -101.05 v -289.49 c 0,-8.24 -4.53,-12.38 -13.56,-12.38 h -109.45 c -8.28,0 -12.42,4.14 -12.42,12.38 v 289.49 H 1786.8 c -8.28,0 -12.42,4.69 -12.42,14.1 v 90.32 c 0,8.28 4.14,12.42 12.42,12.42"
       style="fill:#ffffff;fill-opacity:1;fill-rule:nonzero;stroke:none"
       transform="matrix(0.13333333,0,0,-0.13333333,0,980)" /><path
       id="path16"
       d="m 2403.52,6996.87 v 232 c 0,3.36 1.01,6.25 3.08,8.67 2.07,2.46 5.2,3.75 9.34,3.75 h 108.79 c 5.35,0 8.94,-1.37 10.74,-4.02 1.87,-2.66 2.85,-5.51 2.85,-8.4 v -239.85 c 0,-32.77 -5.19,-60.23 -15.51,-82.46 -10.35,-22.15 -24.49,-39.8 -42.42,-52.97 -17.81,-13.2 -37.85,-22.73 -60.08,-28.55 -22.15,-5.78 -45.08,-8.67 -68.75,-8.67 -23.71,0 -46.76,2.89 -69.14,8.67 -22.42,5.82 -42.5,15.35 -60.35,28.55 -17.81,13.17 -31.91,30.82 -42.27,52.97 -10.31,22.23 -15.5,49.69 -15.5,82.46 v 239.85 c 0.7,7.81 4.06,11.95 10.08,12.42 h 111.17 c 3,0 6.09,-1.17 9.29,-3.52 3.17,-2.26 4.77,-5.23 4.77,-8.9 v -232 c 0,-12.73 2.77,-22.92 8.4,-30.46 5.7,-7.5 12.58,-12.86 20.7,-16.06 8.05,-3.16 15.7,-4.76 22.85,-4.76 7.5,0 15.28,1.95 23.4,5.82 8.09,3.94 14.84,9.76 20.27,17.46 5.51,7.73 8.29,17.07 8.29,28"
       style="fill:#ffffff;fill-opacity:1;fill-rule:nonzero;stroke:none"
       transform="matrix(0.13333333,0,0,-0.13333333,0,980)" /><path
       id="path17"
       d="m 2796.21,7101.33 c 0,8.28 -3.05,15.82 -9.06,22.73 -6.06,6.99 -13.36,10.47 -21.95,10.47 h -43.56 v -66.56 h 43.56 c 8.59,0 15.89,3.48 21.95,10.47 6.01,6.99 9.06,14.61 9.06,22.89 z m -208.2,-266.37 v 393.91 c 0,3.36 1.01,6.25 3.08,8.67 2.07,2.46 5.2,3.75 9.3,3.75 h 188.44 c 25.9,0 49.26,-6.29 69.92,-18.75 20.66,-12.42 36.95,-28.95 48.83,-49.65 11.91,-20.66 17.85,-43.59 17.85,-68.75 0,-25.23 -6.05,-48.52 -18.09,-69.77 -12.11,-21.21 -28.04,-37.85 -47.96,-49.88 l 80.66,-149.53 c 1.09,-3.79 0.55,-6.8 -1.68,-9.02 -2.27,-2.27 -4.88,-3.36 -7.89,-3.36 h -114.49 c -3.83,0 -7.43,1.17 -10.86,3.59 -3.36,2.5 -5.39,5.43 -6.1,8.79 l -59.8,119.69 h -16.45 v -119.69 c 0,-8.24 -4.49,-12.38 -13.55,-12.38 h -108.83 c -8.24,0 -12.38,4.14 -12.38,12.38"
       style="fill:#ffffff;fill-opacity:1;fill-rule:nonzero;stroke:none"
       transform="matrix(0.13333333,0,0,-0.13333333,0,980)" /><path
       id="path18"
       d="m 2984.02,7241.29 h 287.78 c 3.36,0 6.25,-1.06 8.67,-3.13 2.5,-2.07 3.75,-5.15 3.75,-9.29 v -77.93 c 0,-2.7 -1.06,-5.71 -3.13,-9.07 -2.03,-3.32 -5.15,-5.03 -9.29,-5.03 h -170.43 v -57.5 h 116.29 c 3.36,0 6.25,-0.86 8.67,-2.58 2.5,-1.72 3.75,-4.1 3.75,-7.11 v -76.1 c 0,-1.91 -1.06,-4.14 -3.13,-6.6 -2.07,-2.42 -5.15,-3.63 -9.29,-3.63 h -116.29 v -54.65 h 176.64 c 3.36,0 6.25,-1.05 8.67,-3.12 2.46,-2.07 3.75,-5.16 3.75,-9.3 v -79.61 c 0,-4.49 -1.45,-7.97 -4.3,-10.47 -2.81,-2.42 -6.33,-3.59 -10.43,-3.59 h -291.68 c -8.28,0 -12.42,4.14 -12.42,12.38 v 393.91 c 0,3.36 1.1,6.25 3.36,8.67 2.23,2.46 5.24,3.75 9.06,3.75"
       style="fill:#ffffff;fill-opacity:1;fill-rule:nonzero;stroke:none"
       transform="matrix(0.13333333,0,0,-0.13333333,0,980)" /><path
       id="path19"
       d="m 1191.56,6451.45 h 20.28 c 16.21,0 30.89,4.02 44.06,12.03 13.2,8.04 23.71,18.98 31.52,32.65 7.93,13.79 11.92,28.99 11.92,45.51 0,16.52 -3.99,31.56 -11.92,45.12 -7.81,13.59 -18.32,24.41 -31.52,32.42 -13.17,8.09 -27.85,12.15 -44.06,12.15 h -20.28 z m -132.61,-107.27 v 393.91 c 0,3.36 1.13,6.21 3.35,8.63 2.23,2.5 5.28,3.75 9.07,3.75 h 142.81 c 29.73,0 57.54,-5.27 83.48,-15.86 25.89,-10.55 48.75,-25.31 68.47,-44.34 19.81,-18.98 35.24,-41.25 46.29,-66.83 11.1,-25.59 16.64,-53.24 16.64,-82.97 0,-29.65 -5.54,-57.19 -16.64,-82.58 -11.05,-25.43 -26.48,-47.54 -46.29,-66.41 -19.72,-18.82 -42.58,-33.43 -68.47,-43.94 -25.94,-10.55 -53.75,-15.78 -83.48,-15.78 h -142.81 c -8.28,0 -12.42,4.14 -12.42,12.42"
       style="fill:#ffffff;fill-opacity:1;fill-rule:nonzero;stroke:none"
       transform="matrix(0.13333333,0,0,-0.13333333,0,980)" /><path
       id="path20"
       d="m 1643.44,6603.16 -26.53,-106.64 h 53.13 z m 70.04,134.93 139.96,-393.91 c 2.58,-8.28 0.11,-12.42 -7.39,-12.42 h -108.28 c -9.06,0 -15.31,4.14 -18.75,12.42 l -15.11,48.59 h -120.82 l -15.28,-48.59 c -3.36,-8.28 -9.57,-12.42 -18.59,-12.42 h -107.77 c -7.86,0 -10.47,4.14 -7.9,12.42 l 139.97,393.91 c 0.78,2.89 2.5,5.7 5.31,8.39 2.81,2.66 5.74,3.99 8.75,3.99 h 111.8 c 3,0 5.89,-1.33 8.67,-3.99 2.85,-2.69 4.65,-5.5 5.43,-8.39"
       style="fill:#ffffff;fill-opacity:1;fill-rule:nonzero;stroke:none"
       transform="matrix(0.13333333,0,0,-0.13333333,0,980)" /><path
       id="path21"
       d="m 1977.97,6741.95 64.88,-146.17 63.87,146.17 c 2.58,4.14 4.3,6.45 5.27,7 0.94,0.54 2.74,1.09 5.43,1.52 h 124.73 c 3.01,0 4.49,-1.33 4.49,-3.99 0,-1.48 -1.33,-3.94 -3.98,-7.38 l -133.13,-245.94 v -148.98 c 0,-8.28 -4.49,-12.42 -13.55,-12.42 h -108.95 c -8.28,0 -12.42,4.14 -12.42,12.42 v 150.04 l -132.58,244.88 c -2.26,3.01 -3.36,5.47 -3.36,7.38 0,2.66 1.33,3.99 4.03,3.99 h 124.57 c 2.61,-0.43 4.45,-0.98 5.43,-1.52 0.93,-0.55 2.69,-2.86 5.27,-7"
       style="fill:#ffffff;fill-opacity:1;fill-rule:nonzero;stroke:none"
       transform="matrix(0.13333333,0,0,-0.13333333,0,980)" /><path
       id="path22"
       d="M 778.051,7238.32 V 7018.01 L 520.352,6872.66 c 1.207,-5.24 2.027,-10.59 2.027,-16.18 0,-38.59 -31.399,-70.03 -70.039,-70.03 -38.629,0 -70.039,31.44 -70.039,70.03 0,38.64 31.41,70.04 70.039,70.04 17.738,0 33.711,-6.79 46.058,-17.69 l 237.34,133.9 v 195.59 H 40.6602 V 6331.76 H 198.551 v 209.65 l 257.738,145.39 c -1.25,5.19 -2.07,10.54 -2.07,16.13 0,38.59 31.41,70.04 70.043,70.04 38.629,0 70.039,-31.45 70.039,-70.04 0,-38.63 -31.41,-70.08 -70.039,-70.08 -17.703,0 -33.711,6.84 -46.063,17.74 L 240.859,6516.72 V 6331.76 H 947.23 v 906.56 H 778.051"
       style="fill:#959797;fill-opacity:1;fill-rule:nonzero;stroke:none"
       transform="matrix(0.13333333,0,0,-0.13333333,0,980)" /></g></svg>
