<?xml version="1.0" standalone="no"?>
<!DOCTYPE svg PUBLIC "-//W3C//DTD SVG 20010904//EN"
 "http://www.w3.org/TR/2001/REC-SVG-20010904/DTD/svg10.dtd">
<svg version="1.0" xmlns="http://www.w3.org/2000/svg"
 width="2336.000000pt" height="400.000000pt" viewBox="0 0 2336.000000 400.000000"
 preserveAspectRatio="xMidYMid meet">

<g transform="translate(0.000000,400.000000) scale(0.100000,-0.100000)"
fill="#000000" stroke="none">
<path d="M485 3990 c-373 -18 -466 -25 -476 -41 -5 -8 -8 -759 -6 -1834 l2
-1820 472 -3 473 -2 2 1377 3 1378 135 3 c557 13 963 -101 1265 -355 139 -117
258 -297 304 -458 l20 -70 0 737 1 736 -94 56 c-176 105 -358 177 -546 215
-333 68 -1040 104 -1555 81z"/>
<path d="M2793 3943 c-10 -4 -13 -378 -13 -1824 l0 -1819 433 0 c323 0 436 3
445 12 9 9 12 104 12 367 0 216 4 351 9 345 5 -5 26 -52 47 -104 132 -331 482
-613 841 -675 217 -38 612 -3 845 75 254 85 441 246 561 485 39 78 97 237 97
266 0 18 -20 19 -637 21 l-638 3 -58 24 c-33 13 -82 42 -110 65 -113 92 -160
188 -161 331 0 82 2 95 31 150 66 128 159 211 272 245 62 18 108 20 685 24
340 3 621 8 623 10 18 18 -92 243 -174 358 -163 226 -439 394 -765 465 -115
24 -361 25 -478 0 -352 -75 -654 -261 -819 -504 -51 -77 -116 -210 -137 -281
-9 -28 -20 -52 -25 -52 -5 0 -9 390 -9 998 0 763 -3 1001 -12 1010 -9 9 -118
12 -433 11 -231 0 -426 -3 -432 -6z"/>
<path d="M8915 2820 c-139 -22 -260 -85 -354 -186 -71 -76 -115 -156 -142
-262 -28 -111 -28 -484 1 -596 55 -218 225 -382 444 -431 62 -14 121 -16 358
-13 259 4 288 6 341 26 158 58 274 157 341 290 61 121 68 172 64 457 -5 291
-13 331 -99 460 -78 116 -196 200 -339 241 -65 19 -516 29 -615 14z m583 -319
c66 -30 135 -105 157 -171 14 -41 16 -86 13 -272 -3 -220 -3 -224 -30 -274
-29 -56 -68 -93 -132 -127 -39 -21 -55 -22 -302 -25 -242 -3 -264 -2 -315 17
-74 28 -123 71 -156 139 l-28 57 0 235 0 235 27 50 c42 80 98 124 188 149 43
12 104 15 290 13 222 -2 238 -4 288 -26z"/>
<path d="M10287 2816 c-46 -17 -64 -32 -83 -67 -12 -24 -14 -138 -14 -714 l0
-685 150 0 150 0 0 388 0 387 216 -378 c234 -410 239 -417 322 -417 53 0 94
20 125 62 13 18 114 191 223 383 l199 350 3 -387 2 -388 150 0 150 0 -2 689
c-3 679 -3 690 -24 717 -36 49 -70 68 -122 68 -93 0 -88 6 -404 -541 -158
-274 -290 -499 -295 -500 -5 -2 -131 210 -280 469 -150 260 -281 487 -292 505
-35 56 -111 82 -174 59z"/>
<path d="M14245 2819 c-202 -30 -371 -150 -455 -325 -51 -106 -60 -165 -60
-419 0 -260 8 -312 65 -425 65 -129 182 -231 333 -288 65 -25 74 -26 350 -30
237 -3 296 -1 358 13 226 50 399 223 449 450 14 61 16 116 13 317 -4 217 -7
249 -26 301 -87 235 -253 372 -497 407 -84 12 -446 11 -530 -1z m517 -300 c96
-21 162 -69 206 -153 l27 -51 0 -235 0 -235 -28 -57 c-33 -68 -82 -111 -156
-139 -51 -19 -73 -20 -315 -17 -247 3 -263 4 -302 25 -106 56 -149 124 -166
261 -14 115 -4 352 17 414 32 91 122 169 218 188 64 12 439 12 499 -1z"/>
<path d="M15615 2815 c-48 -17 -80 -52 -94 -103 -7 -24 -11 -271 -11 -699 l0
-663 150 0 150 0 2 481 3 481 453 -473 c250 -261 468 -482 485 -491 61 -34
134 -19 187 37 l25 27 3 699 2 699 -145 0 -145 0 0 -481 c0 -312 -3 -479 -10
-477 -5 2 -213 215 -460 473 -248 259 -461 475 -473 481 -39 21 -81 24 -122 9z"/>
<path d="M18875 2823 c-35 -9 -87 -54 -101 -89 -12 -27 -14 -154 -14 -709 l0
-675 150 0 150 0 2 480 3 480 459 -479 c252 -263 469 -484 483 -490 65 -30
155 -2 193 61 19 32 20 52 20 721 l0 687 -150 0 -150 0 -2 -481 -3 -481 -449
469 c-248 257 -461 476 -475 485 -29 18 -86 29 -116 21z"/>
<path d="M7230 2799 c-115 -23 -227 -116 -272 -227 -22 -56 -23 -65 -26 -467
-4 -428 0 -480 40 -558 26 -52 81 -111 131 -140 95 -56 108 -57 654 -57 l503
0 0 150 0 150 -492 0 c-271 0 -498 4 -504 8 -31 21 -34 54 -34 425 0 354 1
376 19 398 l19 24 496 3 496 3 0 149 0 150 -492 -1 c-271 -1 -513 -5 -538 -10z"/>
<path d="M12442 2800 c-156 -32 -274 -148 -301 -294 -7 -38 -11 -256 -11 -608
l0 -548 150 0 150 0 2 173 3 172 395 5 c375 5 398 6 448 27 156 64 258 174
298 326 19 71 19 314 -1 386 -21 82 -61 155 -117 216 -58 64 -113 99 -201 128
-58 19 -87 21 -417 23 -195 2 -374 -1 -398 -6z m711 -301 c51 -14 102 -61 122
-113 13 -34 16 -69 13 -159 -3 -127 -12 -150 -77 -194 -56 -38 -117 -43 -456
-41 l-320 3 -3 221 c-3 234 2 268 40 284 33 13 634 12 681 -1z"/>
<path d="M17313 2790 c-25 -11 -51 -33 -63 -52 -20 -32 -20 -45 -18 -583 l3
-550 28 -53 c38 -73 97 -128 175 -165 l67 -32 528 -3 528 -3 -3 148 -3 148
-496 3 c-593 3 -534 -15 -534 161 l0 116 458 3 457 2 0 150 0 150 -460 0 -461
0 3 138 3 137 518 3 518 2 -3 148 -3 147 -600 2 c-574 3 -602 2 -642 -17z"/>
<path d="M20370 2660 l0 -150 283 -2 282 -3 3 -577 2 -578 150 0 150 0 0 580
0 580 280 0 280 0 0 150 0 150 -715 0 -715 0 0 -150z"/>
<path d="M22250 2799 c-135 -23 -255 -113 -313 -237 -31 -65 -32 -72 -32 -197
0 -127 1 -132 33 -197 40 -82 102 -148 173 -184 100 -51 129 -54 484 -54 194
0 345 -4 367 -10 100 -28 128 -176 47 -244 l-31 -26 -534 0 -534 0 0 -150 0
-150 539 0 c608 0 606 0 727 78 131 85 195 242 173 426 -20 164 -121 288 -284
348 -57 21 -81 22 -432 27 l-371 6 -26 24 c-46 43 -51 156 -10 203 42 47 55
48 544 48 l461 0 -3 148 -3 147 -460 1 c-253 1 -485 -2 -515 -7z"/>
<path d="M8770 902 c-44 -22 -70 -67 -77 -137 -6 -55 -6 -55 -39 -55 l-34 0 0
-50 0 -50 35 0 35 0 0 -204 0 -203 39 -7 c21 -3 53 -3 70 0 l31 7 0 203 0 204
65 0 65 0 0 55 0 55 -65 0 c-70 0 -76 5 -53 55 12 27 27 33 93 37 36 3 40 6
43 32 2 15 1 39 -2 52 -6 23 -10 24 -89 24 -58 0 -92 -5 -117 -18z"/>
<path d="M16140 856 c0 -60 7 -66 82 -66 62 0 68 6 68 66 l0 54 -75 0 -75 0 0
-54z"/>
<path d="M21860 856 c0 -60 7 -66 82 -66 62 0 68 6 68 66 l0 54 -75 0 -75 0 0
-54z"/>
<path d="M6940 531 l0 -341 70 0 70 0 0 115 0 115 53 0 c81 1 188 19 227 39
19 10 45 33 58 52 22 31 23 42 20 146 -3 103 -5 114 -28 139 -52 56 -98 68
-292 72 l-178 4 0 -341z m319 204 c16 -8 31 -22 35 -30 9 -25 7 -104 -4 -125
-14 -26 -63 -40 -141 -40 l-69 0 0 105 0 105 75 0 c47 0 87 -6 104 -15z"/>
<path d="M13830 531 l0 -341 70 0 70 0 0 115 0 115 53 0 c81 1 188 19 227 39
19 10 45 33 58 52 22 31 23 42 20 146 -3 103 -5 114 -28 139 -52 56 -98 68
-292 72 l-178 4 0 -341z m319 204 c16 -8 31 -22 35 -30 9 -25 7 -104 -4 -125
-14 -26 -63 -40 -141 -40 l-69 0 0 105 0 105 75 0 c47 0 87 -6 104 -15z"/>
<path d="M18450 530 l0 -342 178 4 c154 3 183 7 224 25 71 32 90 69 86 169 -3
92 -16 116 -77 141 l-35 15 33 15 c45 22 61 59 61 142 0 59 -4 74 -25 99 -44
53 -91 64 -277 70 l-168 5 0 -343z m300 207 c21 -10 25 -21 28 -64 4 -69 -16
-83 -115 -83 l-73 0 0 80 0 80 68 0 c37 0 78 -6 92 -13z m30 -272 c15 -13 20
-30 20 -64 0 -25 -4 -51 -8 -57 -15 -24 -54 -34 -126 -34 l-76 0 0 91 0 92 85
-5 c63 -3 89 -9 105 -23z"/>
<path d="M20040 530 l0 -340 133 0 c227 1 326 26 367 93 18 29 20 51 20 247 0
196 -2 218 -20 247 -43 72 -120 93 -342 93 l-158 0 0 -340z m340 205 c16 -9
32 -25 35 -38 3 -12 4 -94 3 -181 l-3 -159 -27 -20 c-22 -16 -47 -22 -118 -25
l-90 -4 0 221 0 221 85 0 c57 0 96 -5 115 -15z"/>
<path d="M7736 720 c-54 -10 -88 -31 -120 -74 -18 -23 -21 -45 -24 -164 -5
-163 5 -208 52 -250 56 -49 186 -62 344 -35 31 5 32 6 32 57 l0 52 -117 -4
c-136 -5 -159 5 -170 71 l-6 37 158 0 157 0 -4 98 c-4 117 -25 159 -91 191
-50 24 -143 33 -211 21z m147 -128 c10 -9 17 -29 17 -54 0 -38 0 -38 -39 -38
-21 0 -59 -3 -85 -6 l-46 -7 0 34 c0 19 6 45 13 59 20 40 99 47 140 12z"/>
<path d="M8468 721 c-48 -10 -86 -36 -100 -69 -11 -27 -11 -26 -21 21 l-9 47
-59 0 -59 0 0 -259 c0 -288 -4 -271 70 -271 72 0 70 -6 70 177 l0 165 33 33
c25 25 45 34 85 40 l52 7 0 59 c0 63 2 62 -62 50z"/>
<path d="M9217 717 c-69 -16 -113 -54 -128 -111 -6 -23 -9 -99 -7 -177 4 -159
11 -178 93 -218 42 -21 63 -25 145 -25 82 0 104 4 146 25 75 37 84 62 84 244
0 179 -9 207 -80 242 -57 29 -173 38 -253 20z m173 -127 c18 -18 20 -33 20
-133 0 -138 -5 -148 -83 -155 -50 -4 -58 -2 -81 21 -25 25 -26 32 -26 132 0
99 2 107 25 130 32 33 114 36 145 5z"/>
<path d="M9978 721 c-48 -10 -86 -36 -100 -69 -11 -27 -11 -26 -21 21 l-9 47
-59 0 -59 0 0 -259 c0 -288 -4 -271 70 -271 72 0 70 -6 70 177 l0 165 33 33
c25 25 45 34 85 40 l52 7 0 59 c0 63 2 62 -62 50z"/>
<path d="M10414 719 c-40 -9 -62 -25 -88 -63 -13 -18 -14 -17 -21 22 l-7 42
-59 0 -59 0 0 -259 c0 -285 -3 -271 63 -271 18 0 42 3 55 6 22 6 22 8 22 184
0 210 4 219 86 227 39 4 54 1 74 -15 25 -20 25 -22 28 -203 2 -128 7 -186 15
-191 14 -9 73 -10 105 -2 22 6 22 8 22 186 0 177 0 179 25 203 32 33 105 35
135 5 19 -19 20 -33 20 -204 0 -182 0 -184 23 -190 29 -8 81 -8 101 0 23 9 24
410 1 458 -23 48 -68 70 -145 70 -80 0 -123 -16 -148 -56 l-19 -29 -17 25
c-32 50 -128 75 -212 55z"/>
<path d="M11242 720 c-35 -4 -68 -12 -73 -17 -6 -6 -9 -30 -7 -54 3 -37 6 -44
23 -42 11 2 62 3 114 4 115 1 144 -14 149 -78 l3 -41 -113 1 c-90 1 -120 -2
-145 -16 -45 -24 -66 -70 -67 -142 -2 -106 48 -149 170 -149 79 1 124 20 145
63 12 26 12 26 21 -16 l9 -43 60 0 59 0 0 214 c0 205 -1 214 -23 247 -45 67
-148 89 -325 69z m206 -351 c4 -52 -31 -79 -104 -79 -43 0 -56 4 -68 22 -21
30 -20 54 4 78 18 18 31 20 93 18 l72 -3 3 -36z"/>
<path d="M12004 719 c-40 -9 -62 -25 -88 -63 -13 -18 -14 -17 -21 22 l-7 42
-59 0 -59 0 0 -259 c0 -285 -3 -271 63 -271 18 0 42 3 55 6 22 6 22 8 22 184
0 154 2 181 18 199 19 24 77 37 116 27 54 -13 56 -23 56 -221 0 -181 0 -183
23 -189 32 -8 90 -7 105 3 10 6 12 55 10 229 l-3 221 -29 30 c-19 20 -45 34
-78 40 -56 12 -67 12 -124 0z"/>
<path d="M12547 720 c-119 -30 -132 -57 -132 -265 0 -142 2 -164 20 -193 31
-52 94 -76 195 -76 47 0 102 3 123 7 l37 8 0 53 0 52 -100 0 c-135 -1 -135 -1
-135 149 0 150 0 150 135 150 l100 0 0 52 c0 28 -4 54 -9 57 -17 11 -197 15
-234 6z"/>
<path d="M13086 720 c-54 -10 -88 -31 -120 -74 -18 -23 -21 -45 -24 -164 -5
-163 5 -208 52 -250 56 -49 186 -62 344 -35 31 5 32 6 32 57 l0 52 -117 -4
c-136 -5 -159 5 -170 71 l-6 37 158 0 157 0 -4 98 c-4 117 -25 159 -91 191
-50 24 -143 33 -211 21z m147 -128 c10 -9 17 -29 17 -54 0 -38 0 -38 -39 -38
-21 0 -59 -3 -85 -6 l-46 -7 0 34 c0 19 6 45 13 59 20 40 99 47 140 12z"/>
<path d="M14582 720 c-35 -4 -68 -12 -73 -17 -6 -6 -9 -30 -7 -54 3 -37 6 -44
23 -42 11 2 62 3 114 4 115 1 144 -14 149 -78 l3 -41 -113 1 c-90 1 -120 -2
-145 -16 -45 -24 -66 -70 -67 -142 -2 -106 48 -149 170 -149 79 1 124 20 145
63 12 26 12 26 21 -16 l9 -43 60 0 59 0 0 214 c0 205 -1 214 -23 247 -45 67
-148 89 -325 69z m206 -351 c4 -52 -31 -79 -104 -79 -43 0 -56 4 -68 22 -21
30 -20 54 4 78 18 18 31 20 93 18 l72 -3 3 -36z"/>
<path d="M15211 720 c-24 -5 -55 -17 -68 -25 -62 -41 -72 -183 -17 -238 14
-14 56 -33 101 -46 90 -26 103 -35 103 -67 0 -43 -38 -57 -142 -53 l-93 4 -3
-35 c-5 -65 9 -72 144 -73 133 -1 179 12 210 58 38 58 26 190 -21 221 -13 9
-50 22 -82 31 -82 21 -113 39 -113 66 0 47 12 52 125 51 l105 -2 0 48 c0 33
-5 50 -15 54 -29 11 -191 15 -234 6z"/>
<path d="M15721 720 c-24 -5 -55 -17 -68 -25 -62 -41 -72 -183 -17 -238 14
-14 56 -33 101 -46 90 -26 103 -35 103 -67 0 -43 -38 -57 -142 -53 l-93 4 -3
-35 c-5 -65 9 -72 144 -73 133 -1 179 12 210 58 38 58 26 190 -21 221 -13 9
-50 22 -82 31 -82 21 -113 39 -113 66 0 47 12 52 125 51 l105 -2 0 48 c0 33
-5 50 -15 54 -29 11 -191 15 -234 6z"/>
<path d="M17176 720 c-54 -10 -88 -31 -120 -74 -18 -23 -21 -45 -24 -164 -5
-163 5 -208 52 -250 56 -49 186 -62 344 -35 31 5 32 6 32 57 l0 52 -117 -4
c-136 -5 -159 5 -170 71 l-6 37 158 0 157 0 -4 98 c-4 117 -25 159 -91 191
-50 24 -143 33 -211 21z m147 -128 c10 -9 17 -29 17 -54 0 -38 0 -38 -39 -38
-21 0 -59 -3 -85 -6 l-46 -7 0 34 c0 19 6 45 13 59 20 40 99 47 140 12z"/>
<path d="M17751 720 c-24 -5 -55 -17 -68 -25 -62 -41 -72 -183 -17 -238 14
-14 56 -33 101 -46 90 -26 103 -35 103 -67 0 -43 -38 -57 -142 -53 l-93 4 -3
-35 c-5 -65 9 -72 144 -73 133 -1 179 12 210 58 38 58 26 190 -21 221 -13 9
-50 22 -82 31 -82 21 -113 39 -113 66 0 47 12 52 125 51 l105 -2 0 48 c0 33
-5 50 -15 54 -29 11 -191 15 -234 6z"/>
<path d="M20876 720 c-54 -10 -88 -31 -120 -74 -18 -23 -21 -45 -24 -164 -5
-163 5 -208 52 -250 56 -49 186 -62 344 -35 31 5 32 6 32 57 l0 52 -117 -4
c-136 -5 -159 5 -170 71 l-6 37 158 0 157 0 -4 98 c-4 117 -25 159 -91 191
-50 24 -143 33 -211 21z m147 -128 c10 -9 17 -29 17 -54 0 -38 0 -38 -39 -38
-21 0 -59 -3 -85 -6 l-46 -7 0 34 c0 19 6 45 13 59 20 40 99 47 140 12z"/>
<path d="M21451 720 c-24 -5 -55 -17 -68 -25 -62 -41 -72 -183 -17 -238 14
-14 56 -33 101 -46 90 -26 103 -35 103 -67 0 -43 -38 -57 -142 -53 l-93 4 -3
-35 c-5 -65 9 -72 144 -73 133 -1 179 12 210 58 38 58 26 190 -21 221 -13 9
-50 22 -82 31 -82 21 -113 39 -113 66 0 47 12 52 125 51 l105 -2 0 48 c0 33
-5 50 -15 54 -29 11 -191 15 -234 6z"/>
<path d="M22305 724 c-48 -12 -77 -29 -98 -58 -21 -29 -22 -41 -22 -201 0
-146 3 -175 18 -198 26 -41 61 -58 124 -64 77 -7 135 10 167 48 l26 31 0 -66
c0 -54 -4 -69 -24 -93 -24 -28 -25 -28 -148 -29 l-123 -1 -3 -46 -3 -47 170 0
c168 0 170 0 201 26 64 54 65 58 68 392 l4 302 -66 0 -66 0 0 -34 c0 -43 -14
-53 -28 -21 -6 13 -24 31 -39 38 -30 16 -126 28 -158 21z m182 -138 c26 -23
28 -30 31 -113 4 -85 2 -91 -23 -121 -24 -29 -33 -32 -79 -32 -81 0 -91 16
-91 147 0 98 2 106 24 124 34 28 102 26 138 -5z"/>
<path d="M23094 719 c-40 -9 -62 -25 -88 -63 -13 -18 -14 -17 -21 22 l-7 42
-59 0 -59 0 0 -259 c0 -285 -3 -271 63 -271 18 0 42 3 55 6 22 6 22 8 22 184
0 154 2 181 18 199 19 24 77 37 116 27 54 -13 56 -23 56 -221 0 -181 0 -183
23 -189 32 -8 90 -7 105 3 10 6 12 55 10 229 l-3 221 -29 30 c-19 20 -45 34
-78 40 -56 12 -67 12 -124 0z"/>
<path d="M16150 450 l0 -260 70 0 70 0 0 260 0 260 -70 0 -70 0 0 -260z"/>
<path d="M16423 698 c2 -7 19 -60 36 -118 18 -58 53 -169 77 -247 l45 -143 88
0 88 0 80 260 80 260 -67 0 -68 0 -53 -190 c-29 -104 -55 -190 -58 -190 -3 0
-30 86 -60 190 l-54 190 -69 0 c-52 0 -69 -3 -65 -12z"/>
<path d="M19100 509 c0 -165 3 -207 16 -235 24 -51 65 -69 154 -69 82 0 134
20 145 55 14 43 24 17 18 -47 -4 -53 -11 -73 -29 -93 -23 -24 -30 -25 -144
-25 l-119 0 -5 -29 c-14 -70 -24 -66 162 -66 193 0 219 8 252 83 18 38 20 68
20 335 l0 292 -70 0 -70 0 0 -170 c0 -168 0 -171 -25 -195 -32 -33 -114 -36
-145 -5 -18 18 -20 33 -20 195 l0 175 -70 0 -70 0 0 -201z"/>
<path d="M21870 450 l0 -260 70 0 70 0 0 260 0 260 -70 0 -70 0 0 -260z"/>
</g>
</svg>
