<?xml version="1.0" encoding="utf-8"?>
<!-- Generator: Adobe Illustrator 19.2.1, SVG Export Plug-In . SVG Version: 6.00 Build 0)  -->
<svg version="1.1" id="layer" xmlns="http://www.w3.org/2000/svg" xmlns:xlink="http://www.w3.org/1999/xlink" x="0px" y="0px"
	 viewBox="0 0 652 652" style="enable-background:new 0 0 652 652;" xml:space="preserve">
<style type="text/css">
	.st0{fill:#F9BE00;}
	.st1{fill:#1458A7;}
	.st2{fill:#D81419;}
</style>
<g>
	<path class="st0" d="M204.1,277.8h-183c-0.2,0-0.3-0.2-0.3-0.4v-15.2c0-0.2,0.2-0.4,0.3-0.4h183c0.2,0,0.3,0.2,0.3,0.4v15.2
		C204.4,277.7,204.2,277.8,204.1,277.8"/>
	<path class="st1" d="M412.1,277.8H229c-0.2,0-0.3-0.2-0.3-0.4v-15.2c0-0.2,0.2-0.4,0.3-0.4h183c0.2,0,0.3,0.2,0.3,0.4v15.2
		C412.4,277.7,412.3,277.8,412.1,277.8"/>
	<path class="st2" d="M620.2,277.8h-183c-0.2,0-0.3-0.2-0.3-0.4v-15.2c0-0.2,0.2-0.4,0.3-0.4h183c0.2,0,0.3,0.2,0.3,0.4v15.2
		C620.5,277.7,620.4,277.8,620.2,277.8"/>
	<path class="st1" d="M84.8,349.2c-0.1-0.1-0.1-0.3,0.1-0.3l11-0.1h0c0.1,0,8.1,0.4,13.3-2.8c2.2-1.3,4.6-3.7,5.8-7.9
		c0.6-2,0.7-4.1,0.7-7.4c0-4-0.1-8.3-0.1-12.5c0-4,0.5-8.2-0.4-12.4c-1.7-8.1-7.6-10.3-12.4-11.2c-2.4-0.4-6.4-0.5-6.9-0.5
		c0,0,0,0,0,0H21.2c-0.4,0-0.7,0.3-0.7,0.7v86.7c0,0.4,0.3,0.7,0.6,0.7h18.8c0.4,0,0.8-0.4,0.8-0.8l0-31.8c0-0.4,0.3-0.7,0.6-0.7
		l17.7-0.1c0,0,0.6,0,1,0.2c0.2,0.1,0.7,0.4,0.7,0.4L95,381.6c0.4,0.3,0.8,0.5,1.3,0.5h28.3c0.1,0,0.2-0.2,0.1-0.3L84.8,349.2z
		 M41.6,333.9c-0.5,0-0.8-0.4-0.8-0.9l0-23c0-0.3,0.3-0.6,0.6-0.6l44.8,0c0,0,6.1-0.3,8.2,1.9c1.9,1.9,1.6,4.8,1.6,4.8v10.4
		c0,0,0.2,4.2-1.5,5.5c-2,2.1-6.7,1.9-6.7,1.9L41.6,333.9z"/>
	<path class="st1" d="M161.3,364.8v-20.1c0-0.5,0.4-0.9,0.8-0.9h39.1c0.3,0,0.6-0.3,0.6-0.7v-13.7c0-0.3-0.3-0.6-0.6-0.6H162
		c-0.4,0-0.7-0.3-0.7-0.8v-18.1c0-0.4,0.3-0.7,0.7-0.7h68.3c0.4,0,0.7-0.3,0.7-0.7v-13.5c0-0.4-0.3-0.7-0.7-0.7h-69h-19.8
		c-0.4,0-0.7,0.3-0.7,0.8v14.1v56.6v15.5c0,0.5,0.4,0.9,0.8,0.9h89.6c0.2,0,0.4-0.2,0.4-0.5v-15.4c0-0.3-0.2-0.6-0.5-0.6h-69
		C161.7,365.7,161.3,365.3,161.3,364.8"/>
	<path class="st1" d="M329.6,351.6v13.4c0,0.4-0.3,0.7-0.7,0.7h-56.4c-0.4,0-0.8-0.4-0.8-0.8v-54.1c0-0.4,0.3-0.7,0.7-0.7h56.5
		c0.3,0,0.6,0.3,0.6,0.6V322c0,0.4,0.3,0.6,0.6,0.6h19.3c0.3,0,0.6-0.3,0.6-0.6v-9.2c0-4.4-0.9-10.7-4.7-14.3
		c-3.7-3.5-10.3-4.3-14.3-4.3h-61.3c-4.9,0-10.9,1.1-14.3,4.3c-3.9,3.6-4.7,9.7-4.7,15.6v49.3c0,5,0.9,10.3,4,13.7
		c3.3,3.6,8.9,5,13.9,5h63.6c5.2,0,10.8-1.4,14.2-5.4c2.8-3.3,3.6-8.3,3.6-13.1v-12.2c0-0.3-0.2-0.5-0.5-0.5h-19.2
		C329.9,350.9,329.6,351.2,329.6,351.6"/>
	<path class="st1" d="M474.7,298.3c-3.7-3.5-10.3-4.1-14.3-4.1h-68.1c-4.9,0-10.9,1.1-14.3,4.3c-3.9,3.6-4.5,9.7-4.5,15.6v49.3
		c0,5,0.6,10.3,3.7,13.7c3.3,3.6,8.9,5,13.9,5h70.5c5.2,0,10.8-1.4,14.2-5.4c2.8-3.3,3.6-8.3,3.6-13.1l0.1-44.3v-6.4
		C479.5,308.5,478.6,301.9,474.7,298.3 M459.3,364.9c0,0.4-0.3,0.7-0.7,0.7h-64.3c-0.4,0-0.8-0.4-0.8-0.8v-54.1
		c0-0.4,0.3-0.7,0.7-0.7h64.5c0.3,0,0.6,0.3,0.6,0.6v8.7L459.3,364.9z"/>
	<path class="st1" d="M603.7,294.8l-39.9,52c-0.2,0.2-0.5,0.2-0.7,0l-40.7-52c-0.2-0.3-0.6-0.5-1-0.5h-15.2c-0.5,0-0.8,0.4-0.8,0.9
		v87h16.7v-56.3l-0.4-6.5l3.7,6.4l33.9,45c1.4,1.8,4,1.8,5.4,0l34-45.2l3.3-6.4l-0.3,6.6l-0.1,55.5c0,0.4,0.3,0.8,0.8,0.8h17.6
		c0.4,0,0.6-0.3,0.6-0.7v-86.3c0-0.5-0.4-0.8-0.8-0.8h-15C604.3,294.3,603.9,294.4,603.7,294.8"/>
</g>
</svg>
