<?xml version="1.0" encoding="utf-8"?>
<!-- Generator: Adobe Illustrator 19.2.1, SVG Export Plug-In . SVG Version: 6.00 Build 0)  -->
<svg version="1.1" id="layer" xmlns="http://www.w3.org/2000/svg" xmlns:xlink="http://www.w3.org/1999/xlink" x="0px" y="0px"
	 viewBox="0 0 652 652" style="enable-background:new 0 0 652 652;" xml:space="preserve">
<style type="text/css">
	.st0{fill:#0065AF;}
</style>
<path class="st0" d="M113,206.3L34.7,72.7H625l-79.1,133.6H113z M193.7,343l134.4,229.7L465.1,343H193.7z"/>
<path d="M90.7,327.6H60.3L20.6,221.7h27.8l27.3,74.5h0.3l27.6-74.5h27.8L90.7,327.6z M135.7,327.6h26.9v-106h-26.9V327.6z
	 M172.6,292.5c-0.3,26.1,25,37.7,52.1,37.7c33.3,0,50.9-14.5,50.9-34c0-24-27.4-28.9-36.3-30.9c-30.7-6.8-36.5-7.9-36.5-16
	c0-8.9,9.9-12,18.5-12c12.9,0,23.3,3.3,24.2,16h26.1c0-24.5-23.5-34.1-49-34.1c-22.1,0-45.8,10.4-45.8,32.1
	c0,19.9,18.3,26,36.5,30.1c18,4.2,36.3,6.1,36.3,17.5c0,10.8-14.4,13.2-23.8,13.2c-14.4,0-27.1-5.5-27.1-19.6H172.6z M285.2,327.6
	h26.9v-45.7h49.5v45.7h26.9v-106h-26.9v40.7h-49.5v-40.7h-26.9V327.6z M451.1,247.8h0.3l15.4,38.9h-31.7L451.1,247.8z M391.3,327.6
	h27.2l9.6-23.6h45.8l9.3,23.6h27.9l-45.8-106h-27.6L391.3,327.6z M533.5,327.6h26.9V287l45.4-65.3h-30l-28.5,41.8l-28.6-41.8h-30.3
	l45.1,64.7V327.6z M594.6,305.4h3.3c1.8,0,4,0.3,4,2.4c0,2.4-1.6,2.7-3.8,2.7h-3.4V305.4z M590.8,321.8h3.8v-8.3h2.4l4.7,8.3h4.1
	l-5.2-8.5c2.9-0.2,5.1-1.6,5.1-5.2c0-4.2-2.7-5.8-7.6-5.8h-7.3V321.8z M597.7,325.8c-7.3,0-13.1-5.8-13.1-13.7
	c0-7.9,5.8-13.6,13.1-13.6c7.2,0,13.1,5.7,13.1,13.6C610.8,320.1,604.9,325.8,597.7,325.8 M597.7,294.8c-9.4,0-17.8,6.8-17.8,17.3
	c0,10.6,8.4,17.4,17.8,17.4c9.4,0,17.8-6.8,17.8-17.4C615.6,301.6,607.1,294.8,597.7,294.8"/>
</svg>
